/* XPM */
static char *result[] = {
/* columns rows colors chars-per-pixel */
"80 80 169 2 ",
"   c #000001",
".  c #030D03",
"X  c #020E05",
"o  c #190E0B",
"O  c #041304",
"+  c #041605",
"@  c #041B0A",
"#  c #051C08",
"$  c #1B1C0C",
"%  c #21130A",
"&  c #22130B",
"*  c #26160B",
"=  c #251511",
"-  c #311B16",
";  c #05230B",
":  c #0D2109",
">  c #05290E",
",  c #092C09",
"<  c #132F0C",
"1  c #1B2C0D",
"2  c #10320E",
"3  c #16370E",
"4  c #1D2A11",
"5  c #083E15",
"6  c #3A2111",
"7  c #3A2116",
"8  c #372916",
"9  c #002939",
"0  c #2D2524",
"q  c #2F2820",
"w  c #3C2F23",
"e  c #4D2B16",
"r  c #4A391C",
"t  c #4A2920",
"y  c #453A2E",
"u  c #473C2F",
"i  c #583120",
"p  c #593E21",
"a  c #493C32",
"s  c #653920",
"d  c #0D420D",
"f  c #0B4011",
"g  c #0B4614",
"h  c #094417",
"j  c #0E4D13",
"k  c #18401A",
"l  c #0E5516",
"z  c #0B521C",
"x  c #0E5B19",
"c  c #0C591D",
"v  c #195E16",
"b  c #2F4213",
"n  c #204A1C",
"m  c #0F621D",
"M  c #1E6316",
"N  c #1A6B1D",
"B  c #246E19",
"V  c #276E1C",
"C  c #2B6D1C",
"Z  c #304D24",
"A  c #0C6020",
"S  c #0F6820",
"D  c #0F6E23",
"F  c #107325",
"G  c #107B29",
"H  c #236026",
"J  c #316826",
"K  c #3B6827",
"L  c #306E28",
"P  c #555501",
"I  c #525423",
"U  c #644C2F",
"Y  c #734120",
"T  c #645426",
"R  c #6D522C",
"E  c #755A2C",
"W  c #417B31",
"Q  c #737B39",
"!  c #003E56",
"~  c #554D40",
"^  c #555556",
"/  c #6B5A46",
"(  c #846918",
")  c #83542B",
"_  c #976531",
"`  c #946836",
"'  c #947337",
"]  c #946744",
"[  c #986D49",
"{  c #8E785D",
"}  c #8F7F5E",
"|  c #A47B41",
" . c #A27854",
".. c #86706A",
"X. c #208929",
"o. c #308320",
"O. c #3B9926",
"+. c #319629",
"@. c #369B29",
"#. c #60A71B",
"$. c #478927",
"%. c #528326",
"&. c #58902C",
"*. c #41A429",
"=. c #75A737",
"-. c #A28015",
";. c #AAAA00",
":. c #9B8525",
">. c #838939",
",. c #AF9629",
"<. c #B08836",
"1. c #AD9D30",
"2. c #B69534",
"3. c #B89833",
"4. c #A0BB2E",
"5. c #C2A72B",
"6. c #D4BA24",
"7. c #80C21B",
"8. c #D7C41D",
"9. c #E1D316",
"0. c #E7D818",
"q. c #EEDE19",
"w. c #C0E10E",
"e. c yellow",
"r. c #F4E31B",
"t. c #D9C128",
"y. c #D7C235",
"u. c #E9C837",
"i. c #F1E62E",
"p. c #F6EC34",
"a. c #FFF73F",
"s. c #B78B47",
"d. c #BA8841",
"f. c #B58D5C",
"g. c #AAA944",
"h. c #928E61",
"j. c #999065",
"k. c #B48E67",
"l. c #B79263",
"z. c #B1926F",
"x. c #AD9577",
"c. c #AF9777",
"v. c #AA997E",
"b. c #BF9A73",
"n. c #CB9C4C",
"m. c #DEAC52",
"M. c #C29F6A",
"N. c #D9BE64",
"B. c #C5A172",
"V. c #D8C04C",
"C. c #E3CD5D",
"Z. c #31529C",
"A. c #007CAA",
"S. c #00BAFF",
"D. c #AEAF82",
"F. c #BDA888",
"G. c #D0AF89",
"H. c #D5B48B",
"J. c #E1C294",
"K. c #E2C499",
"L. c #E3C59C",
"P. c #E8CAA1",
"I. c #EBCEA1",
"U. c #F1D5AC",
"Y. c #FFE6BD",
"T. c #BAC5DE",
"R. c #FFF7E9",
"E. c white",
"W. c None",
/* pixels */
"W.W.W.W.W.W.W.W.W.W.W.W.W.W.W.W.W.W.W.W.W.W.W.W.W.W.W.W.W.W.W.W.W.W.W.W.W.W.W.W.W.W.W.W.W.W.W.W.W.W.W.W.W.W.W.W.W.W.W.W.W.W.W.W.W.W.W.W.W.W.W.W.W.W.W.W.W.W.W.W.",
"W.W.W.W.W.W.W.W.W.W.W.W.W.W.W.W.W.W.W.W.W.W.W.W.W.W.W.W.W.W.W.W.W.W.W.W.W.W.W.W.W.W.W.W.W.W.W.W.W.W.W.W.W.W.W.W.W.W.W.W.W.W.W.W.W.W.W.W.W.W.W.W.W.W.W.W.W.W.W.W.",
"W.W.W.W.W.W.W.W.W.W.W.W.W.W.W.W.W.W.W.W.W.W.W.W.W.W.W.W.W.W.W.W.W.W.W.W.W.W.W.W.W.W.W.W.W.W.W.W.W.W.W.W.W.W.W.W.W.W.W.W.W.W.W.W.W.W.W.W.W.W.W.W.W.W.W.W.W.W.W.W.",
"W.W.W.W.W.W.W.W.W.W.W.W.W.W.W.W.W.W.W.W.W.W.W.W.W.W.W.| | | ` Y Y Y J G G S d d d *.*.*.*.*.*.*.*.*.*.X.G G G W.W.W.W.W.W.W.W.W.W.W.W.W.W.W.W.W.W.W.W.W.W.W.W.W.",
"W.W.W.W.W.W.W.W.W.W.W.W.W.W.W.W.W.W.W.W.W.W.W.W.W.W.W.| | | ` Y Y Y J G G S d d d *.*.*.*.*.*.*.*.*.*.X.G G G W.W.W.W.W.W.W.W.W.W.W.W.W.W.W.W.W.W.W.W.W.W.W.W.W.",
"W.W.W.W.W.W.W.W.W.W.W.W.W.W.W.W.W.W.W.W.W.W.W.W.W.W.W.| | | ` Y Y Y J G G S d d d *.*.*.*.*.*.*.*.*.*.X.G G G W.W.W.W.W.W.W.W.W.W.W.W.W.W.W.W.W.W.W.W.W.W.W.W.W.",
"W.W.W.W.W.W.W.W.W.W.W.W.W.W.W.W.W.W.W.W.W.| | | m.m.m.r.e.e.e.e.e.e.7.*.*.o.d d d *.*.*.*.*.*.*.*.*.*.*.*.*.+.G G G G G G G W.W.W.W.W.W.W.W.W.W.W.W.W.W.W.W.W.W.",
"W.W.W.W.W.W.W.W.W.W.W.W.W.W.W.W.W.W.W.W.W.| | | m.m.m.r.e.e.e.e.e.e.7.*.*.o.d d d *.*.*.*.*.*.*.*.*.*.*.*.*.+.G G G G G G G W.W.W.W.W.W.W.W.W.W.W.W.W.W.W.W.W.W.",
"W.W.W.W.W.W.W.W.W.W.W.W.W.W.W.W.W.W.W.W.W.| | | m.m.m.r.e.e.e.e.e.e.7.*.*.o.d d d *.*.*.*.*.*.*.*.*.*.*.*.*.+.G G G G G G G W.W.W.W.W.W.W.W.W.W.W.W.W.W.W.W.W.W.",
"W.W.W.W.W.W.W.W.W.W.W.W.W.W.W.W.W.W.W.W.2.5.5.5.n.n.n.t.9.9.0.r.r.r.4.=.=.&.M M M o.o.o.O.*.*.*.*.*.*.*.*.*.@.X.X.X.G G G F W.W.W.W.W.W.W.W.W.W.W.W.W.W.W.W.W.W.",
"W.W.W.W.W.W.W.W.W.W.W.W.W.W.W.W.W.| | | 5.e.e.e.| | | | | | s.m.m.m.m.m.m.g.*.*.*.d d d o.*.*.*.*.*.*.*.*.*.*.*.*.*.G G G S d d d W.W.W.W.W.W.W.W.W.W.W.W.W.W.W.",
"W.W.W.W.W.W.W.W.W.W.W.W.W.W.W.W.W.| | | 5.e.e.e.| | | | | | s.m.m.m.m.m.m.g.*.*.*.d d d o.*.*.*.*.*.*.*.*.*.*.*.*.*.G G G S d d d W.W.W.W.W.W.W.W.W.W.W.W.W.W.W.",
"W.W.W.W.W.W.W.W.W.W.W.W.W.W.W.W.W.| | | 5.e.e.e.| | | | | | s.m.m.m.m.m.m.g.*.*.*.d d d o.*.*.*.*.*.*.*.*.*.*.*.*.*.G G G S d d d W.W.W.W.W.W.W.W.W.W.W.W.W.W.W.",
"W.W.W.W.W.W.W.W.W.W.W.W.W.W.| | | e.e.e.9.| | | m.m.m.s.| | 5.e.e.e.5.| | >.*.*.*.d d d o.*.*.*.*.*.*.*.*.*.+.G G G G G G G G G G d d d W.W.W.W.W.W.W.W.W.W.W.W.",
"W.W.W.W.W.W.W.W.W.W.W.W.W.W.| | | e.e.e.9.| | | m.m.m.s.| | 5.e.e.e.5.| | >.*.*.*.d d d o.*.*.*.*.*.*.*.*.*.+.G G G G G G G G G G d d d W.W.W.W.W.W.W.W.W.W.W.W.",
"W.W.W.W.W.W.W.W.W.W.W.W.W.W.| | | e.e.e.9.| | | m.m.m.s.| | 5.e.e.e.5.| | >.*.*.*.d d d o.*.*.*.*.*.*.*.*.*.+.G G G G G G G G G G d d d W.W.W.W.W.W.W.W.W.W.W.W.",
"W.W.W.W.W.W.W.W.W.W.W.W.W.W.) ) ) e.e.e.q.n.n.n._ _ _ f.B.B.V.e.e.e.5.| | 1.w.w.w.o.o.o.B M M M M M M M M M N G G G G G G G G G G d d d W.W.W.W.W.W.W.W.W.W.W.W.",
"W.W.W.W.W.W.W.W.W.W.W.W.W.W.Y Y Y e.e.e.r.m.m.m.Y Y Y k.H.H.C.e.e.e.5.| | 5.e.e.e.*.*.*.M d d d d d d d d d l G G G G G G G G G G d d d W.W.W.W.W.W.W.W.W.W.W.W.",
"W.W.W.W.W.W.W.W.W.W.W.W.W.W.Y Y Y e.e.e.r.m.m.m.Y Y Y k.H.H.C.e.e.e.5.| | 5.e.e.e.*.*.*.M d d d d d d d d d l G G G G G G G G G G d d d W.W.W.W.W.W.W.W.W.W.W.W.",
"W.W.W.W.W.W.W.W.W.W.W.W.W.W.Y Y Y 9.9.9.6.d.d.d.] ] ] b.H.H.N.9.9.9.3.| | 5.e.e.e.+.+.+.v d d d l l l l l l m G G G G G G G G G G l l l j W.W.W.W.W.W.W.W.W.W.W.",
"W.W.W.W.W.W.W.W.W.W.W.W.W.W.W.W.W.| | | ` Y Y Y H.H.H.H.H.H.B.| | | | | | 5.e.e.e.G G G l d d d G G G G G G G G G G G G G G G G G G G G l d d d W.W.W.W.W.W.W.W.",
"W.W.W.W.W.W.W.W.W.W.W.W.W.W.W.W.W.| | | ` Y Y Y H.H.H.H.H.H.B.| | | | | | 5.e.e.e.G G G l d d d G G G G G G G G G G G G G G G G G G G G l d d d W.W.W.W.W.W.W.W.",
"W.W.W.W.W.W.W.W.W.W.W.W.W.W.W.W.W.| | | ` Y Y Y H.H.H.H.H.H.B.| | | | | | 5.e.e.e.G G G l d d d G G G G G G G G G G G G G G G G G G G G l d d d W.W.W.W.W.W.W.W.",
"W.W.W.W.W.W.W.W.W.W.W.W.W.W.W.W.W.W.W.W.p * * * H.H.H.P.U.U.K.B.B.B.y.9.9.8.5.5.5.Q Q Q L S S S l l l D G G D l l l l l l m G G G G G G l d d d W.W.W.W.W.W.W.W.",
"W.W.W.W.W.W.W.W.W.W.W.W.W.W.W.W.W.W.W.W.W.      H.H.H.U.Y.Y.U.H.H.H.i.e.e.9.| | | | | | W G G G d d d S G G S d d d d d d l G G G G G G l d d d W.W.W.W.W.W.W.W.",
"W.W.W.W.W.W.W.W.W.W.W.W.W.W.W.W.W.W.W.W.W.      H.H.H.U.Y.Y.U.H.H.H.i.e.e.9.| | | | | | W G G G d d d S G G S d d d d d d l G G G G G G l d d d W.W.W.W.W.W.W.W.",
"W.W.W.W.W.W.W.W.W.W.W.W.W.W.W.W.W.W.W.W.W.      k.k.k.x.v.v.F.L.L.L.p.e.e.9.| | | ` ` ` K S S S l l l m S S x d d d , , , f S S S G G G g , , , W.W.W.W.W.W.W.W.",
"W.W.W.W.W.W.W.W.W.W.W.W.W.W.W.W.W.W.W.W.W.      Y Y Y *     ~ Y.Y.Y.a.e.e.9.| | | Y Y Y b d d d G G G l d d d d d d       + d d d G G G >       W.W.W.W.W.W.W.W.",
"W.W.W.W.W.W.W.W.W.W.W.W.W.W.W.W.W.W.W.W.W.      Y Y Y *     ~ Y.Y.Y.a.e.e.9.| | | Y Y Y b d d d G G G l d d d d d d       + d d d G G G >       W.W.W.W.W.W.W.W.",
"W.W.W.W.W.W.W.W.W.W.W.W.W.W.W.W.W.W.W.W.W.      Y Y Y *     ~ Y.Y.Y.a.e.e.9.| | | Y Y Y b d d d G G G l d d d d d d       + d d d G G G >       W.W.W.W.W.W.W.W.",
"W.W.W.W.W.W.W.W.W.W.W.W.W.W.W.W.W.      u H.H.H.Z.Z.Z.T.E.E.R.Y.Y.Y.M.| | s.m.m.m.Y Y Y k.H.H.H.Y.Y.Y.Y.Y.Y.D.d d d       + d d d d d d +       W.W.W.W.W.W.W.W.",
"W.W.W.W.W.W.W.W.W.W.W.W.W.W.W.W.W.      u H.H.H.Z.Z.Z.T.E.E.R.Y.Y.Y.M.| | s.m.m.m.Y Y Y k.H.H.H.Y.Y.Y.Y.Y.Y.D.d d d       + d d d d d d +       W.W.W.W.W.W.W.W.",
"W.W.W.W.W.W.W.W.W.W.W.W.W.W.W.W.W.      u H.H.H.Z.Z.Z.T.E.E.R.Y.Y.Y.M.| | s.m.m.m.Y Y Y k.H.H.H.Y.Y.Y.Y.Y.Y.D.d d d       + d d d d d d +       W.W.W.W.W.W.W.W.",
"W.W.W.W.W.W.W.W.W.W.W.W.W.W.W.W.W.      u H.H.H.Z.Z.Z.T.E.E.R.Y.Y.Y.l.` ` <.u.u.u.e e e z.L.L.L.Y.Y.Y.I.J.J.j., , ,       O , , , l l l #       W.W.W.W.W.W.W.W.",
"W.W.W.W.W.W.W.W.W.W.W.W.W.W.W.W.W.      u H.H.H.Z.Z.Z.T.E.E.R.Y.Y.Y. .Y Y -.e.e.e.      v.Y.Y.Y.Y.Y.Y.M.| | R       W.W.W.W.      G G G >       W.W.W.W.W.W.W.W.",
"W.W.W.W.W.W.W.W.W.W.W.W.W.W.W.W.W.      u H.H.H.Z.Z.Z.T.E.E.R.Y.Y.Y. .Y Y -.e.e.e.      v.Y.Y.Y.Y.Y.Y.M.| | R       W.W.W.W.      G G G >       W.W.W.W.W.W.W.W.",
"W.W.W.W.W.W.W.W.W.W.W.W.W.W.W.W.W.      u H.H.H.Z.Z.Z.T.E.E.R.Y.Y.Y. .Y Y -.e.e.e.      v.Y.Y.Y.Y.Y.Y.M.| | R       W.W.W.W.      G G G >       W.W.W.W.W.W.W.W.",
"W.W.W.W.W.W.W.W.W.W.W.W.W.W.W.W.W.W.W.W.W.      H.H.H.U.Y.Y.Y.Y.Y.Y. .Y Y -.e.e.e.      A.S.S.S.| | | 8             W.W.W.W.      d d d +       W.W.W.W.W.W.W.W.",
"W.W.W.W.W.W.W.W.W.W.W.W.W.W.W.W.W.W.W.W.W.      H.H.H.U.Y.Y.Y.Y.Y.Y. .Y Y -.e.e.e.      A.S.S.S.| | | 8             W.W.W.W.      d d d +       W.W.W.W.W.W.W.W.",
"W.W.W.W.W.W.W.W.W.W.W.W.W.W.W.W.W.W.W.W.W.      H.H.H.U.Y.Y.Y.Y.Y.Y. .Y Y -.e.e.e.      A.S.S.S.| | | 8             W.W.W.W.      d d d +       W.W.W.W.W.W.W.W.",
"W.W.W.W.W.W.W.W.W.W.W.W.W.W.W.W.W.W.W.W.W.W.W.W.u u u c.L.L.L.L.L.L.[ Y Y -.e.e.e.      9 ! ! ! 8 8 8 E ' ' :.;.;.;.W.W.W.W.W.W.W.+ + + . W.W.W.W.W.W.W.W.W.W.W.",
"W.W.W.W.W.W.W.W.W.W.W.W.W.W.W.W.W.W.W.W.W.W.W.W.      { H.H.H.H.H.H.] Y Y -.e.e.e.                    ' m.m.u.e.e.e.W.W.W.W.W.W.W.      W.W.W.W.W.W.W.W.W.W.W.W.",
"W.W.W.W.W.W.W.W.W.W.W.W.W.W.W.W.W.W.W.W.W.W.W.W.      { H.H.H.H.H.H.] Y Y -.e.e.e.                    ' m.m.u.e.e.e.W.W.W.W.W.W.W.      W.W.W.W.W.W.W.W.W.W.W.W.",
"W.W.W.W.W.W.W.W.W.W.W.W.W.W.W.W.W.W.W.W.W.W.W.W.      / { { } h.h.h.U e e ( r.r.r.      @ > > > + + + T ' ' ,.e.e.e.W.W.W.W.W.W.W.      W.W.W.W.W.W.W.W.W.W.W.W.",
"W.W.W.W.W.W.W.W.W.W.W.W.W.W.W.W.W.W.W.W.W.W.W.W.W.W.W.      + d d d +     r m.m.m.      z G G G d d d +       W.W.W.W.W.W.W.W.W.W.W.W.W.W.W.W.W.W.W.W.W.W.W.W.W.",
"W.W.W.W.W.W.W.W.W.W.W.W.W.W.W.W.W.W.W.W.W.W.W.W.W.W.W.      + d d d +     r m.m.m.      z G G G d d d +       W.W.W.W.W.W.W.W.W.W.W.W.W.W.W.W.W.W.W.W.W.W.W.W.W.",
"W.W.W.W.W.W.W.W.W.W.W.W.W.W.W.W.W.W.W.W.W.W.W.W.W.W.W.      + d d d +     r m.m.m.      z G G G d d d +       W.W.W.W.W.W.W.W.W.W.W.W.W.W.W.W.W.W.W.W.W.W.W.W.W.",
"W.W.W.W.W.W.W.W.W.W.W.W.W.W.W.W.W.W.W.W.W.W.W.W.      5 z z c S S S c z z n r r r e e e 4 > > > S S S ;       W.W.W.W.W.W.W.W.W.W.W.W.W.W.W.W.W.W.W.W.W.W.W.W.W.",
"W.W.W.W.W.W.W.W.W.W.W.W.W.W.W.W.W.W.W.W.W.W.W.W.      z G G G G G G G G G z       Y Y Y *       G G G >       W.W.W.W.W.W.W.W.W.W.W.W.W.W.W.W.W.W.W.W.W.W.W.W.W.",
"W.W.W.W.W.W.W.W.W.W.W.W.W.W.W.W.W.W.W.W.W.W.W.W.      z G G G G G G G G G z       Y Y Y *       G G G >       W.W.W.W.W.W.W.W.W.W.W.W.W.W.W.W.W.W.W.W.W.W.W.W.W.",
"W.W.W.W.W.W.W.W.W.W.W.W.W.W.W.W.W.W.W.W.W.W.W.W.P P P V G G G G G G A z z h > > > I I I $       G G G >       W.W.W.W.W.W.W.W.W.W.W.W.W.W.W.W.W.W.W.W.W.W.W.W.W.",
"W.W.W.W.W.W.W.W.W.W.W.W.W.W.W.W.W.W.W.W.W.      e.e.e.#.G G G G G G >     > G G G G G G >       G G G >       W.W.W.W.W.W.W.W.W.W.W.W.W.W.W.W.W.W.W.W.W.W.W.W.W.",
"W.W.W.W.W.W.W.W.W.W.W.W.W.W.W.W.W.W.W.W.W.      e.e.e.#.G G G G G G >     > G G G G G G >       G G G >       W.W.W.W.W.W.W.W.W.W.W.W.W.W.W.W.W.W.W.W.W.W.W.W.W.",
"W.W.W.W.W.W.W.W.W.W.W.W.W.W.W.W.W.W.W.W.W.      e.e.e.#.G G G G G G >     > G G G G G G >       G G G >       W.W.W.W.W.W.W.W.W.W.W.W.W.W.W.W.W.W.W.W.W.W.W.W.W.",
"W.W.W.W.W.W.W.W.W.W.W.W.W.W.W.W.W.W.W.W.W.      G G G I Y Y Y Y Y Y *     ^ E.E.E.E.E.E.^       t t t t t t -       W.W.W.W.W.W.W.W.W.W.W.W.W.W.W.W.W.W.W.W.W.W.",
"W.W.W.W.W.W.W.W.W.W.W.W.W.W.W.W.W.W.W.W.W.      G G G I Y Y Y Y Y Y *     ^ E.E.E.E.E.E.^       t t t t t t -       W.W.W.W.W.W.W.W.W.W.W.W.W.W.W.W.W.W.W.W.W.W.",
"W.W.W.W.W.W.W.W.W.W.W.W.W.W.W.W.W.W.W.W.W.      G G G I Y Y Y Y Y Y *     ^ E.E.E.E.E.E.^       t t t t t t -       W.W.W.W.W.W.W.W.W.W.W.W.W.W.W.W.W.W.W.W.W.W.",
"W.W.W.W.W.W.W.W.W.W.W.W.W.W.W.W.W.W.W.W.W.      +.+.+.$.%.%.%.%.%.%.1     0 ............0       t t t Z H H k       W.W.W.W.W.W.W.W.W.W.W.W.W.W.W.W.W.W.W.W.W.W.",
"W.W.W.W.W.W.W.W.W.W.W.W.W.W.W.W.W.W.W.W.W.      *.*.*.*.*.*.*.*.*.*.3     o t t t t t t o       t t t H G G z       W.W.W.W.W.W.W.W.W.W.W.W.W.W.W.W.W.W.W.W.W.W.",
"W.W.W.W.W.W.W.W.W.W.W.W.W.W.W.W.W.W.W.W.W.      *.*.*.*.*.*.*.*.*.*.3     o t t t t t t o       t t t H G G z       W.W.W.W.W.W.W.W.W.W.W.W.W.W.W.W.W.W.W.W.W.W.",
"W.W.W.W.W.W.W.W.W.W.W.W.W.W.W.W.W.W.W.W.W.      *.*.*.*.*.*.*.*.*.*.3     o t t t t t t o       t t t H G G z       W.W.W.W.W.W.W.W.W.W.W.W.W.W.W.W.W.W.W.W.W.W.",
"W.W.W.W.W.W.W.W.W.W.W.W.W.W.W.W.W.W.W.W.W.W.W.W.      C *.*.+.G G G >     * Y Y Y Y Y Y *       *.*.*.3       W.W.W.W.W.W.W.W.W.W.W.W.W.W.W.W.W.W.W.W.W.W.W.W.W.",
"W.W.W.W.W.W.W.W.W.W.W.W.W.W.W.W.W.W.W.W.W.W.W.W.      C *.*.+.G G G >     * Y Y Y Y Y Y *       *.*.*.3       W.W.W.W.W.W.W.W.W.W.W.W.W.W.W.W.W.W.W.W.W.W.W.W.W.",
"W.W.W.W.W.W.W.W.W.W.W.W.W.W.W.W.W.W.W.W.W.W.W.W.      C *.*.+.G G G >     * Y Y Y Y Y Y *       *.*.*.3       W.W.W.W.W.W.W.W.W.W.W.W.W.W.W.W.W.W.W.W.W.W.W.W.W.",
"W.W.W.W.W.W.W.W.W.W.W.W.W.W.W.W.W.W.W.W.W.W.W.W.W.W.W.< 3 3 2 > > > X     y G.G.G.k.k.k.w       3 3 3 : W.W.W.W.W.W.W.W.W.W.W.W.W.W.W.W.W.W.W.W.W.W.W.W.W.W.W.W.",
"W.W.W.W.W.W.W.W.W.W.W.W.W.W.W.W.W.W.W.W.W.W.W.W.W.W.W.                    ~ Y.Y.Y.H.H.H.u             W.W.W.W.W.W.W.W.W.W.W.W.W.W.W.W.W.W.W.W.W.W.W.W.W.W.W.W.W.",
"W.W.W.W.W.W.W.W.W.W.W.W.W.W.W.W.W.W.W.W.W.W.W.W.W.W.W.                    ~ Y.Y.Y.H.H.H.u             W.W.W.W.W.W.W.W.W.W.W.W.W.W.W.W.W.W.W.W.W.W.W.W.W.W.W.W.W.",
"W.W.W.W.W.W.W.W.W.W.W.W.W.W.W.W.W.W.W.W.W.W.W.W.W.W.W.% * * & o o o o o o a v.v.v.{ { { q             W.W.W.W.W.W.W.W.W.W.W.W.W.W.W.W.W.W.W.W.W.W.W.W.W.W.W.W.W.",
"W.W.W.W.W.W.W.W.W.W.W.W.W.W.W.W.W.W.W.W.W.W.W.W.      e Y Y s t t t t t t -                     W.W.W.W.W.W.W.W.W.W.W.W.W.W.W.W.W.W.W.W.W.W.W.W.W.W.W.W.W.W.W.W.",
"W.W.W.W.W.W.W.W.W.W.W.W.W.W.W.W.W.W.W.W.W.W.W.W.      e Y Y s t t t t t t -                     W.W.W.W.W.W.W.W.W.W.W.W.W.W.W.W.W.W.W.W.W.W.W.W.W.W.W.W.W.W.W.W.",
"W.W.W.W.W.W.W.W.W.W.W.W.W.W.W.W.W.W.W.W.W.W.W.W.      e Y Y s t t t t t t -                     W.W.W.W.W.W.W.W.W.W.W.W.W.W.W.W.W.W.W.W.W.W.W.W.W.W.W.W.W.W.W.W.",
"W.W.W.W.W.W.W.W.W.W.W.W.W.W.W.W.W.W.W.W.W.W.W.W.      e Y Y Y Y Y Y i t t -             W.W.W.W.W.W.W.W.W.W.W.W.W.W.W.W.W.W.W.W.W.W.W.W.W.W.W.W.W.W.W.W.W.W.W.W.",
"W.W.W.W.W.W.W.W.W.W.W.W.W.W.W.W.W.W.W.W.W.W.W.W.      e Y Y Y Y Y Y i t t -             W.W.W.W.W.W.W.W.W.W.W.W.W.W.W.W.W.W.W.W.W.W.W.W.W.W.W.W.W.W.W.W.W.W.W.W.",
"W.W.W.W.W.W.W.W.W.W.W.W.W.W.W.W.W.W.W.W.W.W.W.W.      e Y Y Y Y Y Y i t t -             W.W.W.W.W.W.W.W.W.W.W.W.W.W.W.W.W.W.W.W.W.W.W.W.W.W.W.W.W.W.W.W.W.W.W.W.",
"W.W.W.W.W.W.W.W.W.W.W.W.W.W.W.W.W.W.W.W.W.W.W.W.      6 e e e e e e 7 - - =             W.W.W.W.W.W.W.W.W.W.W.W.W.W.W.W.W.W.W.W.W.W.W.W.W.W.W.W.W.W.W.W.W.W.W.W.",
"W.W.W.W.W.W.W.W.W.W.W.W.W.W.W.W.W.W.W.W.W.W.W.W.W.W.W.                      W.W.W.W.W.W.W.W.W.W.W.W.W.W.W.W.W.W.W.W.W.W.W.W.W.W.W.W.W.W.W.W.W.W.W.W.W.W.W.W.W.W.",
"W.W.W.W.W.W.W.W.W.W.W.W.W.W.W.W.W.W.W.W.W.W.W.W.W.W.W.                      W.W.W.W.W.W.W.W.W.W.W.W.W.W.W.W.W.W.W.W.W.W.W.W.W.W.W.W.W.W.W.W.W.W.W.W.W.W.W.W.W.W.",
"W.W.W.W.W.W.W.W.W.W.W.W.W.W.W.W.W.W.W.W.W.W.W.W.W.W.W.                      W.W.W.W.W.W.W.W.W.W.W.W.W.W.W.W.W.W.W.W.W.W.W.W.W.W.W.W.W.W.W.W.W.W.W.W.W.W.W.W.W.W.",
"W.W.W.W.W.W.W.W.W.W.W.W.W.W.W.W.W.W.W.W.W.W.W.W.W.W.W.W.W.W.W.W.W.W.W.W.W.W.W.W.W.W.W.W.W.W.W.W.W.W.W.W.W.W.W.W.W.W.W.W.W.W.W.W.W.W.W.W.W.W.W.W.W.W.W.W.W.W.W.W.",
"W.W.W.W.W.W.W.W.W.W.W.W.W.W.W.W.W.W.W.W.W.W.W.W.W.W.W.W.W.W.W.W.W.W.W.W.W.W.W.W.W.W.W.W.W.W.W.W.W.W.W.W.W.W.W.W.W.W.W.W.W.W.W.W.W.W.W.W.W.W.W.W.W.W.W.W.W.W.W.W."
};
