/* XPM */
static char *result[] = {
/* columns rows colors chars-per-pixel */
"80 80 172 2 ",
"   c #000001",
".  c #170D07",
"X  c #150C0A",
"o  c #190E0B",
"O  c #041605",
"+  c #031909",
"@  c #041B0A",
"#  c #1D100B",
"$  c #22130B",
"%  c #26160B",
"&  c #311B16",
"*  c #05230C",
"=  c #05290E",
"-  c #10320E",
";  c #16370E",
":  c #142411",
">  c #0F3B16",
",  c #083E15",
"<  c #3A2111",
"1  c #372916",
"2  c #4D2B16",
"3  c #4A391C",
"4  c #553019",
"5  c #4A2920",
"6  c #473C2F",
"7  c #583120",
"8  c #583E2F",
"9  c #653920",
"0  c #0D420D",
"q  c #094417",
"w  c #0E4917",
"e  c #0E5516",
"r  c #0B521C",
"t  c #165B1C",
"y  c #244D1A",
"u  c #3B551F",
"i  c #2B6D1C",
"p  c #0C6020",
"a  c #0F6820",
"s  c #176920",
"d  c #107B29",
"f  c #266824",
"g  c #316826",
"h  c #514C0A",
"j  c #555501",
"k  c #434919",
"l  c #51411A",
"z  c #52482E",
"x  c #525423",
"c  c #5D473C",
"v  c #62452D",
"b  c #734120",
"n  c #645329",
"m  c #6D522C",
"M  c #614B31",
"N  c #65503B",
"B  c #6D573A",
"V  c #416625",
"C  c #526424",
"Z  c #417B31",
"A  c #557E39",
"S  c #626223",
"D  c #003E56",
"F  c #21374D",
"G  c #315273",
"H  c #5A4B44",
"J  c #5D4749",
"K  c #555556",
"L  c #585052",
"P  c #6A5B4B",
"I  c #7A5F4A",
"U  c #70655C",
"Y  c #7E6D5F",
"T  c #474C73",
"R  c #83542B",
"E  c #976531",
"W  c #946836",
"Q  c #947337",
"!  c #937038",
"~  c #A6793D",
"^  c #826A47",
"/  c #946744",
"(  c #986D49",
")  c #9B704D",
"_  c #9D724F",
"`  c #8E785D",
"'  c #A47B41",
"]  c #A27854",
"[  c #A87F52",
"{  c #A87F56",
"}  c #1B8429",
"|  c #208929",
" . c #268D29",
".. c #308320",
"X. c #319629",
"o. c #50921F",
"O. c #60A71B",
"+. c #528326",
"@. c #688D34",
"#. c #629631",
"$. c #41A429",
"%. c #5E815E",
"&. c #A39813",
"*. c #AAAA00",
"=. c #AABF1D",
"-. c #8E843C",
";. c #838939",
":. c #AD8B2B",
">. c #B4912D",
",. c #AE8A3A",
"<. c #BF9E34",
"1. c #97A62B",
"2. c #C8AE1F",
"3. c #C7AF25",
"4. c #C2A72B",
"5. c #CCB624",
"6. c #D4BA24",
"7. c #ABC31C",
"8. c #D0C00B",
"9. c #DBCD12",
"0. c #E1D316",
"q. c #E7D818",
"w. c #C0E10E",
"e. c #EBE20E",
"r. c #F5F007",
"t. c yellow",
"y. c #F4E31B",
"u. c #E3CF21",
"i. c #E9C837",
"p. c #B78B47",
"a. c #BA8841",
"s. c #B48E5A",
"d. c #B38C5D",
"f. c #B9945F",
"g. c #B48E67",
"h. c #BC976D",
"j. c #AA997E",
"k. c #CB9C4C",
"l. c #C3A543",
"z. c #DEAC52",
"x. c #C29F6A",
"c. c #C5A172",
"v. c #AAE855",
"b. c #31529C",
"n. c #7683A7",
"m. c #768CA2",
"M. c #768CBD",
"N. c #55D1AA",
"B. c #00BAFF",
"V. c #AEAF82",
"C. c #BDAD9A",
"Z. c #BAB5B2",
"A. c #C0A682",
"S. c #D0AF89",
"D. c #D7B789",
"F. c #D5B48B",
"G. c #DBBC95",
"H. c #DDBD95",
"J. c #E1C294",
"K. c #E3C59C",
"L. c #D0C0B5",
"P. c #D1C8BD",
"I. c #E6C9A0",
"U. c #ECD0A7",
"Y. c #F1D5AC",
"T. c #F6DBB2",
"R. c #FFE6BD",
"E. c #BAC5DE",
"W. c #FFE9C4",
"Q. c #FFEED3",
"!. c white",
"~. c None",
/* pixels */
"~.~.~.~.~.~.~.~.~.~.~.~.~.~.~.~.~.~.~.~.~.~.~.~.~.~.~.~.~.~.~.~.~.~.~.~.~.~.~.~.~.~.~.~.~.~.~.~.~.~.~.~.~.~.~.~.~.~.~.~.~.~.~.~.~.~.~.~.~.~.~.~.~.~.~.~.~.~.~.~.",
"~.~.~.~.~.~.~.~.~.~.~.~.~.~.~.~.~.~.~.~.~.~.~.~.~.~.~.~.~.~.~.~.~.~.~.~.~.~.~.~.~.~.~.~.~.~.~.~.~.~.~.~.~.~.~.~.~.~.~.~.~.~.~.~.~.~.~.~.~.~.~.~.~.~.~.~.~.~.~.~.",
"~.~.~.~.~.~.~.~.~.~.~.~.~.~.~.~.~.~.~.~.~.~.~.~.~.~.~.~.~.      = d d d d d d d d d d d d d       ~.~.~.~.~.~.~.~.~.~.~.~.~.~.~.~.~.~.~.~.~.~.~.~.~.~.~.~.~.~.~.",
"~.~.~.~.~.~.~.~.~.~.~.~.~.~.~.~.~.~.~.~.~.~.~.~.~.~.~.~.~.      = d d d d d d d d d d d d d       ~.~.~.~.~.~.~.~.~.~.~.~.~.~.~.~.~.~.~.~.~.~.~.~.~.~.~.~.~.~.~.",
"~.~.~.~.~.~.~.~.~.~.~.~.~.~.~.~.~.~.~.~.~.~.~.~.~.~.~.~.~.      = d d d d d d d d d d d d d       ~.~.~.~.~.~.~.~.~.~.~.~.~.~.~.~.~.~.~.~.~.~.~.~.~.~.~.~.~.~.~.",
"~.~.~.~.~.~.~.~.~.~.~.~.~.~.~.~.~.~.~.~.~.~.~.~.~.~.      , r r s X.X.X.X.X.X.X.X.X.X.X.X.X.r r r *     ~.~.~.~.~.~.~.~.~.~.~.~.~.~.~.~.~.~.~.~.~.~.~.~.~.~.~.~.",
"~.~.~.~.~.~.~.~.~.~.~.~.~.~.~.~.~.~.~.~.~.~.~.~.~.~.      r d d | $.$.$.$.$.$.$.$.$.$.$.$.$.d d d =       ~.~.~.~.~.~.~.~.~.~.~.~.~.~.~.~.~.~.~.~.~.~.~.~.~.~.~.",
"~.~.~.~.~.~.~.~.~.~.~.~.~.~.~.~.~.~.~.~.~.~.~.~.~.~.      r d d | $.$.$.$.$.$.$.$.$.$.$.$.$.d d d =       ~.~.~.~.~.~.~.~.~.~.~.~.~.~.~.~.~.~.~.~.~.~.~.~.~.~.~.",
"~.~.~.~.~.~.~.~.~.~.~.~.~.~.~.~.~.~.~.~.~.~.~.~.~.~.= = = p d d } X.X.X.X.X.X.X.X.X.X.X.X.X.d d d q = = * ~.~.~.~.~.~.~.~.~.~.~.~.~.~.~.~.~.~.~.~.~.~.~.~.~.~.~.",
"~.~.~.~.~.~.~.~.~.~.~.~.~.~.~.~.~.~.~.~.~.~.~.      d d d d d d d d d d d d d d d d d d d d d d d d d d r       ~.~.~.~.~.~.~.~.~.~.~.~.~.~.~.~.~.~.~.~.~.~.~.~.",
"~.~.~.~.~.~.~.~.~.~.~.~.~.~.~.~.~.~.~.~.~.~.~.      d d d d d d d d d d d d d d d d d d d d d d d d d d r       ~.~.~.~.~.~.~.~.~.~.~.~.~.~.~.~.~.~.~.~.~.~.~.~.",
"~.~.~.~.~.~.~.~.~.~.~.~.~.~.~.~.~.~.~.~.~.~.~.      d d d d d d d d d d d d d d d d d d d d d d d d d d r       ~.~.~.~.~.~.~.~.~.~.~.~.~.~.~.~.~.~.~.~.~.~.~.~.",
"~.~.~.~.~.~.~.~.~.~.~.~.~.~.~.~.~.~.~.      = d d d $.$.$.$.$.$.$.$.$.$.$.$.$.$.$.$.$.$.$.$.$.$.$.$.$.$.X.d d d       ~.~.~.~.~.~.~.~.~.~.~.~.~.~.~.~.~.~.~.~.~.",
"~.~.~.~.~.~.~.~.~.~.~.~.~.~.~.~.~.~.~.      = d d d $.$.$.$.$.$.$.$.$.$.$.$.$.$.$.$.$.$.$.$.$.$.$.$.$.$.X.d d d       ~.~.~.~.~.~.~.~.~.~.~.~.~.~.~.~.~.~.~.~.~.",
"~.~.~.~.~.~.~.~.~.~.~.~.~.~.~.~.~.~.~.      = d d d $.$.$.$.$.$.$.$.$.$.$.$.$.$.$.$.$.$.$.$.$.$.$.$.$.$.X.d d d       ~.~.~.~.~.~.~.~.~.~.~.~.~.~.~.~.~.~.~.~.~.",
"~.~.~.~.~.~.~.~.~.~.~.~.~.~.~.~.~.~.~.      - X.X.X.;.;.;.7.w.w.w.w.w.w.;.;.;.;.;.;.1.w.w.w.;.;.;.;.;.;.@.X.X.X.      ~.~.~.~.~.~.~.~.~.~.~.~.~.~.~.~.~.~.~.~.~.",
"~.~.~.~.~.~.~.~.~.~.~.~.~.~.~.~.~.~.~.      ; $.$.$.' ' ' 0.t.t.t.t.t.t.' ' ' ' ' ' 4.t.t.t.' ' ' ' ' ' ;.$.$.$.      ~.~.~.~.~.~.~.~.~.~.~.~.~.~.~.~.~.~.~.~.~.",
"~.~.~.~.~.~.~.~.~.~.~.~.~.~.~.~.~.~.~.      ; $.$.$.' ' ' 0.t.t.t.t.t.t.' ' ' ' ' ' 4.t.t.t.' ' ' ' ' ' ;.$.$.$.      ~.~.~.~.~.~.~.~.~.~.~.~.~.~.~.~.~.~.~.~.~.",
"~.~.~.~.~.~.~.~.~.~.~.~.~.~.~.~.~.~.~.* = = y #.#.#.' ' ' 0.t.t.r.0.0.0.4.4.4.,.' ' 4.t.t.t.4.4.4.,.' ' -.#.#.#.= = = + ~.~.~.~.~.~.~.~.~.~.~.~.~.~.~.~.~.~.~.~.",
"~.~.~.~.~.~.~.~.~.~.~.~.~.~.~.~.      r d d Z ' ' ' ' ' ' 0.t.t.0.' ' ' t.t.t.4.' ' 4.t.t.t.t.t.t.4.' ' ' ' ' ' d d d =       ~.~.~.~.~.~.~.~.~.~.~.~.~.~.~.~.~.",
"~.~.~.~.~.~.~.~.~.~.~.~.~.~.~.~.      r d d Z ' ' ' ' ' ' 0.t.t.0.' ' ' t.t.t.4.' ' 4.t.t.t.t.t.t.4.' ' ' ' ' ' d d d =       ~.~.~.~.~.~.~.~.~.~.~.~.~.~.~.~.~.",
"~.~.~.~.~.~.~.~.~.~.~.~.~.~.~.~.      r d d Z ' ' ' ' ' ' 0.t.t.0.' ' ' t.t.t.4.' ' 4.t.t.t.t.t.t.4.' ' ' ' ' ' d d d =       ~.~.~.~.~.~.~.~.~.~.~.~.~.~.~.~.~.",
"~.~.~.~.~.~.~.~.~.' ' ' s.F.F.F.b b b b b b E z.z.z.t.t.t.i.z.z.i.t.t.t.' ' ' 0.t.t.y.z.z.z.' ' ' 0.t.t.0.' ' ' b b b b b b / F.F.F.' ' ' ~.~.~.~.~.~.~.~.~.~.~.",
"~.~.~.~.~.~.~.~.~.' ' ' s.F.F.F.b b b b b b E z.z.z.t.t.t.i.z.z.i.t.t.t.' ' ' 0.t.t.y.z.z.z.' ' ' 0.t.t.0.' ' ' b b b b b b / F.F.F.' ' ' ~.~.~.~.~.~.~.~.~.~.~.",
"~.~.~.~.~.~.~.~.~.' ' ' s.F.F.F.b b b b b b E z.z.z.t.t.t.i.z.z.i.t.t.t.' ' ' 0.t.t.y.z.z.z.' ' ' 0.t.t.0.' ' ' b b b b b b / F.F.F.' ' ' ~.~.~.~.~.~.~.~.~.~.~.",
"~.~.~.~.~.~.~.~.~.R R R { Y.Y.Y.S.S.S.[ W W >.y.y.y.4.4.4.u.y.y.u.4.4.4.' ' ' 0.t.t.q.p.p.p.c.c.c.l.4.4.5.0.0.0.W W W h.S.S.G.Y.Y.Y.R R R ~.~.~.~.~.~.~.~.~.~.~.",
"~.~.~.~.~.~.~.~.~.b b b ] R.R.R.R.R.R.x.' ' 4.t.t.t.' ' ' 0.t.t.0.' ' ' ' ' ' 0.t.t.0.' ' ' F.F.F.s.' ' 4.t.t.t.' ' ' J.R.R.R.R.R.R.b b b ~.~.~.~.~.~.~.~.~.~.~.",
"~.~.~.~.~.~.~.~.~.b b b ] R.R.R.R.R.R.x.' ' 4.t.t.t.' ' ' 0.t.t.0.' ' ' ' ' ' 0.t.t.0.' ' ' F.F.F.s.' ' 4.t.t.t.' ' ' J.R.R.R.R.R.R.b b b ~.~.~.~.~.~.~.~.~.~.~.",
"~.~.~.~.~.~.~.~.~.~.b b ) S.S.S.Y.Y.Y.d.W W :.0.0.0.p.p.p.q.t.t.e.4.4.4.p.p.p.2.8.8.3.s.s.s.K.K.K.f.' ' <.y.y.y.' ' ' D.Y.Y.I.S.S.S.b b b ~.~.~.~.~.~.~.~.~.~.~.",
"~.~.~.~.~.~.~.~.~.~.~.~.~.b b b F.F.F./ b b R ' ' ' z.z.z.y.t.t.t.t.t.t.z.z.z.E b b / F.F.F.R.R.R.x.' ' p.z.z.z.' ' ' c.F.F.g.b b b ~.~.~.~.~.~.~.~.~.~.~.~.~.~.",
"~.~.~.~.~.~.~.~.~.~.~.~.~.b b b F.F.F./ b b R ' ' ' z.z.z.y.t.t.t.t.t.t.z.z.z.E b b / F.F.F.R.R.R.x.' ' p.z.z.z.' ' ' c.F.F.g.b b b ~.~.~.~.~.~.~.~.~.~.~.~.~.~.",
"~.~.~.~.~.~.~.~.~.~.~.~.~.b b b F.F.F./ b b R ' ' ' z.z.z.y.t.t.t.t.t.t.z.z.z.E b b / F.F.F.R.R.R.x.' ' p.z.z.z.' ' ' c.F.F.g.b b b ~.~.~.~.~.~.~.~.~.~.~.~.~.~.",
"~.~.~.~.~.~.~.~.~.~.~.~.~.~.~.~.B.B.B.v.t.t.8.b b b z.z.z.z.z.z.k.' ' ' b b b g.F.F.K.R.R.R.R.R.R.K.F.F.g.b b b t.t.t.N.B.B.B.~.~.~.~.~.~.~.~.~.~.~.~.~.~.~.~.~.",
"~.~.~.~.~.~.~.~.~.~.~.~.~.~.~.~.B.B.B.v.t.t.8.b b b z.z.z.z.z.z.k.' ' ' b b b g.F.F.K.R.R.R.R.R.R.K.F.F.g.b b b t.t.t.N.B.B.B.~.~.~.~.~.~.~.~.~.~.~.~.~.~.~.~.~.",
"~.~.~.~.~.~.~.~.~.~.~.~.~.~.~.~.B.B.B.v.t.t.8.b b b z.z.z.z.z.z.k.' ' ' b b b g.F.F.K.R.R.R.R.R.R.K.F.F.g.b b b t.t.t.N.B.B.B.~.~.~.~.~.~.~.~.~.~.~.~.~.~.~.~.~.",
"~.~.~.~.~.~.~.~.~.~.~.~.~.~.~.~.D D D =.t.t.9.W W W 3 3 3 ! p.p.~ R R R g.g.g.H.Y.Y.U.K.K.K.] ] ] N 6 6 M W W W t.t.t.A D D D ~.~.~.~.~.~.~.~.~.~.~.~.~.~.~.~.~.",
"~.~.~.~.~.~.~.~.~.~.~.~.~.~.~.~.      *.t.t.0.' ' '       m ' ' W b b b F.F.F.Y.R.R.Y.F.F.F.b b b %     1 ' ' ' t.t.t.j       ~.~.~.~.~.~.~.~.~.~.~.~.~.~.~.~.~.",
"~.~.~.~.~.~.~.~.~.~.~.~.~.~.~.~.      *.t.t.0.' ' '       m ' ' W b b b F.F.F.Y.R.R.Y.F.F.F.b b b %     1 ' ' ' t.t.t.j       ~.~.~.~.~.~.~.~.~.~.~.~.~.~.~.~.~.",
"~.~.~.~.~.~.~.~.~.~.~.~.~.~.~.~.      &.y.y.6.W W W K K K U Y Y I b b b K.K.K.T.R.R.I.g.g.g.J J J L K K P W W W y.y.y.h       ~.~.~.~.~.~.~.~.~.~.~.~.~.~.~.~.~.",
"~.~.~.~.~.~.~.~.~.~.~.~.~.~.~.~.      Q z.z.a.b b b !.!.!.M.b.b.T b b b R.R.R.R.R.R.S.b b b b.b.b.E.!.!.L.b b b z.z.z.3       ~.~.~.~.~.~.~.~.~.~.~.~.~.~.~.~.~.",
"~.~.~.~.~.~.~.~.~.~.~.~.~.~.~.~.      Q z.z.a.b b b !.!.!.M.b.b.T b b b R.R.R.R.R.R.S.b b b b.b.b.E.!.!.L.b b b z.z.z.3       ~.~.~.~.~.~.~.~.~.~.~.~.~.~.~.~.~.",
"~.~.~.~.~.~.~.~.~.~.~.~.~.~.~.~.      Q z.z.a.b b b !.!.!.M.b.b.T b b b R.R.R.R.R.R.S.b b b b.b.b.E.!.!.L.b b b z.z.z.3       ~.~.~.~.~.~.~.~.~.~.~.~.~.~.~.~.~.",
"~.~.~.~.~.~.~.~.~.~.~.~.~.~.~.~.~.~.~.              R.R.R.n.b.b.M.!.!.!.R.R.R.R.R.R.Q.!.!.!.b.b.b.Z.R.R.j.            ~.~.~.~.~.~.~.~.~.~.~.~.~.~.~.~.~.~.~.~.~.",
"~.~.~.~.~.~.~.~.~.~.~.~.~.~.~.~.~.~.~.              R.R.R.n.b.b.M.!.!.!.R.R.R.R.R.R.Q.!.!.!.b.b.b.Z.R.R.j.            ~.~.~.~.~.~.~.~.~.~.~.~.~.~.~.~.~.~.~.~.~.",
"~.~.~.~.~.~.~.~.~.~.~.~.~.~.~.~.~.~.~.              R.R.R.n.b.b.M.!.!.!.R.R.R.R.R.R.Q.!.!.!.b.b.b.Z.R.R.j.            ~.~.~.~.~.~.~.~.~.~.~.~.~.~.~.~.~.~.~.~.~.",
"~.~.~.~.~.~.~.~.~.~.~.~.~.~.~.~.~.~.~.~.~.~.        x.x.x.C.Z.Z.P.Q.Q.Q.R.R.R.R.R.R.W.Q.Q.Q.Z.Z.Z.A.x.x.^       ~.~.~.~.~.~.~.~.~.~.~.~.~.~.~.~.~.~.~.~.~.~.~.~.",
"~.~.~.~.~.~.~.~.~.~.~.~.~.~.~.~.~.~.~.~.~.~.~.      ' ' ' J.R.R.R.R.R.R.R.R.R.R.R.R.R.R.R.R.R.R.R.x.' ' m       ~.~.~.~.~.~.~.~.~.~.~.~.~.~.~.~.~.~.~.~.~.~.~.~.",
"~.~.~.~.~.~.~.~.~.~.~.~.~.~.~.~.~.~.~.~.~.~.~.      ' ' ' J.R.R.R.R.R.R.R.R.R.R.R.R.R.R.R.R.R.R.R.x.' ' m       ~.~.~.~.~.~.~.~.~.~.~.~.~.~.~.~.~.~.~.~.~.~.~.~.",
"~.~.~.~.~.~.~.~.~.~.~.~.~.~.~.~.~.~.~.~.~.~.+ = = = W W W h.S.S.G.Y.Y.Y.Y.Y.Y.Y.Y.Y.Y.Y.Y.Y.S.S.S.[ W W n = = = ~.~.~.~.~.~.~.~.~.~.~.~.~.~.~.~.~.~.~.~.~.~.~.~.",
"~.~.~.~.~.~.~.~.~.~.~.~.~.~.~.~.~.~.~.      = d d d b b b b b b / F.F.F.F.F.F.F.F.F.F.F.F.F.b b b b b b x d d d       ~.~.~.~.~.~.~.~.~.~.~.~.~.~.~.~.~.~.~.~.~.",
"~.~.~.~.~.~.~.~.~.~.~.~.~.~.~.~.~.~.~.      = d d d b b b b b b / F.F.F.F.F.F.F.F.F.F.F.F.F.b b b b b b x d d d       ~.~.~.~.~.~.~.~.~.~.~.~.~.~.~.~.~.~.~.~.~.",
"~.~.~.~.~.~.~.~.~.~.~.~.~.~.~.~.~.~.~.      = d d d b b b b b b / F.F.F.F.F.F.F.F.F.F.F.F.F.b b b b b b x d d d       ~.~.~.~.~.~.~.~.~.~.~.~.~.~.~.~.~.~.~.~.~.",
"~.~.~.~.~.~.~.~.~.~.~.~.~.~.~.~.      F G G m.!.!.!.0 0 0 a d d d d d d d d d d d d d d d d d d d e 0 0 %.!.!.!.5 5 5 o       ~.~.~.~.~.~.~.~.~.~.~.~.~.~.~.~.~.",
"~.~.~.~.~.~.~.~.~.~.~.~.~.~.~.~.      F G G m.!.!.!.0 0 0 a d d d d d d d d d d d d d d d d d d d e 0 0 %.!.!.!.5 5 5 o       ~.~.~.~.~.~.~.~.~.~.~.~.~.~.~.~.~.",
"~.~.~.~.~.~.~.~.~.~.~.~.~.~.~.~.      F G G m.!.!.!.0 0 0 a d d d d d d d d d d d d d d d d d d d e 0 0 %.!.!.!.5 5 5 o       ~.~.~.~.~.~.~.~.~.~.~.~.~.~.~.~.~.",
"~.~.~.~.~.~.~.~.~.~.~.~.~.      2 2 2 8 c c H K K K l l l f d d d d d d d d d d d d d d d d d d d u l l z K K K 9 9 9 4 2 2 <       ~.~.~.~.~.~.~.~.~.~.~.~.~.~.",
"~.~.~.~.~.~.~.~.~.~.~.~.~.      b b b b b b 2       b b b g d d d d d d d d d d d d d d d d d d d x b b 2       b b b b b b 2       ~.~.~.~.~.~.~.~.~.~.~.~.~.~.",
"~.~.~.~.~.~.~.~.~.~.~.~.~.      b b b b b b 2       b b b g d d d d d d d d d d d d d d d d d d d x b b 2       b b b b b b 2       ~.~.~.~.~.~.~.~.~.~.~.~.~.~.",
"~.~.~.~.~.~.~.~.~.~.~.~.~.      / / / _ ] ] B O O O S S S V g g g g g g O.O.O.O.O.O.o.g g g g g g C S S k O O O ] ] ] ( / / v       ~.~.~.~.~.~.~.~.~.~.~.~.~.~.",
"~.~.~.~.~.~.~.~.~.~.~.~.~.      F.F.F.Y.R.R.V.0 0 0 $.$.$.S b b b b b b t.t.t.t.t.t.8.b b b b b b +.$.$...0 0 0 R.R.R.K.F.F.`       ~.~.~.~.~.~.~.~.~.~.~.~.~.~.",
"~.~.~.~.~.~.~.~.~.~.~.~.~.      F.F.F.Y.R.R.V.0 0 0 $.$.$.S b b b b b b t.t.t.t.t.t.8.b b b b b b +.$.$...0 0 0 R.R.R.K.F.F.`       ~.~.~.~.~.~.~.~.~.~.~.~.~.~.",
"~.~.~.~.~.~.~.~.~.~.~.~.~.      F.F.F.Y.R.R.V.0 0 0 $.$.$.S b b b b b b t.t.t.t.t.t.8.b b b b b b +.$.$...0 0 0 R.R.R.K.F.F.`       ~.~.~.~.~.~.~.~.~.~.~.~.~.~.",
"~.~.~.~.~.~.~.~.~.~.~.~.~.~.~.~.                    d d d X.$.$.X.d d d d d d d d d d d d d $.$.$.| d d r                     ~.~.~.~.~.~.~.~.~.~.~.~.~.~.~.~.~.",
"~.~.~.~.~.~.~.~.~.~.~.~.~.~.~.~.                    d d d X.$.$.X.d d d d d d d d d d d d d $.$.$.| d d r                     ~.~.~.~.~.~.~.~.~.~.~.~.~.~.~.~.~.",
"~.~.~.~.~.~.~.~.~.~.~.~.~.~.~.~.                    d d d X.$.$.X.d d d d d d d d d d d d d $.$.$.| d d r                     ~.~.~.~.~.~.~.~.~.~.~.~.~.~.~.~.~.",
"~.~.~.~.~.~.~.~.~.~.~.~.~.~.~.~.~.~.~.~.~.~.        = = = s | |  .X.X.X.X.X.X.X.X.X.X.X.X.X.| | | w = = @       ~.~.~.~.~.~.~.~.~.~.~.~.~.~.~.~.~.~.~.~.~.~.~.~.",
"~.~.~.~.~.~.~.~.~.~.~.~.~.~.~.~.~.~.~.~.~.~.~.            r d d | $.$.$.$.$.$.$.$.$.$.$.$.$.d d d =             ~.~.~.~.~.~.~.~.~.~.~.~.~.~.~.~.~.~.~.~.~.~.~.~.",
"~.~.~.~.~.~.~.~.~.~.~.~.~.~.~.~.~.~.~.~.~.~.~.            r d d | $.$.$.$.$.$.$.$.$.$.$.$.$.d d d =             ~.~.~.~.~.~.~.~.~.~.~.~.~.~.~.~.~.~.~.~.~.~.~.~.",
"~.~.~.~.~.~.~.~.~.~.~.~.~.~.~.~.~.~.~.~.~.~.. % % % o o o > r r t i i i i i i i i i i i i i r r r : o o # % % % ~.~.~.~.~.~.~.~.~.~.~.~.~.~.~.~.~.~.~.~.~.~.~.~.",
"~.~.~.~.~.~.~.~.~.~.~.~.~.~.~.~.~.~.~.      % b b b 5 5 5 o                                       & 5 5 7 b b b       ~.~.~.~.~.~.~.~.~.~.~.~.~.~.~.~.~.~.~.~.~.",
"~.~.~.~.~.~.~.~.~.~.~.~.~.~.~.~.~.~.~.      % b b b 5 5 5 o                                       & 5 5 7 b b b       ~.~.~.~.~.~.~.~.~.~.~.~.~.~.~.~.~.~.~.~.~.",
"~.~.~.~.~.~.~.~.~.~.~.~.~.~.~.~.~.~.~.      % b b b 5 5 5 o                                       & 5 5 7 b b b       ~.~.~.~.~.~.~.~.~.~.~.~.~.~.~.~.~.~.~.~.~.",
"~.~.~.~.~.~.~.~.~.~.~.~.~.~.~.~.~.~.~.      % b b b b b b 7 5 5 &       ~.~.~.~.~.~.~.      5 5 5 9 b b b b b b       ~.~.~.~.~.~.~.~.~.~.~.~.~.~.~.~.~.~.~.~.~.",
"~.~.~.~.~.~.~.~.~.~.~.~.~.~.~.~.~.~.~.      % b b b b b b 7 5 5 &       ~.~.~.~.~.~.~.      5 5 5 9 b b b b b b       ~.~.~.~.~.~.~.~.~.~.~.~.~.~.~.~.~.~.~.~.~.",
"~.~.~.~.~.~.~.~.~.~.~.~.~.~.~.~.~.~.~.      % b b b b b b 7 5 5 &       ~.~.~.~.~.~.~.      5 5 5 9 b b b b b b       ~.~.~.~.~.~.~.~.~.~.~.~.~.~.~.~.~.~.~.~.~.",
"~.~.~.~.~.~.~.~.~.~.~.~.~.~.~.~.~.~.~.~.~.~.. % % % % % % # o o X ~.~.~.~.~.~.~.~.~.~.~.~.~.o o o $ % % % % % % ~.~.~.~.~.~.~.~.~.~.~.~.~.~.~.~.~.~.~.~.~.~.~.~.",
"~.~.~.~.~.~.~.~.~.~.~.~.~.~.~.~.~.~.~.~.~.~.~.                    ~.~.~.~.~.~.~.~.~.~.~.~.~.                    ~.~.~.~.~.~.~.~.~.~.~.~.~.~.~.~.~.~.~.~.~.~.~.~.",
"~.~.~.~.~.~.~.~.~.~.~.~.~.~.~.~.~.~.~.~.~.~.~.                    ~.~.~.~.~.~.~.~.~.~.~.~.~.                    ~.~.~.~.~.~.~.~.~.~.~.~.~.~.~.~.~.~.~.~.~.~.~.~.",
"~.~.~.~.~.~.~.~.~.~.~.~.~.~.~.~.~.~.~.~.~.~.~.                  ~.~.~.~.~.~.~.~.~.~.~.~.~.~.                    ~.~.~.~.~.~.~.~.~.~.~.~.~.~.~.~.~.~.~.~.~.~.~.~.",
"~.~.~.~.~.~.~.~.~.~.~.~.~.~.~.~.~.~.~.~.~.~.~.~.~.~.~.~.~.~.~.~.~.~.~.~.~.~.~.~.~.~.~.~.~.~.~.~.~.~.~.~.~.~.~.~.~.~.~.~.~.~.~.~.~.~.~.~.~.~.~.~.~.~.~.~.~.~.~.~."
};
