/* XPM */
static char *result[] = {
/* columns rows colors chars-per-pixel */
"80 80 225 2 ",
"   c #000101",
".  c #020B04",
"X  c #0C0807",
"o  c #180F0C",
"O  c #041406",
"+  c #051C06",
"@  c #041C0A",
"#  c #06140A",
"$  c #1B130C",
"%  c #0D1113",
"&  c #27180D",
"*  c #341E0F",
"=  c #251B14",
"-  c #331C16",
";  c #0A2609",
":  c #06260C",
">  c #0B350B",
",  c #0C3C0C",
"<  c #14340E",
"1  c #062E10",
"2  c #073312",
"3  c #083813",
"4  c #15330F",
"5  c #2B2619",
"6  c #3B2519",
"7  c #2D320D",
"8  c #111B25",
"9  c #322B23",
"0  c #3A3127",
"q  c #292929",
"w  c #452916",
"e  c #532F17",
"r  c #453519",
"t  c #5C341A",
"y  c #6A3C1E",
"u  c #4B2A20",
"i  c #563423",
"p  c #47392D",
"a  c #663A21",
"s  c #703F20",
"d  c #0D420D",
"f  c #114A0F",
"g  c #0C4612",
"h  c #0E4C12",
"j  c #0A4C1A",
"k  c #1A4915",
"l  c #0E5315",
"z  c #0C551C",
"x  c #0D5B1B",
"c  c #1A5C14",
"v  c #185515",
"b  c #0F621D",
"n  c #17681E",
"m  c #246A19",
"M  c #2A791C",
"N  c #27751C",
"B  c #34751A",
"V  c #165926",
"C  c #38552C",
"Z  c #0F6C22",
"A  c #0D6321",
"S  c #196B24",
"D  c #0F7426",
"F  c #107526",
"G  c #1E7428",
"H  c #107B29",
"J  c #157727",
"K  c #396526",
"L  c #2C7528",
"P  c #304F1E",
"I  c #4A4A01",
"U  c #544B14",
"Y  c #70471E",
"T  c #53720C",
"R  c #666503",
"E  c #505623",
"W  c #4D4133",
"Q  c #564739",
"!  c #554D24",
"~  c #654629",
"^  c #734120",
"/  c #7A4A27",
"(  c #654633",
")  c #745735",
"_  c #506E31",
"`  c #626323",
"'  c #6A7236",
"]  c #132F43",
"[  c #2E4154",
"{  c #315273",
"}  c #334F68",
"|  c #004D6B",
" . c #575550",
".. c #645542",
"X. c #786751",
"o. c #4E567C",
"O. c #687772",
"+. c #A17F16",
"@. c #86562C",
"#. c #8A5B34",
"$. c #8A6335",
"%. c #956A38",
"&. c #9D753D",
"*. c #94632F",
"=. c #AA7B3E",
"-. c #937416",
";. c #9D774A",
":. c #8D6F50",
">. c #A47B41",
",. c #A87E42",
"<. c #A47B56",
"1. c #8B7B6B",
"2. c #1C8529",
"3. c #1C8127",
"4. c #248C29",
"5. c #258528",
"6. c #318621",
"7. c #358D22",
"8. c #349929",
"9. c #3C9F29",
"0. c #389626",
"q. c #268A2E",
"w. c #3DA129",
"e. c #51871C",
"r. c #57A21D",
"t. c #70B21B",
"y. c #54992D",
"u. c #6E9527",
"i. c #41A429",
"p. c #4CA927",
"a. c #67A732",
"s. c #338D48",
"d. c #90B91A",
"f. c #B6AD09",
"g. c #878B3A",
"h. c #AA843D",
"j. c #AD8839",
"k. c #B69435",
"l. c #BB9C31",
"z. c #BC9A38",
"x. c #AE8D35",
"c. c #99B134",
"v. c #BCA82A",
"b. c #A3811B",
"n. c #CDBD15",
"m. c #C19E38",
"M. c #C4A92A",
"N. c #D0B231",
"B. c #8EC718",
"V. c #C3C300",
"C. c #D9C81A",
"Z. c #D7CE0C",
"A. c #E3D708",
"S. c #E4D814",
"D. c #C8E10A",
"F. c #D4EA09",
"G. c #EDE50D",
"H. c #FFFF00",
"J. c #FAF809",
"K. c #F6E916",
"L. c #EDEA0B",
"P. c #E9CC30",
"I. c #F1E434",
"U. c #AC8343",
"Y. c #AB844B",
"T. c #B48945",
"R. c #B78846",
"E. c #B48A53",
"W. c #9C8565",
"Q. c #969074",
"!. c #BA9667",
"~. c #B59774",
"^. c #A9916D",
"/. c #B4A176",
"(. c #A9A844",
"). c #CE9E4D",
"_. c #C69747",
"`. c #C1974F",
"'. c #C9A64B",
"]. c #D4A54D",
"[. c #DDAB52",
"{. c #D8A750",
"}. c #CFB148",
"|. c #E3B846",
" X c #C09C6E",
".X c #CEAD77",
"XX c #FDF345",
"oX c #31529C",
"OX c #016E97",
"+X c #5D6C98",
"@X c #4C6299",
"#X c #4361A5",
"$X c #5B6FA1",
"%X c #5A648A",
"&X c #7C839D",
"*X c #02B9FD",
"=X c #4FC7EA",
"-X c #A89A91",
";X c #A8998F",
":X c #9EA493",
">X c #D5B48B",
",X c #D7B68A",
"<X c #C8B894",
"1X c #DEBF96",
"2X c #CCAC84",
"3X c #CEBFAE",
"4X c #ABD1B4",
"5X c #9FC2A7",
"6X c #C5CA98",
"7X c #E5C79D",
"8X c #E8CAA1",
"9X c #EED2A9",
"0X c #F4D9AF",
"qX c #FFE6BD",
"wX c #FAE0B7",
"eX c #92A3C9",
"rX c #ABB6C1",
"tX c #B8C4CF",
"yX c #C6C6C6",
"uX c #D5DFC8",
"iX c #FFEED0",
"pX c #FFFEFE",
"aX c #FEFBF5",
"sX c #F3F1EE",
"dX c None",
/* pixels */
"dXdXdXdXdXdXdXdXdXdXdXdXdXdXdXdXdXdXdXdXdXdXdXdXdXdXdXdXdXdXdXdXdXdXdXdXdXdXdXdXdXdXdXdXdXdXdXdXdXdXdXdXdXdXdXdXdXdXdXdXdXdXdXdXdXdXdXdXdXdXdXdXdXdXdXdXdXdXdXdX",
"dXdXdXdXdXdXdXdXdXdXdXdXdXdXdXdXdXdXdXdXdXdXdXdXdXdXdXdXdXdXdXdXdXdXdXdXdXdXdXdXdXdXdXdXdXdXdXdXdXdXdXdXdXdXdXdXdXdXdXdXdXdXdXdXdXdXdXdXdXdXdXdXdXdXdXdXdXdXdXdX",
"dXdXdXdXdXdXdXdXdXdXdXdXdXdXdXdXdXdXdXdXdXdXdXdXdXdXdXdXdXdXdXdXdXdXdXdXdXdXdXdXdXdXdXdXdXdXdXdXdXdXdXdXdXdXdXdXdXdXdXdXdXdXdXdXdXdXdXdXdXdXdXdXdXdXdXdXdXdXdXdX",
"dXdXdXdXdXdXdXdXdXdXdXdXdXdXdXdXdXdXdXdXdXdXdXdXdXdXdXdXdXdXdXdXdXdXdXdXdXdXdXdXdXdXdXdXdXdXdXdXdXdXdXdXdXdXdXdXdXdXdXdXdXdXdXdXdXdXdXdXdXdXdXdXdXdXdXdXdXdXdXdX",
"dXdXdXdXdXdXdXdXdXdXdXdXdXdXdXdXdXdXdXdXdXdXdXdXdXH H H 4.w.i.i.i.i.i.i.i.i.7.c d h b H J K ^ ^ ^ &.>.>.dXdXdXdXdXdXdXdXdXdXdXdXdXdXdXdXdXdXdXdXdXdXdXdXdXdXdXdX",
"dXdXdXdXdXdXdXdXdXdXdXdXdXdXdXdXdXdXdXdXdXdXdXdXdXH H 2.4.i.i.i.i.i.i.i.i.i.7.v d h Z H J K ^ s ^ &.>.=.dXdXdXdXdXdXdXdXdXdXdXdXdXdXdXdXdXdXdXdXdXdXdXdXdXdXdXdX",
"dXdXdXdXdXdXdXdXdXdXdXdXdXdXdXdXdXdXdXdXdXdXdXdXdXH H H 4.i.i.i.i.i.i.i.i.i.6.v d l S H J K s s ^ &.>.=.dXdXdXdXdXdXdXdXdXdXdXdXdXdXdXdXdXdXdXdXdXdXdXdXdXdXdXdX",
"dXdXdXdXdXdXdXdXdXdXdXdXdXdXdXdXdXdXdXH H H H H 2.4.4.8.8.i.i.i.i.i.i.i.i.w.7.v d l N 4.7.r.M.f.n.n.n.N.N.|.[.].T.>.dXdXdXdXdXdXdXdXdXdXdXdXdXdXdXdXdXdXdXdXdXdX",
"dXdXdXdXdXdXdXdXdXdXdXdXdXdXdXdXdXdXH H H H H H 3.8.i.i.i.i.i.i.i.i.i.i.i.i.6.c d v 6.i.p.B.J.H.H.H.H.H.P.|.[.).T.>.>.dXdXdXdXdXdXdXdXdXdXdXdXdXdXdXdXdXdXdXdXdX",
"dXdXdXdXdXdXdXdXdXdXdXdXdXdXdXdXdXdXH H H H H H 2.8.i.i.i.i.i.i.i.i.i.i.i.i.6.c d v 6.i.p.B.H.H.H.H.H.H.P.|.[.).T.>.>.dXdXdXdXdXdXdXdXdXdXdXdXdXdXdXdXdXdXdXdXdX",
"dXdXdXdXdXdXdXdXdXdXdXdXdXdXdXdXdXdXZ H H 3.2.2.4.8.i.i.i.i.i.i.i.i.i.0.7.6.M m v m e.a.a.d.K.K.K.S.S.S.N.{.].).m.l.l.k.dXdXdXdXdXdXdXdXdXdXdXdXdXdXdXdXdXdXdXdX",
"dXdXdXdXdXdXdXdXdXdXdXdXdXdXdXd d d Z H H 2.8.8.w.w.i.i.i.i.i.i.i.i.i.N c l m 6.0.y.c.'.}.}.|.|.|.z.k.k.x.T.U.m.C.G.S.M.>.>.>.dXdXdXdXdXdXdXdXdXdXdXdXdXdXdXdXdX",
"dXdXdXdXdXdXdXdXdXdXdXdXdXdXdXd d d b H H 4.8.w.i.i.i.i.i.i.i.i.i.i.i.m f d c 7.w.a.(.[.[.[.[.[.|.,.>.>.>.>.>.l.S.H.L.M.>.,.,.dXdXdXdXdXdXdXdXdXdXdXdXdXdXdXdXdX",
"dXdXdXdXdXdXdXdXdXdXdXdXdXdXdXg g g b 2.H 2.8.w.w.w.i.i.i.i.i.i.i.i.w.m f d m 7.w.a.(.{.{.[.|.|.|.,.>.>.,.,.U.l.S.J.S.M.j.j.j.dXdXdXdXdXdXdXdXdXdXdXdXdXdXdXdXdX",
"dXdXdXdXdXdXdXdXdXdXdXdXd d g F Z D F D H 3.2.2.4.8.i.i.i.i.i.i.i.i.i.m f d c 7.w.y.g.T.T.N.K.K.K.U.>.>.R.].].).m.k.M.C.G.S.C.>.>.>.dXdXdXdXdXdXdXdXdXdXdXdXdXdX",
"dXdXdXdXdXdXdXdXdXdXdXdXd d d H H H 3.H H H H H 2.8.i.i.i.i.i.i.i.i.i.m f d c 7.w.y.g.U.j.M.H.H.H.h.>.>.`.{.[.).R.>.x.S.H.J.S.>.>.>.dXdXdXdXdXdXdXdXdXdXdXdXdXdX",
"dXdXdXdXdXdXdXdXdXdXdXdXd d f H H H H H H H H H 2.8.w.i.i.i.i.i.i.i.i.m g d m 8.w.y.g.>.h.M.H.H.H.T.>.>._.[.[.).R.=.m.C.J.J.A.=.>.>.dXdXdXdXdXdXdXdXdXdXdXdXdXdX",
"dXdXdXdXdXdXdXdXdXdXdXdXd d g H H H H H H H H H H M M M M M M M M M M N N N e.t.B.d.x.>.h.M.H.H.H.`.!.!.<.>.=.R.,._.N.S.J.J.Z.#.*.$.dXdXdXdXdXdXdXdXdXdXdXdXdXdX",
"dXdXdXdXdXdXdXdXdXdXdXdXd d f H H H H H H H H H Z v f f h f f f f f f M 0.8.t.F.J.F.v.>.h.M.H.H.H..X2X>X<.@./ *._.{.|.P.H.J.n.@.^ / dXdXdXdXdXdXdXdXdXdXdXdXdXdX",
"dXdXdXdXdXdXdXdXdXdXdXdXd d g H H H H H H H H H F l d d d d d d d d d M 9.i.t.F.H.G.M.=.h.M.H.H.H..X,X,X;.@.s #._.{.|.K.H.J.n.y ^ ^ dXdXdXdXdXdXdXdXdXdXdXdXdXdX",
"dXdXdXdXdXdXdXdXdXdXdXg h l l H H H H H H H H H F x f g h h h g d d d N 0.9.t.D.H.G.M.>.h.l.L.L.L..X>X>XE.#.#.%.j._.].C.G.A.n.^ ^ ^ dXdXdXdXdXdXdXdXdXdXdXdXdXdX",
"dXdXdXdXdXdXdXdXd d d x b Z Z H H H H H H H H H F F Z Z Z Z Z Z d d d n J 2.t.D.H.G.M.>.U.j.l.l.M.,X>X>X2X~.~.E.&.*.*.x.l.l.k.dXdXdXdXdXdXdXdXdXdXdXdXdXdXdXdXdX",
"dXdXdXdXdXdXdXdXd d g x 3.H H H H H H H H H H H H H H H H H H H d d d b H H r.D.H.G.M.>.>.>.=.=.>.>X>X>X>X>X>X!.#.s / *.>.>.=.dXdXdXdXdXdXdXdXdXdXdXdXdXdXdXdXdX",
"dXdXdXdXdXdXdXdXd d h x H H H H H H H 3.H H H H H H H H H H H H d d d b H H r.D.H.G.l.>.>.>.&.&.>.2X>X>X>X>X>X~.%.s / %.>.>.>.dXdXdXdXdXdXdXdXdXdXdXdXdXdXdXdXdX",
"dXdXdXdXdXdXdXdXd d d x H H H H H H Z b x b b x n D H H F x b b b x x K _ _ g.v.n.N.C.N.n.m.!.!.!.7X8X8X7X>X>X^.( w w / ,.,.dXdXdXdXdXdXdXdXdXdXdXdXdXdXdXdXdXdX",
"dXdXdXdXdXdXdXdXd d f x H H H H H H z g d d d d l b 3.F b d d d H H H u.g.,.h.U.>.k.S.H.J.I.>X>X>XwXiXqX8X>X>XW.0     dXdXdXdXdXdXdXdXdXdXdXdXdXdXdXdXdXdXdXdXdX",
"dXdXdXdXdXdXdXdXd d f x H H H H H 3.z g d d d d l Z H D b d d g H 3.H ' h.;.;.h.>.k.S.H.J.I.,X>X>XwXqXqX8X>X1XW.0     dXdXdXdXdXdXdXdXdXdXdXdXdXdXdXdXdXdXdXdXdX",
"dXdXdXdXdXdXdXdX> > , l H H H Z Z Z h > > , , d l b Z Z b h h j b D Z _ $.%.&.&.>.k.S.H.J.I.7X7X1X<X<X<X2X X~.:.9     dXdXdXdXdXdXdXdXdXdXdXdXdXdXdXdXdXdXdXdXdX",
"dXdXdXdXdXdXdXdX. . O g H H D h j h ; . . ; > d d g h h x F D D h h h E Y / $.&.>.k.S.H.J.I.0X0X0Xp q 0 ( @.#.a &     dXdXdXdXdXdXdXdXdXdXdXdXdXdXdXdXdXdXdXdXdX",
"dXdXdXdXdXdXdXdX    . 3 H H D d d d +     O > d d d d f x H H H d d d r ~ Y @.%.>.k.S.J.J.XXiXqXqXo     - a s e $     dXdXdXdXdXdXdXdXdXdXdXdXdXdXdXdXdXdXdXdXdX",
"dXdXdXdXdXdXdXdX    . 2 D F D d d d +     O > d g h v k S q.q.G k k k ! s s @.%.,.z.S.J.J.XXqXqXiX= 8 % - a / i & o X dXdXdXdXdXdXdXdXdXdXdXdXdXdXdXdXdXdXdXdXdX",
"dXdXdXdXdXdXdXdX    . : l j l d d d + .   O > d K Q.<X6X<X6X6X6X^.^.^.$./ s *.k.).).m.v.m..XqXqXwXyXyXyX:Xo.oXo.1.W.1.p       dXdXdXdXdXdXdXdXdXdXdXdXdXdXdXdXdX",
"dXdXdXdXdXdXdXdX    . : d d d d d d +     O > d _ :XqXqXqXqXqXqX6X,X>X;.^ s *._.[.].R.,.,. XqXqXqXaXpXpXeX#XoX+X-X>X~.W       dXdXdXdXdXdXdXdXdXdXdXdXdXdXdXdXdX",
"dXdXdXdXdXdXdXdX      + d d d d d d O .   O > d _ 2XqXqXqXqXqXqX,X,X>X:./ s *._.[.].R.,.,..XqXqXqXaXpXpXeX#XoX+X-X,X~.W       dXdXdXdXdXdXdXdXdXdXdXdXdXdXdXdXdX",
"dXdXdXdXdXdXdXdX    . ; x x l ; ; ; O     O + ; P W.6X,X8XqXqXqX7X8X8X:.e w Y M.P.N.x.*.%.!.iXqXqXpXpXpXeX#XoX+X-X>X~.W       dXdXdXdXdXdXdXdXdXdXdXdXdXdXdXdXdX",
"dXdXdXdXdXdXdXdX    . 2 F F Z . . . dXdXdXdX. . 5 ' E.E..XqXqXqXwXwXwXX.& X I n.J.S.+./ @.<.wXqXqXaXpXpXeX#XoX+X-X,X~.p       dXdXdXdXdXdXdXdXdXdXdXdXdXdXdXdXdX",
"dXdXdXdXdXdXdXdX    . 3 H H D       dXdXdXdX    & ) h.U..XwXqXqXqXqXqX .%   I V.H.A.+.s / <.qXqXqXpXpXpXeX#XoX+X-X>X~.W       dXdXdXdXdXdXdXdXdXdXdXdXdXdXdXdXdX",
"dXdXdXdXdXdXdXdX    . 2 D D b       dXdXdXdX    & ~ $.%.!.0X9X9XuXuXuX .%   I V.H.A.+.s / <.qXqXqXaXaXaXeX$X@X+X;X~.W.p       dXdXdXdXdXdXdXdXdXdXdXdXdXdXdXdXdX",
"dXdXdXdXdXdXdXdX    . ; l l g       dXdXdXdX    X & 5 0 ) !.!./.=X=X=X} %   I V.H.A.+.s / <.qXqXqXiXiXiX3X-X-X1. .9 0 5 dXdXdXdXdXdXdXdXdXdXdXdXdXdXdXdXdXdXdXdX",
"dXdXdXdXdXdXdXdX    . + d d ,       dXdXdXdX        . . 6 =.h.;.*X*X*X| #   I V.H.A.+.s @.W.qXqXqXqXqXqX8X,X,XW.0     dXdXdXdXdXdXdXdXdXdXdXdXdXdXdXdXdXdXdXdXdX",
"dXdXdXdXdXdXdXdX    . ; d d ,       dXdXdXdX          X r >.;.h.*X*X*X| %   I V.H.A.b.^ / <.iXqXqXqXqXiX8X<X>XW.0     dXdXdXdXdXdXdXdXdXdXdXdXdXdXdXdXdXdXdXdXdX",
"dXdXdXdXdXdXdXdXdX    O ; ; ;       dXdXdXdXR R R ! ~ ! ~ ~ ~ ~ OXOXOX] .   I V.H.A.+.^ ^ ;.8X9X9X9X9X9X;X:.:...5   dXdXdXdXdXdXdXdXdXdXdXdXdXdXdXdXdXdXdXdXdXdX",
"dXdXdXdXdXdXdXdXdXdXdXdX      dXdXdXdXdXdXdXH.H.K.P.[.].)           . .     I V.H.A.+.^ / ;.,X,X>X>X>X>X) %     dXdXdXdXdXdXdXdXdXdXdXdXdXdXdXdXdXdXdXdXdXdXdXdX",
"dXdXdXdXdXdXdXdXdXdXdXdX      dXdXdXdXdXdXdXH.H.K.P.[.'.$..               . I V.H.A.+.^ ^ :.,X,X>X>X,X,XQ o     dXdXdXdXdXdXdXdXdXdXdXdXdXdXdXdXdXdXdXdXdXdXdXdX",
"dXdXdXdXdXdXdXdXdXdXdXdX      dXdXdXdXdXdXdXH.H.G.N.R.h.) . . . O O O .     I f.J.C.-.y a #./././.~.~.~...%     dXdXdXdXdXdXdXdXdXdXdXdXdXdXdXdXdXdXdXdXdXdXdXdX",
"dXdXdXdXdXdXdXdXdXdXdXdXdXdXdXdXdXdXdXdXdXdXdXdXdXr 5 * 4 > > > A A A : .   r x.|.l.U o % 5 C C C 5 5 5 = dXdXdXdXdXdXdXdXdXdXdXdXdXdXdXdXdXdXdXdXdXdXdXdXdXdXdX",
"dXdXdXdXdXdXdXdXdXdXdXdXdXdXdXdXdXdXdXdXdXdXdXdXdX      + , d g H H H 2 .   r U.[.T.r   . + d d d . .   dXdXdXdXdXdXdXdXdXdXdXdXdXdXdXdXdXdXdXdXdXdXdXdXdXdXdXdX",
"dXdXdXdXdXdXdXdXdXdXdXdXdXdXdXdXdXdXdXdXdXdXdXdXdX    . + d d g D H D 2 .   r >.{.j.r .   + d d d .     dXdXdXdXdXdXdXdXdXdXdXdXdXdXdXdXdXdXdXdXdXdXdXdXdXdXdXdX",
"dXdXdXdXdXdXdXdXdXdXdXdXdXdXdXdXdXdXdXdXdXdXdXdXdX    . 1 A Z A : : : 6 e e e w 6 0 k z x b Z Z Z x x z 2 .     dXdXdXdXdXdXdXdXdXdXdXdXdXdXdXdXdXdXdXdXdXdXdXdX",
"dXdXdXdXdXdXdXdXdXdXdXdXdXdXdXdXdXdXdXdXdXdXdXdXdX    . 2 H H H .     6 y Y e $ . @ z H H F H H F H H H 2 .     dXdXdXdXdXdXdXdXdXdXdXdXdXdXdXdXdXdXdXdXdXdXdXdX",
"dXdXdXdXdXdXdXdXdXdXdXdXdXdXdXdXdXdXdXdXdXdXdXdXdX    . 2 H H H       w y Y e o . @ j H H H H H H H H H 2 .     dXdXdXdXdXdXdXdXdXdXdXdXdXdXdXdXdXdXdXdXdXdXdXdX",
"dXdXdXdXdXdXdXdXdXdXdXdXdXdXdXdXdXdXdXdXdXdXdXdXdX    . 2 H H D       7 E E C 4 1 2 j j j x H H H H H H B R R I 7 dXdXdXdXdXdXdXdXdXdXdXdXdXdXdXdXdXdXdXdXdXdXdX",
"dXdXdXdXdXdXdXdXdXdXdXdXdXdXdXdXdXdXdXdXdXdXdXdXdX    . 2 H H H .     g S G S Z Z x 1 O O 3 H H H H H H t.Z.D.f.I     dXdXdXdXdXdXdXdXdXdXdXdXdXdXdXdXdXdXdXdXdX",
"dXdXdXdXdXdXdXdXdXdXdXdXdXdXdXdXdXdXdXdXdXdXdXdXdX    . 2 H H D       j D H H H H A :   . 1 H H H H H H B.L.H.V.r     dXdXdXdXdXdXdXdXdXdXdXdXdXdXdXdXdXdXdXdXdX",
"dXdXdXdXdXdXdXdXdXdXdXdXdXdXdXdXdXdXdXdXdXdXdXdXdXO O @ 3 G G G       V s.s.s.s.s.L 2   . ; G G G G G G d.D.L.f.I     dXdXdXdXdXdXdXdXdXdXdXdXdXdXdXdXdXdXdXdXdX",
"dXdXdXdXdXdXdXdXdXdXdXdXdXdXdXdXdXdXdXdXdXdX    @ 3 z j P E E E X     O.5X4X4X4X4X:X[   . = E E E E E E e.r.r.T <     dXdXdXdXdXdXdXdXdXdXdXdXdXdXdXdXdXdXdXdXdX",
"dXdXdXdXdXdXdXdXdXdXdXdXdXdXdXdXdXdXdXdXdXdX    @ x 2.J E s s y       :XsXpXpXpXpXyX .  X = ^ ^ ^ ^ ^ ^ K J H x +     dXdXdXdXdXdXdXdXdXdXdXdXdXdXdXdXdXdXdXdXdX",
"dXdXdXdXdXdXdXdXdXdXdXdXdXdXdXdXdXdXdXdXdXdX    @ z H G K s s y       -XsXpXpXpXpXyX .  X & Y ^ ^ ^ ^ ^ E G H x :     dXdXdXdXdXdXdXdXdXdXdXdXdXdXdXdXdXdXdXdXdX",
"dXdXdXdXdXdXdXdXdXdXdXdXdXdXdXdXdXdXdXdXdXdX    @ z H J L ` ` `       O.rXtXtXtXtX:X[     5 ` ` ` ` ` ` L q.5.A ;     dXdXdXdXdXdXdXdXdXdXdXdXdXdXdXdXdXdXdXdXdX",
"dXdXdXdXdXdXdXdXdXdXdXdXdXdXdXdXdXdXdXdXdXdX    : z H H 4.i.i.i.      ] } { { { { [ 8     4 i.i.i.i.i.i.i.i.i.B ;     dXdXdXdXdXdXdXdXdXdXdXdXdXdXdXdXdXdXdXdXdX",
"dXdXdXdXdXdXdXdXdXdXdXdXdXdXdXdXdXdXdXdXdXdX    @ z H 2.4.i.i.i.    X ] } { { { { [ 8   O < i.w.i.i.i.i.i.i.i.B ;     dXdXdXdXdXdXdXdXdXdXdXdXdXdXdXdXdXdXdXdXdX",
"dXdXdXdXdXdXdXdXdXdXdXdXdXdXdXdXdXdXdXdXdXdX    @ j Z D 5.i.i.i.    X ] [ { } } } [ 8   . < w.w.w.i.i.i.i.7.7.B 4     dXdXdXdXdXdXdXdXdXdXdXdXdXdXdXdXdXdXdXdXdX",
"dXdXdXdXdXdXdXdXdXdXdXdXdXdXdXdXdXdXdXdXdXdXdXdXdX@ @ : c i.i.9.X     9 ( a a ..( i =   . 2 2.2.2.w.i.i.m 4 ; ; dXdXdXdXdXdXdXdXdXdXdXdXdXdXdXdXdXdXdXdXdXdXdXdX",
"dXdXdXdXdXdXdXdXdXdXdXdXdXdXdXdXdXdXdXdXdXdXdXdXdX    . < i.i.i..     u a s s s s t &     1 H H H w.i.i.k X     dXdXdXdXdXdXdXdXdXdXdXdXdXdXdXdXdXdXdXdXdXdXdXdX",
"dXdXdXdXdXdXdXdXdXdXdXdXdXdXdXdXdXdXdXdXdXdXdXdXdX    . k i.i.i.      w s s s s s t &   . 1 H H H 9.i.i.k X .   dXdXdXdXdXdXdXdXdXdXdXdXdXdXdXdXdXdXdXdXdXdXdXdX",
"dXdXdXdXdXdXdXdXdXdXdXdXdXdXdXdXdXdXdXdXdXdXdXdXdXdXdXdX; 4 4 <       ..E.!.~.2X>X^.p     # : : 1 4 4 4 ; dXdXdXdXdXdXdXdXdXdXdXdXdXdXdXdXdXdXdXdXdXdXdXdXdXdXdX",
"dXdXdXdXdXdXdXdXdXdXdXdXdXdXdXdXdXdXdXdXdXdXdXdXdXdXdXdXdX            X.2X2X1X0XwX<X .            .   . dXdXdXdXdXdXdXdXdXdXdXdXdXdXdXdXdXdXdXdXdXdXdXdXdXdXdXdX",
"dXdXdXdXdXdXdXdXdXdXdXdXdXdXdXdXdXdXdXdXdXdXdXdXdXdXdXdXdX            X.2X2X1X0XqX<XQ                   dXdXdXdXdXdXdXdXdXdXdXdXdXdXdXdXdXdXdXdXdXdXdXdXdXdXdXdX",
"dXdXdXdXdXdXdXdXdXdXdXdXdXdXdXdXdXdXdXdXdXdXdXdXdXdXdXdXdX            Q :.:.1.Q.^.1.p o o o o o o & & & $ dXdXdXdXdXdXdXdXdXdXdXdXdXdXdXdXdXdXdXdXdXdXdXdXdXdXdX",
"dXdXdXdXdXdXdXdXdXdXdXdXdXdXdXdXdXdXdXdXdXdXdXdXdXdXdXdXdXdXdXdX      % = = 5 5 5 q 9 - u 6 u - - t t y * X     dXdXdXdXdXdXdXdXdXdXdXdXdXdXdXdXdXdXdXdXdXdXdXdX",
"dXdXdXdXdXdXdXdXdXdXdXdXdXdXdXdXdXdXdXdXdXdXdXdXdXdXdXdXdXdXdXdX                  o - u u u u u e s ^ ^ * X     dXdXdXdXdXdXdXdXdXdXdXdXdXdXdXdXdXdXdXdXdXdXdXdX",
"dXdXdXdXdXdXdXdXdXdXdXdXdXdXdXdXdXdXdXdXdXdXdXdXdXdXdXdXdXdXdXdX                  X - u u u u u u s s s * X     dXdXdXdXdXdXdXdXdXdXdXdXdXdXdXdXdXdXdXdXdXdXdXdX",
"dXdXdXdXdXdXdXdXdXdXdXdXdXdXdXdXdXdXdXdXdXdXdXdXdXdXdXdXdXdXdXdXdXdXdX            X - u u u a y a s s ^ * X     dXdXdXdXdXdXdXdXdXdXdXdXdXdXdXdXdXdXdXdXdXdXdXdX",
"dXdXdXdXdXdXdXdXdXdXdXdXdXdXdXdXdXdXdXdXdXdXdXdXdXdXdXdXdXdXdXdXdXdXdX            X - u u t s ^ s s ^ ^ * X     dXdXdXdXdXdXdXdXdXdXdXdXdXdXdXdXdXdXdXdXdXdXdXdX",
"dXdXdXdXdXdXdXdXdXdXdXdXdXdXdXdXdXdXdXdXdXdXdXdXdXdXdXdXdXdXdXdXdXdXdX            o - u u i ^ ^ s s ^ ^ * X     dXdXdXdXdXdXdXdXdXdXdXdXdXdXdXdXdXdXdXdXdXdXdXdX",
"dXdXdXdXdXdXdXdXdXdXdXdXdXdXdXdXdXdXdXdXdXdXdXdXdXdXdXdXdXdXdXdXdXdXdXdX          X & - - w e e t e e t & X     dXdXdXdXdXdXdXdXdXdXdXdXdXdXdXdXdXdXdXdXdXdXdXdX",
"dXdXdXdXdXdXdXdXdXdXdXdXdXdXdXdXdXdXdXdXdXdXdXdXdXdXdXdXdXdXdXdXdXdXdXdXdXdXdXdXdXdX                    dXdXdXdXdXdXdXdXdXdXdXdXdXdXdXdXdXdXdXdXdXdXdXdXdXdXdXdX",
"dXdXdXdXdXdXdXdXdXdXdXdXdXdXdXdXdXdXdXdXdXdXdXdXdXdXdXdXdXdXdXdXdXdXdXdXdXdXdXdXdXdX                    dXdXdXdXdXdXdXdXdXdXdXdXdXdXdXdXdXdXdXdXdXdXdXdXdXdXdXdX",
"dXdXdXdXdXdXdXdXdXdXdXdXdXdXdXdXdXdXdXdXdXdXdXdXdXdXdXdXdXdXdXdXdXdXdXdXdXdXdXdXdXdX                    dXdXdXdXdXdXdXdXdXdXdXdXdXdXdXdXdXdXdXdXdXdXdXdXdXdXdXdX",
"dXdXdXdXdXdXdXdXdXdXdXdXdXdXdXdXdXdXdXdXdXdXdXdXdXdXdXdXdXdXdXdXdXdXdXdXdXdXdXdXdXdXdXdXdXdXdXdXdXdXdXdXdXdXdXdXdXdXdXdXdXdXdXdXdXdXdXdXdXdXdXdXdXdXdXdXdXdXdXdX"
};
