/* XPM */
static char *result[] = {
/* columns rows colors chars-per-pixel */
"80 80 163 2 ",
"   c #010100",
".  c #080600",
"X  c #070B01",
"o  c #090A01",
"O  c #090909",
"+  c #0D1401",
"@  c #0F1900",
"#  c #141100",
"$  c #1B1701",
"%  c #111A01",
"&  c #1A1A01",
"*  c #101508",
"=  c #1B1B1B",
"-  c #201E02",
";  c #162300",
":  c #192603",
">  c #1B2A01",
",  c #1F3103",
"<  c #202001",
"1  c #292301",
"2  c #24200E",
"3  c #2B2B08",
"4  c #352C01",
"5  c #392F01",
"6  c #3C3301",
"7  c #3D3A01",
"8  c #20241A",
"9  c gray14",
"0  c #3B3725",
"q  c #353534",
"w  c #3B3A38",
"e  c #413701",
"r  c #3A4031",
"t  c #494917",
"y  c #49431B",
"u  c #466B04",
"i  c #496F04",
"p  c #47690E",
"a  c #486C0B",
"s  c #497301",
"d  c #4D7B00",
"f  c #4D740D",
"g  c #4E7C0C",
"h  c #517D03",
"j  c #4E7410",
"k  c #557E11",
"l  c #48503D",
"z  c gray28",
"x  c #4E4E4C",
"c  c #4E5346",
"v  c #535353",
"b  c #4F8500",
"n  c #548400",
"m  c #568B02",
"M  c #5A8D02",
"N  c #56870D",
"B  c #59850C",
"V  c #58880D",
"C  c #5C9400",
"Z  c #5E9A00",
"A  c #5F940E",
"S  c #578211",
"D  c #5A8512",
"F  c #669D05",
"G  c #689E04",
"H  c #64970F",
"J  c #65990B",
"K  c #608F13",
"L  c #649413",
"P  c #669A14",
"I  c #689D13",
"U  c #66A100",
"Y  c #69A400",
"T  c #66A800",
"R  c #6BAB00",
"E  c #6BA40D",
"W  c #6EAC0D",
"Q  c #70AF0F",
"!  c #6DB300",
"~  c #6FBA00",
"^  c #70B507",
"/  c #70BA00",
"(  c #72B40E",
")  c #76BB0E",
"_  c #78BE0E",
"`  c #6BA414",
"'  c #6EAA13",
"]  c #70AE13",
"[  c #72B312",
"{  c #75B910",
"}  c #78C103",
"|  c #7AC40C",
" . c #7DCB0A",
".. c #998000",
"X. c #A18601",
"o. c #A68B01",
"O. c #A98D03",
"+. c #A78D0D",
"@. c #AE9101",
"#. c #B19403",
"$. c #B79901",
"%. c #BD9E04",
"&. c #BFA004",
"*. c #C2A201",
"=. c #C9A700",
"-. c #CEAC00",
";. c #D2AE00",
":. c #D6B200",
">. c #DAB600",
",. c #DEB900",
"<. c #DAB60A",
"1. c #DBB80E",
"2. c #DEBC15",
"3. c #DEBD1D",
"4. c #E3BD00",
"5. c #DDBE27",
"6. c #D6BC39",
"7. c #D8BF3C",
"8. c #E0BF20",
"9. c #E6C000",
"0. c #EDC600",
"q. c #F3CB00",
"w. c #FFD500",
"e. c #FFD60A",
"r. c #E1C01D",
"t. c #EDC91B",
"y. c #DDC02F",
"u. c #E4C424",
"i. c #FDDB2E",
"p. c #E2C63A",
"a. c #FDDD3E",
"s. c #D2BD4F",
"d. c #DCC241",
"f. c #D8C252",
"g. c #E0C645",
"h. c #EACE43",
"j. c #E5CB4A",
"k. c #E6CC4A",
"l. c #FDDE44",
"z. c #E1CA56",
"x. c #EED452",
"c. c #EAD259",
"v. c #F1D756",
"b. c #F9DE59",
"n. c #FCE056",
"m. c #FCE15D",
"M. c #FCE260",
"N. c #FCE36A",
"B. c #FCE470",
"V. c #E8E1BC",
"C. c gray84",
"Z. c #DEDEDE",
"A. c #E7E1C0",
"S. c #FBF3CC",
"D. c #EBE8D6",
"F. c #EAE8DB",
"G. c #FAF4D4",
"H. c #FBF5D9",
"J. c gray91",
"K. c #FAF7E4",
"L. c #FAF7EA",
"P. c #FAF9F4",
"I. c gray98",
/* pixels */
"R ! ! R J Y T R ! ! ! / R R ! ! R Y L L F U G F L L L J ! ! ! G H G Y Y Y G L L L L P G F Y ~ ! U R ! R H Y / ! I I P G U R ~ R L L L L U ~ R U ! R ! H U R ! ! ",
"R ! ! F F Y R R ! ! ~ ! R R ! R Y Y L H J F G G L L F Y ! ! ! J L J Y G G J L L L J R G H ! ~ Y Y R R R U ! / Y P P Y R Y ~ ~ U L L L U ! ~ R Y R R R H Y ~ ~ R ",
"R ! R L G U ! ! R ! ~ Y R R R Y U F L L J H J J Y R Y T R R R L L H H J J L L H R ! F L ! ~ ~ F Y R R R ! ! R L J R R U ! ! R L J R R R / ! U Y Y R Y T ! ! R Y ",
"! ! U L Y ! R R ! ~ ! U Y R R U G J L L L L G T ! R F R R R G L L L H L H L G R ! Y L F ~ ~ ! G Y R R R ! ! F H R ~ G R ! ! U U R ! R ! ~ R G Y Y Y R R ! R R U ",
"~ Y G R ~ ! U Y ~ ~ U U Y R R F G H L L L L ! ~ R P U R Y R J L L L L L L G ! ! R L L R ~ ! Y Y Y Y R ! ! ! L R / R Y R R R R / ~ Y ! ! ! F F G U Y R R R R Y G ",
"R Y R ~ ! G G ! ~ ! J U U Y Y J G L L L J R ! ! J L U Y Y R L L L L L L J R ! ! H L J ! ! ! Y U Y Y ! ! ! Y R / ! F Y R R ! ~ ! ! ! ! ! ! L J F G R Y Y ! Y H J ",
"Y ! ! ! Y L U ! ~ R H F F G G J H P J H R ~ R Y L L U U Y Y L L L L L H R R R U L L R ! ! R J U Y ! / R Y Y ! / Y J Y R R ! ! / ! R R ! Y L H H G U U ! ! H L Y ",
"Y ! R ! P H R ! ~ Y J F F G F L L F U Y ~ ! R J L H U U G G L L L L H G Y Y Y J L F Y R R Y H R ! ! R Y R R ! ! F G Y Y ! ! ! ~ ! R R R G L L L J F R ~ G L J ! ",
"R R R Y L J R ! ! G J J J J J L J R J / / R U L L L U G G J L L L J U G U Y Y H Y G Y R R Y U ! ~ ! Y Y R R ! R J G U R ! R ~ ! Y R R R J L L L L G ~ ! H L Y / ",
"G Y Y J L Y ! / T J L L J J L F ! J R / ! U J L H Y J G J j : : : : : : : : : : : : : : : : > > : : h Y R ! ! U L U ! ! R ! ~ R U R Y R L L L L F ! ~ U L G ! / ",
"F G G L H R ! ! Y L L L L L F ! R G ! ! Y G L J T G H H H a                                         u R ! ~ R G R ! ! Y R ~ ~ Y U Y Y U L L L L R ~ ! J L R / ! ",
"H H J L J ! ! R G L L L L R ~ ! Y R ! ! F H G ! G L L L L a                                         u R / R Y R ~ / F G ! ~ ! G U U Y G L L L F ~ ~ R L J R ! ! ",
"L L L L R ~ R Y J L L U ! ~ ~ R U ! ! R L U ~ C % + + @ * y f.f.6.>.>.>.>.>.=.$.$.$.$.$.$.$.$.O.X.X.7 % @ @ @ @ C Y P Y ~ ~ R J G G U J L L H R ! ! F L Y R ! Y ",
"K L L F / / Y Y H P Y ~ ~ ~ ~ G Y R R Y Y ~ ! B X       O y M.M.l.w.w.w.w.w.0.:.:.:.:.:.:.:.:.=.%.%.6           n L J R ! ! U J J F G J L L G ! ! R P L R R R Y ",
"L L J ^ ~ R U U J R ! ! ~ ~ ~ G R R R Y ! ! G k + . O O . e M.M.a.w.w.w.w.w.q.:.:.:.:.:.:.:.>.*.%.%.e . . . . . d K F T ! ! L J J J F H L L R ! ! Y L J R Y R F ",
"L L Y / ~ U G G Y R ! ~ ~ ~ R U R R T ! Y % O 3 s.z.z.z.z.g.e.e.e.w.w.w.w.w.w.w.w.w.w.q.4.:.:.:.:.:.$.O.O.O.O.O.3 + + Z ! R L L H J H L L H R R R U L G Y Y Y J ",
"L G ! ~ ! J F Y Y R R / / ! Y Y Y Y ! ! F X   2 c.M.M.M.M.l.w.w.w.w.w.w.w.w.w.w.w.w.w.w.4.:.:.;.:.:.*.%.%.%.%.%.1     Z ! U L L L L L J G U R R R J L Y U U Y H ",
"L R ! ! Y H J Y Y Y R / ! ! J Y Y R ! ! Z X   2 c.M.M.M.M.l.w.w.w.w.w.w.w.w.w.w.w.w.w.w.9.:.:.;.:.:.*.%.%.%.%.%.1     Z T F L L L J U R J Y Y R Y H L G U G G L ",
"Y ! ! ! G L J G G Y ! ! ! R J R ! !     = J.I.K.N.M.M.M.M.l.w.w.,.............................*.:.:.:.:.:.=.%.%.%.%.%.$   o D L J ! R L H Y Y Y U H L F J F G L ",
"Y R R ! L L H J F W / R R R ^ ! / !     = J.I.K.B.M.M.M.M.l.w.w.>.............................%.:.:.<.:.:.*.%.%.%.%.%.$   o D E ~ ! J L J U Y Y F L L H J J J P ",
"Y R R Y L L L L ` ) R R ! ~ ~ T U Z = = q F.L.G.N.M.M.v.v.h.q.q.:.X.X.X.X.X.X.X.X...X.X.X.X.X.*.-.-.;.-.;.*.&.&.%.%.%.3 # & m U Y J L L J G Y Y J L L L L H G ! ",
"R R R Y L L L P | ^ R ! ~ ! R % X X J.J.F.B.N.N.M.M.v.X.+.X.X.X.#.;.;.;.;.;.;.;.;.;.;.;.;.;.;.@.X...X.....*.:.:.&.%.%.#.@.o.& X o L L L J F F J J L L L H Y ! ! ",
"Y Y Y J L L L { | Y ! ! ~ ! T +     I.I.L.N.M.M.b.M.v...........O.:.;.:.:.:.:.:.:.:.:.:.:.:.;.#...........=.:.:.*.%.%.%.%.#.#     L L L J J F F H L L L Y ! ! U ",
"Y Y Y L L P {  .W Y R ! Z M C 8 9 9 K.K.H.N.M.b.x.x.k.X.X.X.X.X.$.1.1.1.1.1.1.1.1.1.1.1.<.:.:.$.X.X.X.X.X.*.-.-.*.&.*.%.%.#.1 $ $ k k k H F G J L L L U R R R L ",
"G U F H L `  . .F Y R R ; X * C.J.J.N.N.N.M.M.x.+.X.+.-.;.;.;.;.3.b.b.b.b.b.b.b.b.b.b.b.u.:.:.;.;.;.;.;.;.O.X...=.:.:.&.&.%.#.#.@.o o @ G U L L L L J Y R R J L ",
"G G F H P |  .[ G Y Y R @   O Z.I.I.M.M.M.M.M.x.X...X.;.;.;.;.:.8.M.M.M.M.M.M.b.M.M.m.M.u.:.:.:.:.:.:.:.:.O.....=.:.:.&.%.%.%.%.%.    + U L L P L L G G Y Y P L ",
"J J J L [ | | ` J F G U @   O Z.I.I.M.M.M.v.v.k.+.X.o.1.<.<.<.<.8.v.v.v.v.v.v.v.v.v.v.v.5.;.;.:.,.,.:.:.:.#.X.X.*.;.;.*.&.&.%.%.%.    + A L L L L H F F G F L L ",
"J J J P { | [ L L J J G %   O Z.I.I.M.M.v.X...X.;.;.<.M.M.M.M.M.d.............................:.w.w.4.:.:.:.:.:.O.....=.:.;.&.%.%.    + D L L L L L H H F H L L ",
"L L P ] ) ) ` L L A H ! @   O Z.I.I.M.M.v.....X.;.;.<.M.M.M.M.M.s.............................,.w.w.4.;.;.:.:.:.o.....-.:.;.&.&.%.    O K L L L L L L L P L L L ",
"L L P [ { ) ` L L j s b l z x A.S.G.M.M.v.+...X.;.:.<.M.b.b.l.l.8...........o.#.#.#.$.$.X.....*.4.4.4.4.4.:.:.:.X.....-.:.:.&.&.%.5 4 6 p p a L L L L L L L ` L ",
"L L ` [ [ [ P L L :     C.I.P.B.M.M.M.M.v.+...X.;.:.<.M.M.l.w.w.4...........*.w.w.w.w.w.*...........,.w.w.4.:.:.o.....-.:.;.&.&.%.%.%.O..   + L G L L L ` ] L L ",
"L L ' ] ] ' P L L :     C.I.P.B.M.M.M.M.v.....X.;.:.<.M.M.l.w.w.>...........%.w.w.w.w.w.*...........,.w.w.4.:.:.o.....;.:.;.&.&.%.%.%.O..   @ G J L L ` { ` L L ",
"L P ` ] ' ` L L F >     C.I.P.B.M.M.d.d.7.#.@.#.3.r.y.l.l.i.w.w.,...........%.w.w.w.w.w.&...........>.w.w.,.:.:.$.@.@.%.*.*.*.=.*.&.%.O..   @ Y L P [  .` L L L ",
"L ` ` ` ' ` L L U :     C.I.P.B.M.M.......;.:.1.m.n.n.w.w.w.q.w.,...........%.w.w.w.w.w.&...........,.w.w.4.:.:.:.:.>.X.....-.>.:.%.%.+..   @ L L '  .{ L K L L ",
"L I ` ` ` L L L R :     C.I.P.B.M.M.....X.;.:.1.n.m.n.w.w.w.w.w.,...........*.w.w.w.w.w.&...........,.w.w.4.:.:.:.:.:.X.....-.:.:.%.%.O..   @ L [  . .I L L L L ",
"L ` ` ` ` L L F R :     C.I.P.B.M.M.....X.;.:.1.m.m.n.w.w.w.w.w.,...........%.w.w.w.w.w.&...........,.w.w.0.9.9.:.:.:.X.....;.:.:.%.%.O..   + I | | [ L L L L L ",
"Y I I I I L U Y Y >     C.I.P.B.M.M.....X.:.:.1.n.M.n.q.q.w.w.w.>...........%.w.w.w.w.w.&...........,.w.w.w.w.w.,.:.>.X...X.;.:.:.%.%.O..   @ [ _ _ E H L L L L ",
"H P L L P U Y G Y :     C.I.P.B.M.M.......:.:.1.b.M.n.w.w.w.w.w.,...........*.w.w.w.w.w.&...........,.w.w.w.w.w.4.:.:.X.....;.:.:.%.%.O..   @ { ) ) H L L L L L ",
"L L L L U ! J G U :     C.I.P.B.M.M.......:.-.1.m.M.n.w.w.w.w.w.,...........@.:.:.>.:.:.@.....#.&.*.0.w.w.w.w.w.,.:.:.X.....-.:.:.%.%.O..   @ { } W L L L L H R ",
"L L L G ~ U H G G :     C.I.P.N.M.M.......:.:.1.n.M.n.w.w.w.w.w.,.............................>.w.w.w.w.w.w.w.w.,.:.:.O.....-.:.:.%.%.+..   @ } ( ` L L L J R / ",
"L L F ! ! L P J J :     C.I.P.B.M.M.......;.:.1.b.m.n.w.w.w.w.w.,.............................>.w.w.w.w.w.w.w.w.,.:.:.X...X.;.:.:.%.%.O..   % } ' P L H G R / ! ",
"J Y ! / Y L L J P :     C.I.P.B.M.M.....X.:.:.1.b.M.n.w.q.w.w.w.,...........X.*.*.=.*.*.=.=.*.0.w.w.w.w.w.w.w.w.4.:.:.X.....;.:.:.&.%.O..   @ W ` I Y Y Y ! / J ",
"R R / ~ J L L L L :     C.I.P.B.M.M.......;.:.1.n.M.n.w.w.w.w.w.:...........*.w.w.w.w.w.w.w.w.w.w.w.w.w.w.w.w.w.,.:.:.X.....-.:.:.&.%.O..   @ ` E R R U ! ! ! L ",
"Y ! ~ R L L L L L :     C.I.P.B.M.M.....X.;.:.1.m.M.n.w.w.w.w.w.,...........*.w.w.w.w.w.w.w.w.w.w.w.w.w.w.w.w.w.,.:.:.X.....-.:.:.$.%.O..   + ` ! / F R ! ! Y U ",
"! ! ! G L L L L L ,     C.I.P.B.M.M.....X.;.:.1.n.m.n.w.w.w.w.w.,...........%.w.w.w.w.w.w.w.w.w.w.w.w.w.w.0.4.9.>.:.:.X.....;.:.:.%.%.+..   % ! / R G R R R R / ",
"R ! ! P L L L L [ ,     C.I.P.B.M.M.....X.;.:.1.m.M.n.w.w.w.w.w.,...........*.w.w.w.w.w.w.w.w.w.w.w.w.w.w.4.:.:.:.:.:.X...X.;.:.:.%.%.O..   @ / / F Y R R ! ! / ",
"R ! T L L L K ` | ,     C.I.P.B.M.M.....X.;.:.1.n.m.n.w.w.w.w.w.,...........%.w.w.w.w.w.w.w.w.w.w.w.w.w.w.4.:.:.:.:.:.X.....-.:.:.%.%.O..   % ! Y F Y R R ! ! ! ",
"R R Y L L L P ] { ,     C.I.P.B.M.M.7.7.6.#.#.$.u.u.u.a.a.i.w.w.,...........*.w.w.w.w.w.w.w.w.w.w.w.w.w.w.4.:.:.$.#.#.%.*.*.=.*.*.%.%.O..   % ! J G G R ! ! ! ~ ",
"R R G L L L ` { { >     C.I.P.B.M.M.M.M.v.......:.:.<.M.M.l.w.w.>...........&.w.w.w.w.w.w.w.w.w.w.w.w.w.w.,.:.:.O.....-.:.:.&.&.%.%.%.o..   @ R L G U ! ! R ! / ",
"R Y J L L P ' [ [ ,     C.I.P.B.M.m.M.M.v.+...o.:.:.1.M.M.l.w.w.,...........=.w.w.w.w.w.w.w.w.w.w.w.w.w.w.9.:.:.o.....-.:.:.&.&.%.%.%.O..   @ U H Y ! ! R ! ~ R ",
"Y U L L L I ] ] [ D N g c x v V.S.S.M.M.v.+...o.-.:.<.m.M.n.a.l.y...........&.w.w.w.w.w.w.w.w.w.w.w.0.9.9.:.:.:.O.....=.:.:.&.$.%.6 6 7 s d d J R ~ ! U R ~ ~ Y ",
"Y G L L L ` ' ' [ |  .I +   O J.I.I.M.M.v.......:.:.1.M.M.M.M.M.d...........&.w.w.w.w.w.w.w.w.w.w.w.9.:.:.:.:.:.o.....=.:.;.&.&.%.    + ! T Y ! ~ ! J F ! ~ ~ J ",
"U J L L L ` ` ' |  .[ L +   O Z.I.I.M.M.b.......-.:.<.M.M.M.m.M.d...........=.e.w.w.w.w.w.w.w.w.w.w.9.:.:.:.:.:.o.....-.:.:.&.&.%.    + R Y R / ~ Y L Y ~ ! R J ",
"G J L L L I ` '  .| ` L +   O Z.I.I.M.M.M.j.d.p.@.@.#.r.r.r.r.r.y.d.d.d.d.j.h.l.l.l.l.l.t.4.4.4.4.4.>.:.:.$.O.O.&.=.&.&.&.*.&.&.%.    + U R ^ ^ R H L R ! ! Y J ",
"G J L L P I ` |  .| L L *   O Z.I.I.M.M.M.M.M.x.....+.>.:.:.:.:.t.M.N.m.M.M.M.M.M.M.M.M.u.:.:.:.:.:.:.:.:.O.....=.:.:.&.$.&.&.&.%.    @ F R R R U L G ! ! ! F J ",
"H L L L L L ] | | ] L L @   O Z.I.I.M.M.M.M.M.x.......>.:.:.:.:.y.M.M.M.M.M.M.M.M.M.M.M.u.:.:.:.:.:.:.:.:.O.....=.:.;.&.&.&.$.&.%.    X F Y Y Y H L R R ! R L L ",
"A E E A P P [ | { ` L P K D S r q q H.H.G.N.M.m.j.j.d.o.o.o.o.o.&.2.2.2.2.2.2.2.2.2.2.2.<.:.:.$.O.X.O.X.X.%.=.=.&.&.&.&.&.#.5 < 1 C m n F F G G L J R ! R Y L L ",
"Y T A L K ` [ | { I L [ ] ` ( *     I.I.L.N.M.m.M.M.v...........@.:.:.:.:.>.:.:.:.>.:.:.:.:.:.@...........=.:.:.=.&.&.&.$.@.+ .   ! ! J H J F J L G ! ~ R F L L ",
"! L K L L ] [ [ ] L [ | P [ ( +     I.I.L.N.M.m.M.M.v...........@.>.:.>.:.:.:.:.:.:.:.:.:.:.:.#...........*.:.:.&.&.&.&.%.@.#     R R L L L L L L Y / R Y H L L ",
"J L P P P ] [ [ ` '  .` ` [ [ P S S 9 9 w D.K.G.B.M.n.q.0.q.0.q.:.....o...o.o...X.X.X.X.X.X.X.&.-.-.-.-.-.:.:.:.&.&.&.3 $ - f C C R G L L L L L U ~ ~ Y Y H L R ",
"L L L L ` ' ' ] ] | | P ' ' ' ' P K   . = J.I.K.N.M.n.w.w.w.w.w.4.............................&.:.:.:.:.:.:.:.:.&.%.%.$   X M Y R R J L L L L H ! / R U Y J R ! ",
"L L L L ` ' ' ] |  .` P ` ` ' P L K X X 8 C.J.D.N.m.n.e.e.e.w.w.4.o...o.o.....o.X.X.X.X.X.....&.:.:.:.:.;.:.:.:.$.#.#.: X + C Y Y R J L L L L R ~ ~ Y G U Y R ! ",
"L L L L ` ' ' |  .| P P P P ` P ` R T T C 8 = 0 v.M.m.n.n.a.w.w.w.q.q.q.q.q.q.q.q.q.q.q.,.;.:.:.:.:.*.&.%.*.&.%.5 # # n V D G Y Y Y H L L L Y ! / R J J Y R R R ",
"L L L H ` ` ' |  .{ L P P P ` ] ' ! ~ ~ C X X 8 c.M.M.M.M.l.w.w.w.w.w.w.w.w.w.w.w.w.w.w.4.:.:.:.:.:.*.%.%.%.%.%.1     M L H G G U U L L L L R ! ~ Y H G Y Y Y Y ",
"L J Y Y I ` _ | | ` L L L [ | ' U ! ! ! M X   2 c.M.M.M.M.n.w.w.w.w.w.w.w.w.w.w.w.w.w.w.4.:.:.:.:.:.*.%.%.%.%.%.1     m L L F E W J L L J Y ! ! ^ F L J G G Y J ",
"G ! R P J ` | | { I L L [  .| L U ! R W J G Y Z X         e M.M.l.w.w.w.w.w.0.:.:.:.:.:.:.:.:.=.%.%.6           m Y Y G L H J ( E J L Y R R ! R R L L J F G G L ",
"~ U J U L [ { _ ' P P { | { I P R R R R J R ~ Z X         y M.M.l.w.w.w.w.w.q.:.:.:.:.:.:.:.:.*.%.%.6           h U Y F L L _ ] H Y ! R J R R R U L L ` ` H H L ",
"! H U J I { { { ` P ] { { ' L J Y Y R Y R ! ~ Z % + + + + t z.z.p.9.4.4.9.9.:.%.&.&.%.&.*.%.*.@.+.O.7 + + + + + h G G J L [ | I Y / ! J G Y R R F ` [ ' L L L G ",
"U R Y L ` [ [ [ P ` ] [ [ P L G Y Y Y R ! ! R Y F G T R T i . O . o . . o . . . . . . . . . . . . . u ) | [ K A J G G L ]  .' Y ! / G L Y Y Y R ) | ' L L L H R ",
"Y ! H L ` [ [ [ I ` ] ] ` L L G G G Y R R R R Y F Y ~ ! Y f                                         b | ) I L J J H J `  .| Y R ! Y H L G Y R |  .[ L L L J Y R ",
"/ Y L L ' ] ' ' I ` ` ' P L L J G G R Y Y ! G H F ! ~ R R n @ % @ @ @ % @ @ @ @ @ @ + % + % % + + * N ) ` L L L H J J }  .) R R R H L L Y T |  .{ P L L L F Y R ",
"! L L P ` ` ' ' P I ` ` L H F H H G U U ! R L L T ~ R Y ! ! ! G L R ! / Y H F G G J P ` ' ' ` L ` [ [ [ P L L L L L {  . .W U Y Y L L H E } | | ` L L L L F T R ",
"R L L I ` Q ` ` L L I I J Y H L L J U R ! G L J ! ~ Y R R ! R L H ! ! ! G J J G G J ` ` ` ` I P ` ' ' ` L L L L F H |  .| G G U F L L H ( ) ) ) L L L L P U ! Y ",
"J L L I R ` ` I L L L R R H L L L L R ~ R H P R / ~ Y Y R R F L U R ! ! L J J J J L I I ` ` P I ` ` ` I L L L Y H [ | | ' P J F H L L ` Q ( ( W L L L L G ! Y R ",
"L L G ! Y I I P L H R R J L L L L U / ~ U L Y ! ~ R G U Y Y L H R ! ! T L L H H H H I H P I L L L I I P L L R Y ` { | _ I L H L H L L ` ` ' ' I L L L H ! R G ! ",
"L U ! U P L I P J R / Y L L L L G ~ ~ ! L L R ! ! Y J G G G L J R ~ ! G L L L L L G E L P P L L L L L L L U ! H ' ) ) [ L L L L L L L P I ` ` L L L L R ~ U U ! ",
"G ~ ! L L L G Y R / ! L L L L G ! ~ ~ Y L J ! ! R H L L H H L Y ! ! R J L L L F R Y L L L L L L L L P J Y ~ G L ' [ [ ] L L L L L L L L L P P L L L Y ~ ! U R ! ",
"! ~ G L L Y Y Y ! ! G L L G R ! ~ ~ ! H L Y R R Y L L L L L L ! ~ R Y J L L R / Y L L L L L L L L P Y J ~ ! L P [ [ [ ` L L L L L L H J L L L L L G ~ ~ R Y R R ",
"! R L H R ! G ! ! ! H J R R R ~ ~ ! R L H R R R U L L L L L Y ~ ! Y Y H H R ! R L L L L L L L L F R F ! ~ Y L I ' ] ( ` L L L L L F G H L L L L U ! ~ ~ F R R R ",
"! U H R / Y R R ! Y G ! ! Y ! ~ ~ ! Y L F R Y R J L L L L G ~ ~ R U G H R / ! F L L L L L L L J R Y Y ~ ! F L ` ' ^ Q I L L L L F R J L L L L G R ~ ~ ! H Y Y R "
};
