/* XPM */
static char *result[] = {
/* columns rows colors chars-per-pixel */
"80 80 254 2 ",
"   c #000102",
".  c #01010B",
"X  c #040113",
"o  c #06011B",
"O  c #09021D",
"+  c #070221",
"@  c #090224",
"#  c #0C022B",
"$  c #10022D",
"%  c #0E0334",
"&  c #0F033B",
"*  c #130336",
"=  c #12033C",
"-  c #557E2D",
";  c #5C7E2D",
":  c #566F3F",
">  c #4C743B",
",  c #4D7B38",
"<  c #547A33",
"1  c #5C7A33",
"2  c #54733B",
"3  c #5C743B",
"4  c #587839",
"5  c #627D2D",
"6  c #697C2F",
"7  c #627A33",
"8  c #63733B",
"9  c #67723E",
"0  c #657838",
"q  c #0F0341",
"w  c #130343",
"e  c #190444",
"r  c #14044B",
"t  c #1C044B",
"y  c #150553",
"u  c #1B0553",
"i  c #16055A",
"p  c #1C055B",
"a  c #21054E",
"s  c #260557",
"d  c #23055B",
"f  c #1C0662",
"g  c #180769",
"h  c #1B066B",
"j  c #1B0772",
"k  c #1D0875",
"l  c #1C097C",
"z  c #220663",
"x  c #23076B",
"c  c #29076A",
"v  c #33076C",
"b  c #280774",
"n  c #220873",
"m  c #23097B",
"M  c #2C087C",
"N  c #350877",
"B  c #41097B",
"V  c #3D5B5A",
"C  c #3C635C",
"Z  c #384D6E",
"A  c #3A5568",
"S  c #3C5B6B",
"D  c #2E467C",
"F  c #354877",
"G  c #375474",
"H  c #3C6264",
"J  c #495D57",
"K  c #445C5C",
"L  c #565C5A",
"P  c #645C5A",
"I  c #715F5F",
"U  c #456C45",
"Y  c #4B6D43",
"T  c #43654D",
"R  c #4C674B",
"E  c #456A4A",
"W  c #536C44",
"Q  c #57694A",
"!  c #497445",
"~  c #577446",
"^  c #436253",
"/  c #4B6253",
"(  c #486859",
")  c #586355",
"_  c #4B7554",
"`  c #537552",
"'  c #626D43",
"]  c #65684B",
"[  c #677646",
"{  c #646253",
"}  c #676756",
"|  c #6D6E54",
" . c #484E6C",
".. c #445463",
"X. c #485867",
"o. c #535464",
"O. c #50516F",
"+. c #595668",
"@. c #484778",
"#. c #574977",
"$. c #654E6D",
"%. c #665767",
"&. c #674978",
"*. c #665275",
"=. c #725072",
"-. c #446365",
";. c #556062",
":. c #676561",
">. c #5E8C19",
",. c #5D8C1C",
"<. c #5F9214",
"1. c #5D971C",
"2. c #669D05",
"3. c #689E05",
"4. c #63960E",
"5. c #659A0B",
"6. c #628C1B",
"7. c #648D1A",
"8. c #639414",
"9. c #649A13",
"0. c #6A9C14",
"q. c #64941B",
"w. c #6A931C",
"e. c #659B1B",
"r. c #6B9A1A",
"t. c #67A202",
"y. c #69A401",
"u. c #6BAC01",
"i. c #69A60C",
"p. c #6DB301",
"a. c #6FBA00",
"s. c #6BB109",
"d. c #71BA04",
"f. c #6BA414",
"g. c #6AA716",
"h. c #70AD14",
"j. c #73B514",
"k. c #568325",
"l. c #5B8524",
"z. c #5C8A22",
"x. c #55822B",
"c. c #5C822A",
"v. c #578C2A",
"b. c #5B9423",
"n. c #5A9428",
"m. c #4F8338",
"M. c #588635",
"N. c #5E9537",
"B. c #638524",
"V. c #638A22",
"C. c #63822A",
"Z. c #688A28",
"A. c #689625",
"S. c #719C2C",
"D. c #658836",
"F. c #699536",
"G. c #6AA827",
"H. c #74A42A",
"J. c #7AC40F",
"K. c #568546",
"L. c #599241",
"P. c #6B8744",
"I. c #1C0983",
"U. c #1D0B8C",
"Y. c #1C0C97",
"T. c #230982",
"R. c #2B0982",
"E. c #250B8C",
"W. c #2C0B8C",
"Q. c #340984",
"!. c #3D0A84",
"~. c #340A8B",
"^. c #3B0A8C",
"/. c #280D98",
"(. c #340C97",
"). c #3B0C93",
"_. c #3C0D9B",
"`. c #31109E",
"'. c #2B3C89",
"]. c #363A8A",
"[. c #292D9D",
"{. c #352D9D",
"}. c #2A3698",
"|. c #363496",
" X c #1B0EA5",
".X c #1C10AA",
"XX c #1E0FB2",
"oX c #1C16B9",
"OX c #290EA5",
"+X c #380EA6",
"@X c #2A11AA",
"#X c #3610A9",
"$X c #390FB2",
"%X c #2B13B4",
"&X c #2718B7",
"*X c #2B14BB",
"=X c #241ABB",
"-X c #3717B7",
";X c #3B12B4",
":X c #1D24AE",
">X c #2927A8",
",X c #3726A8",
"<X c #3229AC",
"1X c #2623B2",
"2X c #450A84",
"3X c #420B8B",
"4X c #4C0C8C",
"5X c #480C98",
"6X c #510E97",
"7X c #560D99",
"8X c #600F9C",
"9X c #483B88",
"0X c #573C88",
"qX c #482D9C",
"wX c #582D9C",
"eX c #483396",
"rX c #593495",
"tX c #683C89",
"yX c #672D9B",
"uX c #6A3596",
"iX c #753497",
"pX c #470EA6",
"aX c #550EA7",
"sX c #4811A8",
"dX c #5812AA",
"fX c #480FB2",
"gX c #570FB2",
"hX c #4815B7",
"jX c #5B12B4",
"kX c #5518B5",
"lX c #5414BC",
"zX c #5B14BB",
"xX c #630FA8",
"cX c #6611AB",
"vX c #6412B4",
"bX c #6810B1",
"nX c #6C15BB",
"mX c #6818B8",
"MX c #7617B9",
"NX c #4826A8",
"BX c #5726A7",
"VX c #4F21B1",
"CX c #6927A7",
"ZX c #7529A9",
"AX c #6D22B0",
"SX c #2C4385",
"DX c #354684",
"FX c #2F4590",
"GX c #454284",
"HX c #5A4383",
"JX c #6B4486",
"KX c #734184",
"LX c #1F15C0",
"PX c #7113C1",
/* pixels */
"u.p.p.u.2.y.y.u.p.p.p.a.u.u.p.p.y.y.<.9.5.5.5.<.,.k.k.k.1.n.v.< > 2 < 1 ; 1 : 3 8 3 ; B.B.7.f.r.8.0.0.0.7.4.h.3.w.w.w.3.3.y.d.u.0.8.8.8.3.a.u.y.u.p.p.5.2.y.a.p.",
"u.p.p.2.2.3.y.p.p.p.a.p.u.u.p.u.t.t.8.<.<.<.>.,.- - k.z.v.v.v.> Y : : W : W Q : ~ 3 7 5 7 A.A.7.w.r.0.0.w.0.3.w.Z.Z.w.3.3.u.d.3.8.8.5.y.p.a.y.y.u.u.u.4.y.a.a.u.",
"u.a.u.8.2.y.p.p.u.p.a.y.y.u.u.y.t.5.,.,.,.l.k.k.,.b.k.x.v.v.- : Y W R W Q L o.o.) ] ) L 0 F.Z.7 6 Z.w.0.0.h.3.w.w.0.0.w.f.y.y.w.8.u.u.u.d.p.3.u.u.u.y.y.p.a.u.y.",
"p.u.y.8.y.a.u.u.u.a.p.y.y.u.u.3.5.<.b.k.k.k.k.<.1.,.k.v.k.x.- : Y W W R R / L L +.o.$.$.} [ [ 8 6 6 6 w.0.0.6 6 w.0.w.w.0.0.3.3.u.u.y.p.a.u.3.y.y.y.y.u.p.p.y.y.",
"a.y.3.u.a.a.y.y.a.a.t.t.y.y.i.5.<.,.k.,.k.,.1.i.1.k.k.k.k.m.> Y R L R / / R L L +.#.0X#.&.$.%.{ ] ' 6 6 D.w.6 w.0.3.6 w.w.0.0.h.s.t.u.p.p.2.2.3.y.y.u.u.u.u.3.3.",
"u.y.u.a.a.2.3.u.a.p.2.2.t.2.2.<.<.,.v.k.b.1.1.1.- > , > > > Y T J K J X.o.L ) +.@.#.0XtXuXuXuXtX=.I | [ [ 6 Z.S.w.6 0.w.w.w.f.0.i.i.h.u.u.8.2.2.2.y.y.u.p.y.5.3.",
"y.p.p.p.y.8.y.p.a.u.4.2.2.5.4.>.>.k.k.k.k.n.m., T T U T U U V J J / J / / ;.o.o.#.0XHXuXCXCXAXCXiX&.=.I I | 6 S.6 6 w.w.S.r.w.H.r.0.i.i.3.8.4.4.3.y.t.u.p.4.8.y.",
"y.p.u.p.4.8.u.p.p.t.<.4.<.<.<.z.k.k., m.m., U U T T U T U T V T J J / Y R / L o.o.o.#.HX0XCXmXMXMXZXiXiX=.I | 9 6 6 Z.Z.w.w.w.w.w.w.0.i.4.6.8.8.2.2.u.a.3.8.4.p.",
"u.y.u.y.<.5.p.u.p.5.8.<.<.,.l.< , x.> m.m.> U T ^ V T T T J K K K K J J J L / o.o.o.+.#.JXrXAXnXMXMXMXiXiXKXI I I 9 6 w.Z.w.w.S.7.7.7.0.7.7.<.8.4.2.a.p.8.4.y.a.",
"y.y.y.5.9.t.u.p.t.<.,.,.k.k.- k.,., m.m.m.U V V V V V ..V F F F A K  . . .X.O.o.O.O.$.#.#.tXyXmXMXMXMXMXMXZXiXKX=.| 9 6 6 S.w.Z.6 7.7.w.6.5 7.7.4.p.a.y.8.3.a.d.",
"2.2.2.4.4.u.p.u.5.,.k.x.x.x.k.1.v.- M.m., U T V V F D D D ].].].].].F 9XGXGXGXGX@.#.#.#.HXtXyXmXMXMXMXMXMXMXMXZXKX=.I ] 6 S.S.6 7.7.7.7.5 ; 6.7.y.a.p.0.4.u.p.p.",
"4.4.4.8.5.p.s.i.<.k.x.c.x.,.1.b.k.v.m., T V V A D D D D '.|.{.>X<X%X-X$XhX<XNXhXqX@.#.#.HXrXyXAXMXMXMXMXMXMXMXMXMXKX=.I | 6 6 6 5 5 7.5 7 7 ; 8.s.p.y.8.3.u.p.p.",
"8.8.8.8.y.a.i.4.,.k.x.,.1.1.n.v.< , , ! V V A Z D F Z Z F ].].|.{.,X,X;X,XhXhXhXsXwX0X0XrXrXrXAXcX8XbXcX8XMXMXMXMXZXZX&.=.| [ 9 7 5 5 5 0 1 c.9.s.i.5.8.y.u.p.y.",
"8.8.8.2.s.i.<.4.,.k.<.g.1.n.n., , , ! V Z Z Z Z Z Z Z Z G DXFX].|.].].|.NX,X-XhXhXkXNXrXBXBXBXAXMX8X8X8X8X8XcXMXMXMXMXiXKXI { ] 3 7 5 5 3 3 B.e.f.i.8.8.u.u.u.y.",
"8.8.5.u.s.i.<.8.,.1.1.b.n.n.M.> ! R ..Z Z Z @.F Z Z Z Z G |.|.|.{.|.|.{.,XhX-XhXhXhXNXNXBXBXAXmXPXbX8X8X8X7XcXbXMXMXMXCXiXtX$.{ ' 8 5 1 3 1 V.A.e.4.,.4.y.y.u.2.",
"8.w.y.s.u.4.8.<.<.1.b.b.n.n., E ^ K S A X.G F F F D ].].{.&X&X&X%X-X-X,X,X-X-XhX;XhXkXkXkXzXzXzXvXbXxXMXxX8X8XxXMXMXMXMXZXyXtX$.{ Q 8 1 8 1 V.V.q.8.B.4.3.y.y.4.",
"8.3.u.s.i.<.,.,.z.V.1.A.v.m.R R / ..S G @.DX{.{.>X>X&X&X&X*X&XOX@X@X@X-X-X;X-XfX_.+XhXhXkXlXlXzXnXvXvXvXbXaX7X8XbXbXAXmXCXyXyX0X%.L 8 3 5 5 B.V.V.B.l.5.2.2.3.4.",
"8.u.s.s.5.,.l.,.,.6.z.M.~ ` / / ..X. .G DX{.<X|.|.,X-X=X-X*X&XOX/./.E.E./.OX#X#X+X(.).pXsXgXfXgXlXjXvXjXvXgX7X4XbXnXCXAXAXwXwXyX#.L W 0 8 ; l.B.6.c.; 8.4.2.2.4.",
"y.p.u.i.8.c.l.,.l.k.M.~ 4 W / o.X.X.X. .GX{.,X<X%X&X@X&X&X%XOXOXE.l k m m m W.`.(.(._._.pXsXpXaXaXaXgXzXbXvXaX4XaXvXmXCXmXCXrXyX0X{ ' L Q 1 ; ; l.; ; ,.<.4.4.8.",
"t.i.i.i.; ; ; l.; M.D.1 4 ` / ( ( -.O.@.GX,X<X*X%XOXOX/.@XOXE.l h h n n n x T.R.~.~._.).)._.pX5X3X5X5XaXgXgXaX5X7XgXvXmXzXBXrX0XrX+.L L L 3 ; ; ; c.; l.<.8.4.8.",
"y.y.5.q.; ; ; 1 4 F.M.4 ~ ` ` ( X.O.GXGX,X-X-X-X%XOXOXOX/./.E.k h k m T.n x m R.M M ~.Q.^.^.^.!.N ^.3X5XaXgXgX5X4XdXzXzXzXkX0XHX0X0XO.L L Q ; < < ; ; ; ,.6.4.s.",
"i.5.9.6.; ; 1 ~ F.D.4 ~ [ ` ) O.GXGXeX,XNX,X-X-X@X#X`.`./././.T.T.m m m T.m T.R.m R.M b b M b v v ^.^.5X5XfXgX5X3XpXlXlXlXkXHX#.0XeX@.o.R Q < 1 2 ; ; ; ,.5.s.i.",
"5.5.q.l.C.1 3 D.F.7 [ ~ ` ) HXGXeXqXNXqXqX{.,X-X#X@X`.@XOXE.E.m k n h k n n n m n m M b d d d d v N ).^.5XpXgXpX^.5XsXlXlXVXeXHX@.rX9X .L Q 2 1 : 4 ; ; 8.i.i.4.",
"5.8.6.C.4 1 P.F.[ ~ ` ) O.0XqXwXeXeXeXGXeXNXhX-X`./.E.E.E.T.m l n h k p p g x x x x x c u t d s b N ~.^.^.+XpXpX^.).pXlXhXhXBXGX9X9X6X@.o.R 2 2 : 2 ; ,.q.9.5.z.",
"4.7.,.; 1 D.F.P.] ~ ) ;.0XBXGX9X0X9XeXeXhX-X;X`.W.W.R.m n k h f h f g p r r p f f p z d u u z d z c N Q.^.^.)._.Q.^._.hXfXhXNXeX9X@.,X9XJ R Q 2 : 2 - ,.1.5.8.l.",
"8.6.B.3 7 F.P.[ ) ) P #.rXGX#.HXeXqXVXhXhX+X(.W.W.W.W.T.m n f u r w y y r r r r i u r r u p p d t d b M Q.M Q.~.b M (.+X+X;X;XqX9X9XqX9X) J J W Y 2 ; ,.,.8.l.V.",
"7.; ; 1 F.F.P.] L L #.0X0XHX#.0XNXhXhXsX~.~.R.R.W.W.W.T.m x g u r = w & = r r r r t = = r u d d u t p b b b b M c M ~.(.+X$X-XNX].GXqX]...J J R R Y ; ,.l.,.c.l.",
",.; 1 0 F.F.P.Q L $.0X0XHXHX0XBXkXhXsX).Q.Q.~.W.R.R.m x f p r r w & w w & % % = r r # % = t y u u * t z b x b x x R.(.W./.+X*X,X9XGX{.eX .K ../ / R ; - - l.l.c.",
"; 1 1 D.F.F.[ ) L &.rXHX#.HXBXVXlXsX_.).Q.~.Q.b x x f t r u r & w w & q % % % % & w # # * w w r t w t p n x x z z n /.W./.(.%X#XGX].{.].F K ..K J R 2 1 - k.c.l.",
"1 7 1 F.F.D.] L #.wXrXJXHXrXkXlXhXsX).^.).~.M z p u u r y r w r w w % % # # # # # # # # O % * = r = = p z x x f y n W.T.T./.*X<X].|.{.].@. .Z K J T > 2 - x.n.c.",
"1 7 C.F.F.P.{ %.0XwXtX0XrXkXlXlXkXsX).).~.b d u u p p u r w & & = q & % # @ + + # + @ # X # % % w # % r p h h f r j E.E.I./.%X,X].>X{.D F Z Z ..T T : > M.F.c.; ",
"1 ; D.F.D.| ) #.yXrXrXwXkXzXlXlXhX5X~.Q.M z d z c x f u u = * # @ # % # @ + X X o o o O X # # # # O % r p f h f u h l U.I./.%X<X{.>X`.].F Z F V K J Y 2 A.M.- - ",
"1 1 D.D.[ ] L #.wXuXCXzXlXlXlXgX5X).N b c c c c x z f p r = & % # o o @ + o X X X o X X X @ @ @ # + & y i i g i i g I.I.I.OX&X>X:X:X>X'.D F Z A A C K.N.M.- - - ",
"1 D.D.M.~ ) #.rXwXwXVXkXlXlXlXpX).~.Q.Q.M b n c x z u u r & % # # X X o X X . X X X X X o O @ o X @ & w y y y y y j U.U.U.Y.XX&X:XoX>X'.'.F A Z A T L.M., < < - ",
"; D.D.[ [ ) #.wXBXVXBXBXlXlXpX).^._._.).M b c n x p e w & % # + o X X o X .   . . . . X X X X X X # & & q y y r i l U.U.U.Y..XoXoXoX:X}.'.D Z D S _ L.! < < < < ",
"1 c.M.D.~ L 0XwXBXkXVXkXlXfX3X^._.sX+X_.M b n c z r % # O o . X . . . . X .   . . . . . X X o X X # # & q q r r i j U.U.U.Y. XXXoXoX.X:X>X'.F F G _ K.! > > > - ",
"z.c.1 3 ~ o.0XwXkXkXVXlXfXpX~.+XhXfX+X(.W.R.M p r w $ @ @ @ + X X X X . . . . .   . . . X X X . X # % # & & y y g l I.I.I.Y. XXX.XoX:X}.}.SXD G G _ ! U > ! ! - ",
"; ; 1 4 Q o.HXNXlXkXhXhX_.!._.fX;X#X`.~.M M n r = w r w & @ + + X X X . .             . . . X X X + @ @ & q q r g l l j U. X X X X.X:X:X}.SXG SXG _ E E Y Y U x.",
"1 1 4 4 2 ;.eXVXhXhXhXfX).(.$X$X$X+X~.(.E.m f r w r r % # # + o o X X . .             . . . X X X o @ q q w q y i g j l  X X X X XoX:X:X'.D G G S ( E E E E > <.",
"c.c.< 1 ~ o.eXhXhXfX$X_.~.+XhX;X+X(.~./.R.x f r p y r & & # + o X X .                 . . . X o + @ & q q q w i i g g I.Y.Y.Y.Y. XoX:X:XD D H H G H C ^ E U - 9.",
"< x.; v.~  .qXhXfX;X+X(.(.$X;X;X+XW.W.E.x h p p i y q & # + o X X X .                   . . . o + @ % % & & & r y i j I.Y.Y.Y. XoXoXoX[.D A C G D C C E U , b.1.",
"l.,.1.N.R @.NX-X;X;X+X(.$X;X$X;X#X/.E.T.x f y f i i y % + + + o X X . . .             .   . . X + # # & q w & q y j l I.I.U.Y..XoXoXoX}.G H H D D A C U U m.1.1.",
"e.1.b.M.R @.,X-X$X%X+X/.#X%X$X;X@X/.T.k g y i f i y q & # # @ + X o . . . .           . . X . X o @ # % w w q y g j j l l l Y..XoXoX:X'.G C G D D C E U , m.1.k.",
"<.1.b.< ^ @.{.-X$X%XOX`.OX%X%X*X%X/./.E.k g y r y r q % @ # # + + . X X   . .     . . . . X X X O @ % % % % r f g j l I.g g Y. X.XoX:XSXD G D SXC E E U m.n.<.1.",
"9.1.b.> K @.{.*X*X%X%XOX@X*X*X-X&X&X@X/.I.j y i i y q q q q # @ X X . . . .   . . . . . X o O X + # % % w r r r p h l m g j Y.Y..XoX>X'.SXSXD D C E E ! , b.<.1.",
"f.1.1.> K F |.*X*X@X%XOX%X*X*X&X*X@X@XY.U.l g l g y y q r q % @ + X X X X X . . X . . . X X O @ # % % = e e r u h m T.l l j U. XoX:XFX'.'.'.SXG ! E U U , 1.1.1.",
"1.1.z.U J F {.*X*X&X&X*X*X&X*X&X&X&X@X XY.I.l j g g i y r & # # @ + + o o X . X X . X X X O O @ % = e r r y f h m m m n n l Y.oXoX}.'.'.:X:XD A C U E ! m.1.b.b.",
"i.<.,.Y ^ F [.1X*X&XLXLX>X>X1X=X=XXX.X XY.U.l I.l g g y q q % % # @ @ @ o X X X o X o o X O @ # $ = r u p d x b m m h n m E.@X&X[.'.'.}.:X'.G C T C E , v.v.b.n.",
"1.1.,.U T A |.1X=X=X1X1X}.[.1X1X1X=XoXY.Y.Y.l l l g g i r q & % % % # # O X X X X X O @ @ X O $ # $ e u p z b M W.m j x E.OX-X-X|.].}.@X>XD C E C T > , v.v.n.b.",
"5.<.k.U T A '.1XoX=X>XFX}.}.[.[.>X1XXXY.Y.Y.I.l l l g i r r % q = % = % O @ @ X X X $ @ $ $ $ $ * * = u z c b m M R.W.W.#X%X-X<X{.|.1X<XD H C T T U , m.x.v.n.b.",
"<.<.k.U E S FX1XoX1XFXFX'.FXFXFX[.1XXXY.Y.Y.I.I.I.j g y r w * w = & w = O $ $ @ X O $ @ $ = = = e e t d z c M M M W.(.+X-X-X-X-X<X1X&X}.S ( C T U ! , , m.v.n.>.",
"4.<.k.> U C SX:X1X}.DXSXSXDXFX|.1XLXXX X.X XU.k l l l i i i w r = w w e # $ * * $ O $ $ = = e t u u u d c M M Q.Q.(.(.+X#X;X-X*X-X-X,XF -.^ U Y _ E > > v.m.v.v.",
"4.>.k.> Y ( DX[.:XFXDXD F G DX}.1XoXoXXX&X XI.g g I.T.g f g w & w w w e $ = = = * $ O $ a e a u d d s t d c M ~._.(.(.+X+X-XhX-X-X-X].X.( ^ ! ! C > U > m.M.k.k.",
"<.>.k.< ! E G '.FXFXDXF F G DX}.oXoXLX=XXX.XU.j j I.l x k x u r u r = e = e e a a e $ $ e e a s d d d s d N Q.(._._._.;XhX-XNX-X-X|. .-.^ R E ( E E E , m.v.,.k.",
"<.,.k.- , E S FXFXFXD Z G G DX}.LXLX=X=X=X%X/.l j l m m x n x u d p t u y t t s s a a = e = = a s d a d v Q.~._.+XsX-XhXNXNXNX<XeXGXX.( K ( K K E T U > m.v.,.>.",
">.>.z.x.< T -.G D FXD Z S H DXFX1X=X1X&X&X*XOXI.j g k T.m M x d x c d a a t s s z s c s s a a s v v v d v ).5XpXfXfXhXVXNXeXeXeX@.O.( X.....K J ^ T ! ! v.v.k.>.",
">.<.<.l., E _ S G G D A S -.G G >X=X>X>X<X@X%XE.T.n f M R.W.M c b M v z a t s v s v v v v v N v N N N v N 5XpXpXfXhXlXNXNXHXeXGXO.X.X.X.....K K K ^ U M.b.>.,.,.",
"5.5.<.z.x.K._ H S G G G H -.-.X.|.&X1X|.|.<X-X`./.W.M m ~.~.Q.M N Q.M v v a s z v v v v v N !.N !.3X!.^.!.3XpXfXhXlXhXBXNXGX9XO.O.X.X.o.@.@.Z ....^ m.n.,.<.6.6.",
"u.,.,.z.x.M.K.-.S Z -.-.-.-.-.-.DX,X-X|.DX{.-X#X`.#X(.~._._.(.).N Q.).^.N v s s s v v B N N 2X2X3X3X4X3X^.5XfXlXlXlXkXNXrXeXeXGX@.O.@.@.].@.Z  ...2 n.1.<.<.>.6.",
"<.1.,.,.v.F.M._ H -._ -.-._ _ -.Z |.<X|.9X].-X-X#XhXhX#X)._.pXpX!.!.^.3X2XB v s a s v v N B 3X5X5X5X5X3XpXgXgXlXlXlXkXBXrXeXeXHX@.@.9XeX9X9X@. .Y v.b.<.5.<.<.i.",
"8.8.,.,.b.N.M.~ -.K.` ^ -._ _ -...DX-X{.eXDXeX-X-XhXhX;X5XpX5X5X5X3X3X3X3X3X2XN v v v v 2X4XaXaXdXdXaXaXaXlXzXlXkXlXlXlXkXkXqXeX9XeXNXqX9X9X ./ M.b.q.4.4.4.t.p.",
"8.6.6.,.g.b.N.m.K.K._ ( X.-._ K ..@.|.,X|.eXGXNXVXhXhXhXpXpXpXsXsX6X5X3XB 2X4X4X4X2XB B B 4XaXdXvXdXgXgXjXjXjXaXdXdXsXhXlXlXVXBXVXVXNXqX9X .L 2 N.e.4.4.4.i.u.p.",
"8.8.q.,.1.A.N.F.K.K.R E / X./ / -.-.GX|.eX9XGXHXeXVXlXkXsXsXaXdXdXkXgXaX4X4X2X2X6X6X4XB B 4X7XaXjXjXgXgXzXjXgXgXaX5XaXgXlXlXlXlXkXVXBX9X .) 4 v.e.9.<.8.3.y.u.u.",
"8.8.8.4.g.e.A.G.L._ R E R / ( ` ` ( O.GX9XGX@.@.O.rXVXVXkXaXkXzXkXmXAXmXjX7X4X4X4X4X7X7X6X6X4X4X4X6X7X7XaX6XaX7X5XaXaXdXfXgXlXlXkXwX9Xo./ W c.1.f.4.<.<.3.t.y.y.",
"8.5.y.3.9.e.g.G.F.` R Y Y ~ K.` Q R ( O.9X@.O.o.+.#.wXBXBXkXzXmXmXCXwXCXmXmXdXdX8XaXdXcXkXdXdXaX7X7X4X4X4X4X6X4X7XaXgXlXzXzXzXBXHXHXo.Q : c.A.e.i.,.6.4.2.2.y.4.",
"2.p.u.8.9.r.j.G.n.> Y ! K.F.K.R Q Q ` ) #.GXO.L +.+.#.BXyXyXBXmXzXCXuXuXyXAXmXmXmXcXcXmXPXPXAXnXvXvXbXdXdXxXdXdXgXzXjXvXvXkXBXHXO.;.Q 4 C.z.q.i.5.6.,.8.4.2.t.8.",
"a.y.4.3.q.g.j.G.F.< ! M.F.L.~ Y W ` W R X.O.O.+.+.+.+.0XwXCXCXyXCXCXCXyXJXJXCXmXMXmXnXmXPXPXPXnXnXnXmXvXvXvXbXvXvXvXvXvXBXrX*.+.) ~ 0 M.; 9.5.i.8.,.6.g.f.5.5.8.",
"p.4.y.3.e.j.j.j.F.c.M.N.N.M.3 2 Y W Q Q ) +.O.#.+.O.+.*.JXrXyXHXJXJXuXiXuXJXJXuXuXZXCXAXAXAXMXnXAXCXCXMXnXPXnXnXzXvXAXyXuX*.:.) [ D.Z.c.6.9.9.5.8.A.h.f.8.8.8.5.",
"2.u.u.8.f.h.h.h.z.A.N.N.M.4 < ; < W W W Q ) +.+.+.O.#.%.+.&.#.&.*.&.&.uXiXiXtXtX&.tXtXuXiXiXAXPXnXAXMXAXPXnXnXmXmXCXtX#.*.P.| 0 Z.A.6.B.4.4.5.9.h.j.h.8.8.8.5.u.",
"y.p.5.8.h.h.h.g.1.A.A.A.M.3 < l.l.< ~ W ~ Q Q ) L +.*.*.*.#.$.*.%.$.$.&.tX8XiX&.&.&.tXKXJXtXiXyXZXAXZXZXZXAXCXyX0X&.%.{ P.P.; Z.q.8.l.l.8.8.0.j.J.j.w.8.8.8.y.u.",
"a.t.8.8.h.h.h.g.q.e.A.b.c.1 < k.l.l.1 : ~ ~ Q Q Q { } #.*.+.%.*.$.P I %.=.tXyXyXiXtXtXtXJXJXuXyXuXiXZXZXyXuXJX&.%.P } P.P.S.6.7.q.V.B.B.8.0.j.J.j.0.8.8.8.3.y.u.",
"a.8.8.e.g.g.h.g.e.e.e.A.z.c.; ; l.6.,.2 ~ 8 ) Q 4 0 ~ { ) :.} P $.%.} | P %.&.&.iXtXiXtXiXiXiXZXiXuXtXJX&.&.%.+.] ' P.H.H.A.7.7.8.l.B.6.0.j.d.J.f.8.8.8.5.3.y.u.",
"u.8.8.0.f.h.f.i.8.q.q.q.<.8.- 1 k.>.>.b.M.W Q W D.D.3 8 [ } } L L } } | { { { $.$.$.=.&.*.=.&.&.*.%.%.:.P P ] 9 1 6 S.H.H.V.7.7.7.l.B.6.f.j.d.j.8.8.0.8.4.y.p.y.",
"2.8.8.0.u.f.f.0.8.8.8.y.u.,.l.x.1 c.<.9.V.3 Q C.N.D.5 1 1 8 Q P ] ] [ [ { { { { P P P I } } P P :.} | | ] ' 8 5 7 D.H.H.A.C.6.6.6.Z.B.9.h.h.j.h.8.8.8.8.2.p.y.u.",
"4.8.2.u.y.0.0.8.8.8.y.a.4.6.6.l.c.>.g.g.6.1 1 M.v.C.c.C.5 7 8 ~ ' [ [ 8 ' ] ] ] ] P } } } } ] ] ] [ [ ] 9 8 Z.Z.C.S.H.H.Z.5 C.B.B.V.7.f.f.h.h.0.8.8.8.4.p.u.3.p.",
"8.2.a.y.8.0.0.0.3.u.a.y.8.8.6.6.<.g.g.9.6.c.q.v.Z.l.C.; ; 5 8 7 Z.F.0 ' 9 : 8 8 9 0 ' { ] ' 8 8 0 0 0 7 0 B.V.6 Z.S.H.S.C.; B.Z.6.6.8.e.9.f.f.8.8.8.8.u.a.y.y.p.",
"3.a.p.8.8.8.3.y.u.a.p.4.8.8.8.2.u.s.i.1.l.q.9.e.z.; 5 ; ; ; 1 5 A.A.V.7 9 ' ~ 0 C.7 9 ' 8 8 8 8 0 3 6 6 7.w.C.6 F.S.S.S.B.B.6.7.6.8.8.8.8.0.0.8.8.8.y.a.a.y.u.p.",
"a.a.y.8.8.y.u.y.p.a.3.8.8.3.u.p.a.s.u.>.,.8.i.9.8.; 1 ; ; 5 C.8.A.V.6.5 1 7 6 Z.6 8 8 8 8 8 8 8 8 5 B.6 r.w.6 C.S.S.r.A.B.6.7.7.8.8.4.5.8.8.8.8.8.y.a.a.u.y.u.u.",
"p.y.4.4.u.p.3.p.p.p.4.5.u.u.y.a.a.p.i.<.8.5.5.i.8.z.l.; ; ; 8.f.0.6.6.; 5 w.r.A.5 8 8 0 0 0 0 0 6 Z.C.S.S.Z.6 Z.A.r.H.r.7.q.8.8.8.3.3.4.8.8.8.8.y.p.d.a.2.y.u.u.",
"a.2.4.u.d.y.u.u.u.y.3.p.p.u.p.a.a.p.y.<.5.t.t.5.8.6.z.B.l.l.g.g.8.7.6.C.q.w.w.6.5 ; 5 5 7 7 7 1 V.B.7.r.0.7.B.A.r.h.h.r.8.8.8.8.2.u.5.8.8.8.9.y.p.p.a.p.4.y.y.u."
};
