/* XPM */
static char *result[] = {
/* columns rows colors chars-per-pixel */
"80 80 138 2 ",
"   c #000001",
".  c #010702",
"X  c #0F0807",
"o  c #170D07",
"O  c #190E0B",
"+  c #041605",
"@  c #1C1D0B",
"#  c #21130A",
"$  c #22130B",
"%  c #26160B",
"&  c #21120F",
"*  c #251511",
"=  c #291712",
"-  c #371F12",
";  c #311B16",
":  c #05230B",
">  c #05230C",
",  c #05290E",
"<  c #092C09",
"1  c #132F0C",
"2  c #09390F",
"3  c #16370E",
"4  c #333301",
"5  c #282413",
"6  c #352410",
"7  c #101B27",
"8  c #312825",
"9  c #4D2B16",
"0  c #42311B",
"q  c #4A2920",
"w  c #583120",
"e  c #653920",
"r  c #0D420D",
"t  c #0B4011",
"y  c #0A4515",
"u  c #134714",
"i  c #0E5516",
"p  c #0B521C",
"a  c #0C591D",
"s  c #1B5414",
"d  c #2F4213",
"f  c #2F4515",
"g  c #214913",
"h  c #294A1D",
"j  c #1E6316",
"k  c #196419",
"l  c #246E19",
"z  c #2B6D1C",
"x  c #38751F",
"c  c #354525",
"v  c #0F6820",
"b  c #0F6E23",
"n  c #1A6822",
"m  c #1D6D20",
"M  c #107526",
"N  c #107B29",
"B  c #316826",
"V  c #555501",
"C  c #49541C",
"Z  c #424D28",
"A  c #525423",
"S  c #58553B",
"D  c #624524",
"F  c #734120",
"G  c #6D522C",
"H  c #526424",
"J  c #457C23",
"K  c #577825",
"L  c #506837",
"P  c #626223",
"I  c #7F6124",
"U  c #726830",
"Y  c #0B6949",
"T  c #096A5E",
"R  c #315273",
"E  c #474C57",
"W  c #596957",
"Q  c #4D696A",
"!  c #90711D",
"~  c #815229",
"^  c #83542B",
"/  c #946836",
"(  c #80735F",
")  c #8B755B",
"_  c #8E785D",
"`  c #A47B41",
"'  c #A27852",
"]  c #A27854",
"[  c #208929",
"{  c #308320",
"}  c #2B9229",
"|  c #309026",
" . c #3B9926",
".. c #319629",
"X. c #369B29",
"o. c #528326",
"O. c #41A429",
"+. c #A28015",
"@. c #AAAA00",
"#. c #838939",
"$. c #97A62B",
"%. c #9FA02E",
"&. c #ACB026",
"*. c #C2A72B",
"=. c #80C21B",
"-. c #B8CE20",
";. c #C0E10E",
":. c yellow",
">. c #F4E31B",
",. c #E9C837",
"<. c #999C44",
"1. c #AAA944",
"2. c #928E61",
"3. c #818778",
"4. c #8F827C",
"5. c #B48E67",
"6. c #A18E73",
"7. c #AA997E",
"8. c #A5A477",
"9. c #DEAC52",
"0. c #C5A172",
"q. c #C7A47E",
"w. c #0492AE",
"e. c #00BAFF",
"r. c #898B8F",
"t. c #AEAF82",
"y. c #AAAAAA",
"u. c #D0AF89",
"i. c #D5B48B",
"p. c #C3B8B5",
"a. c #AEC0AE",
"s. c #E1C294",
"d. c #ECCFA4",
"f. c #F1D5AC",
"g. c #FFE6BD",
"h. c #BAC5D0",
"j. c white",
"k. c None",
/* pixels */
"k.k.k.k.k.k.k.k.k.k.k.k.k.k.k.k.k.k.k.k.k.k.k.k.k.k.k.k.k.k.k.k.k.k.k.k.k.k.k.k.k.k.k.k.k.k.k.k.k.k.k.k.k.k.k.k.k.k.k.k.k.k.k.k.k.k.k.k.k.k.k.k.k.k.k.k.k.k.k.k.",
"k.k.k.k.k.k.k.k.k.k.k.k.k.k.k.k.k.k.k.k.k.k.k.k.k.k.k.k.k.k.k.k.k.k.k.k.k.k.k.k.k.k.k.k.k.k.k.k.k.k.k.k.k.k.k.k.k.k.k.k.k.k.k.k.k.k.k.k.k.k.k.k.k.k.k.k.k.k.k.k.",
"k.k.k.k.k.k.k.k.k.k.k.k.k.k.k.k.k.k.k.k.k.k.k.k.k.k.k.k.k.k.k.k.k.k.k.k.k.k.k.k.k.k.k.k.k.k.k.k.k.k.k.k.k.k.k.k.k.k.k.k.k.k.k.k.k.k.k.k.k.k.k.k.k.k.k.k.k.k.k.k.",
"k.k.k.k.k.k.k.k.k.k.k.k.k.k.k.k.k.k.k.k.k.k.k.k.k.k.k.k.k.k.k.k.k.k.k.k.k.k.k.k.k.k.k.k.k.k.k.k.k.k.k.k.k.k.k.k.k.k.k.k.k.k.k.k.k.k.k.k.k.k.k.k.k.k.k.k.k.k.k.k.",
"k.k.k.k.k.k.k.k.k.k.k.k.k.k.k.k.k.k.k.k.k.k.k.k.k.k.k.k.k.k.k.k.k.F F F / ` ` ` ` ` ` ` ` ` ` F F F F k.k.k.k.k.k.k.k.k.k.k.k.k.k.k.k.k.k.k.k.k.k.k.k.k.k.k.k.k.",
"k.k.k.k.k.k.k.k.k.k.k.k.k.k.k.k.k.k.k.k.k.k.k.k.k.k.k.k.k.k.k.k.k.F F F / ` ` ` ` ` ` ` ` ` ` F F F F k.k.k.k.k.k.k.k.k.k.k.k.k.k.k.k.k.k.k.k.k.k.k.k.k.k.k.k.k.",
"k.k.k.k.k.k.k.k.k.k.k.k.k.k.k.k.k.k.k.k.k.k.k.k.k.k.k.k.k.k.k.k.k.F F F / ` ` ` ` ` ` ` ` ` ` F F F F k.k.k.k.k.k.k.k.k.k.k.k.k.k.k.k.k.k.k.k.k.k.k.k.k.k.k.k.k.",
"k.k.k.k.k.k.k.k.k.k.k.k.k.k.k.k.k.k.k.k.k.k.k.k.k.k.k.k.k.        9.9.9.>.:.:.:.:.:.:.*.` ` ` ` ` ` *.:.:.:.` ` ` ` k.k.k.k.k.k.k.k.k.k.k.k.k.k.k.k.k.k.k.k.k.k.",
"k.k.k.k.k.k.k.k.k.k.k.k.k.k.k.k.k.k.k.k.k.k.k.k.k.k.k.k.k.        9.9.9.>.:.:.:.:.:.:.*.` ` ` ` ` ` *.:.:.:.` ` ` ` k.k.k.k.k.k.k.k.k.k.k.k.k.k.k.k.k.k.k.k.k.k.",
"k.k.k.k.k.k.k.k.k.k.k.k.k.k.k.k.k.k.k.k.k.k.k.k.k.k.k.k.k.        9.9.9.>.:.:.:.:.:.:.*.` ` ` ` ` ` *.:.:.:.` ` ` ` k.k.k.k.k.k.k.k.k.k.k.k.k.k.k.k.k.k.k.k.k.k.",
"k.k.k.k.k.k.k.k.k.k.k.k.k.k.k.k.k.k.k.k.k.k.k.k.k.k.k.k.k.1 3 3 3 1.1.1.-.;.;.;.;.;.;.$.#.#.#.#.#.#.&.:.:.:.` ` ` ` k.k.k.k.k.k.k.k.k.k.k.k.k.k.k.k.k.k.k.k.k.k.",
"k.k.k.k.k.k.k.k.k.k.k.k.k.k.k.k.k.k.k.k.k.k.k.k.k.k.      z O.O.O.O.O.O.O.O.O.O.O.O.O.O.O.O.O.O.O.O.=.:.:.:.` ` ` ` ` ` ` k.k.k.k.k.k.k.k.k.k.k.k.k.k.k.k.k.k.k.",
"k.k.k.k.k.k.k.k.k.k.k.k.k.k.k.k.k.k.k.k.k.k.k.k.k.k.      z O.O.O.O.O.O.O.O.O.O.O.O.O.O.O.O.O.O.O.O.=.:.:.:.` ` ` ` ` ` ` k.k.k.k.k.k.k.k.k.k.k.k.k.k.k.k.k.k.k.",
"k.k.k.k.k.k.k.k.k.k.k.k.k.k.k.k.k.k.k.k.k.k.k.k.k.k.      z O.O.O.O.O.O.O.O.O.O.O.O.O.O.O.O.O.O.O.O.=.:.:.:.` ` ` ` ` ` ` k.k.k.k.k.k.k.k.k.k.k.k.k.k.k.k.k.k.k.",
"k.k.k.k.k.k.k.k.k.k.k.k.k.k.k.k.k.k.k.k.k.k.      3 O.O.O.j r r r r r r r r r r r r r r r r r r r r j O.O.O.9.9.9.,.:.:.:.+.F F F k.k.k.k.k.k.k.k.k.k.k.k.k.k.k.",
"k.k.k.k.k.k.k.k.k.k.k.k.k.k.k.k.k.k.k.k.k.k.      3 O.O.O.j r r r r r r r r r r r r r r r r r r r r j O.O.O.9.9.9.,.:.:.:.+.F F F k.k.k.k.k.k.k.k.k.k.k.k.k.k.k.",
"k.k.k.k.k.k.k.k.k.k.k.k.k.k.k.k.k.k.k.k.k.k.      3 O.O.O.j r r r r r r r r r r r r r r r r r r r r j O.O.O.9.9.9.,.:.:.:.+.F F F k.k.k.k.k.k.k.k.k.k.k.k.k.k.k.",
"k.k.k.k.k.k.k.k.k.k.k.k.k.k.k.k.k.k.k.k.k.k.> , , u { { { l j j j j j j j j j j j j j j j j j j j j l { { { <.<.<.%.@.@.@.! ^ ^ ^ k.k.k.k.k.k.k.k.k.k.k.k.k.k.k.",
"k.k.k.k.k.k.k.k.k.k.k.k.k.k.k.k.k.k.k.      p N N v r r r { O.O.O.O.O.O.O.O.O.O.O.O.O.O.O.O.O.O.O.O.{ r r r N N N p       G ` ` ` k.k.k.k.k.k.k.k.k.k.k.k.k.k.k.",
"k.k.k.k.k.k.k.k.k.k.k.k.k.k.k.k.k.k.k.      p N N v r r r { O.O.O.O.O.O.O.O.O.O.O.O.O.O.O.O.O.O.O.O.{ r r r N N N p       G ` ` ` k.k.k.k.k.k.k.k.k.k.k.k.k.k.k.",
"k.k.k.k.k.k.k.k.k.k.k.k.k.k.k.k.k.k.k.      p N N v r r r { O.O.O.O.O.O.O.O.O.O.O.O.O.O.O.O.O.O.O.O.{ r r r N N N p       G ` ` ` k.k.k.k.k.k.k.k.k.k.k.k.k.k.k.",
"k.k.k.k.k.k.k.k.k.k.k.k.k.k.k.k.k.k.k.      2 i i k { { {  .O.O.O.O.O.O.O.O.O.O.O.O.O.O.O.O.O.O.O.O. .{ { { i i i 2       0 k.k.k.k.k.k.k.k.k.k.k.k.k.k.k.k.k.k.",
"k.k.k.k.k.k.k.k.k.k.k.k.k.k.k.k.k.k.k.      < r r j O.O.O.O.O.O.O.O.O.O.O.O.O.O.O.O.O.O.O.O.O.O.O.O.O.O.O.O.r r r <       k.k.k.k.k.k.k.k.k.k.k.k.k.k.k.k.k.k.k.",
"k.k.k.k.k.k.k.k.k.k.k.k.k.k.k.k.k.k.k.      < r r j O.O.O.O.O.O.O.O.O.O.O.O.O.O.O.O.O.O.O.O.O.O.O.O.O.O.O.O.r r r <       k.k.k.k.k.k.k.k.k.k.k.k.k.k.k.k.k.k.k.",
"k.k.k.k.k.k.k.k.k.k.k.k.k.k.k.k.k.k.S + + + t i i k { { {  .O.O.O.O.O.O.O.O.O.O.O.O.O.O.O.O.O.O.O.O. .{ { { i i i t + + + S k.k.k.k.k.k.k.k.k.k.k.k.k.k.k.k.k.k.",
"k.k.k.k.k.k.k.k.k.k.k.k.` ` ` i.i.i.2.r r r v N N v r r r { O.O.O.O.O.O.O.O.O.O.O.O.O.O.O.O.O.O.O.O.{ r r r N N N v r r r 2.i.i.0.` ` ` k.k.k.k.k.k.k.k.k.k.k.k.",
"k.k.k.k.k.k.k.k.k.k.k.k.` ` ` i.i.i.2.r r r v N N v r r r { O.O.O.O.O.O.O.O.O.O.O.O.O.O.O.O.O.O.O.O.{ r r r N N N v r r r 2.i.i.0.` ` ` k.k.k.k.k.k.k.k.k.k.k.k.",
"k.k.k.k.k.k.k.k.k.k.k.k.` ` ` i.i.i.2.r r r v N N v r r r { O.O.O.O.O.O.O.O.O.O.O.O.O.O.O.O.O.O.O.O.{ r r r N N N v r r r 2.i.i.0.` ` ` k.k.k.k.k.k.k.k.k.k.k.k.",
"k.k.k.k.k.k.k.k.F F F ' s.s.s.f.f.f.8.r r r v N N M v v v | O.O.O.O.O.O.O.O.O.O.O.O.O.O.O.O.O.O.O.O.| v v v N N N v r r r 8.f.f.d.s.s.s.' F F k.k.k.k.k.k.k.k.k.",
"k.k.k.k.k.k.k.k.F F F ] g.g.g.g.g.g.t.r r r v N N N N N N ..O.O.O.O.O.O.O.O.O.O.O.O.O.O.O.O.O.O.O.O...N N N N N N v r r r t.g.g.g.g.g.g.] F F F k.k.k.k.k.k.k.k.",
"k.k.k.k.k.k.k.k.F F F ] g.g.g.g.g.g.t.r r r v N N N N N N ..O.O.O.O.O.O.O.O.O.O.O.O.O.O.O.O.O.O.O.O...N N N N N N v r r r t.g.g.g.g.g.g.] F F F k.k.k.k.k.k.k.k.",
"k.k.k.k.k.k.k.k.F F F ] g.g.g.g.g.g.t.r r r v N N N N N N ..O.O.O.O.O.O.O.O.O.O.O.O.O.O.O.O.O.O.O.O...N N N N N N v r r r t.g.g.g.g.g.g.] F F F k.k.k.k.k.k.k.k.",
"k.k.k.k.k.k.k.k.k.k.k.k.F F F ` ` ` U r r r v N N v r r r v N N N O.O.O.O.O.O.O.O.O.O.O.O.O.O.N N N v r r r N N N v r r r U ` ` / F F F k.k.k.k.k.k.k.k.k.k.k.k.",
"k.k.k.k.k.k.k.k.k.k.k.k.F F F ` ` ` U r r r v N N v r r r v N N N O.O.O.O.O.O.O.O.O.O.O.O.O.O.N N N v r r r N N N v r r r U ` ` / F F F k.k.k.k.k.k.k.k.k.k.k.k.",
"k.k.k.k.k.k.k.k.k.k.k.k.F F F ` ` ` U r r r v N N v r r r v N N N O.O.O.O.O.O.O.O.O.O.O.O.O.O.N N N v r r r N N N v r r r U ` ` / F F F k.k.k.k.k.k.k.k.k.k.k.k.",
"k.k.k.k.k.k.k.k.k.k.k.k.k.k.k.^ ^ ^ W w.w.w.Y i i t + + + a N N N [ [ [ X.O.O.O.O.O.O.} [ [ [ N N N a + + + i i i Y w.w.w.W ^ ^ ~ k.k.k.k.k.k.k.k.k.k.k.k.k.k.k.",
"k.k.k.k.k.k.k.k.k.k.k.k.k.k.k.F F F Q e.e.e.T r r <       p N N N N N N ..O.O.O.O.O.O.[ N N N N N N p       r r r T e.e.e.Q F F F k.k.k.k.k.k.k.k.k.k.k.k.k.k.k.",
"k.k.k.k.k.k.k.k.k.k.k.k.k.k.k.F F F Q e.e.e.T r r <       p N N N N N N ..O.O.O.O.O.O.[ N N N N N N p       r r r T e.e.e.Q F F F k.k.k.k.k.k.k.k.k.k.k.k.k.k.k.",
"k.k.k.k.k.k.k.k.k.k.k.k.k.k.k.F F F Q e.e.e.T r r <       p N N N N N N ..O.O.O.O.O.O.[ N N N N N N p       r r r T e.e.e.Q F F F k.k.k.k.k.k.k.k.k.k.k.k.k.k.k.",
"k.k.k.k.k.k.k.k.k.k.k.k.k.k.k.      V :.:.:.+.F F 9       p N N N N N N N N N N N N N N N N N N N N p       F F F +.:.:.:.V       k.k.k.k.k.k.k.k.k.k.k.k.k.k.k.",
"k.k.k.k.k.k.k.k.k.k.k.k.k.k.k.      V :.:.:.+.F F 9       p N N N N N N N N N N N N N N N N N N N N p       F F F +.:.:.:.V       k.k.k.k.k.k.k.k.k.k.k.k.k.k.k.",
"k.k.k.k.k.k.k.k.k.k.k.k.k.k.k.      V :.:.:.+.F F 9       p N N N N N N N N N N N N N N N N N N N N p       F F F +.:.:.:.V       k.k.k.k.k.k.k.k.k.k.k.k.k.k.k.",
"k.k.k.k.k.k.k.k.k.k.k.k.k.k.k.k.k.k.4 V V V I / / D       2 i i i N N N N N N N N N N N N N N i i i 2       / / / I V V V 4 k.k.k.k.k.k.k.k.k.k.k.k.k.k.k.k.k.k.",
"k.k.k.k.k.k.k.k.k.k.k.k.k.k.k.k.k.k.k.      G ` ` G       < r r r N N N N N N N N N N N N N N r r r <       ` ` ` G       k.k.k.k.k.k.k.k.k.k.k.k.k.k.k.k.k.k.k.",
"k.k.k.k.k.k.k.k.k.k.k.k.k.k.k.k.k.k.k.      G ` ` G       < r r r N N N N N N N N N N N N N N r r r <       ` ` ` G       k.k.k.k.k.k.k.k.k.k.k.k.k.k.k.k.k.k.k.",
"k.k.k.k.k.k.k.k.k.k.k.k.k.k.k.k.k.k.k.      G ` ` G       < r r r N N N N N N N N N N N N N N r r r <       ` ` ` G       k.k.k.k.k.k.k.k.k.k.k.k.k.k.k.k.k.k.k.",
"k.k.k.k.k.k.k.k.k.k.k.k.k.k.k.k.k.k.k.k.k.k.                      N N N N N N N N N N N N N N                       k.k.k.k.k.k.k.k.k.k.k.k.k.k.k.k.k.k.k.k.k.k.",
"k.k.k.k.k.k.k.k.k.k.k.k.k.k.k.k.k.k.k.k.k.k.                      N N N N N N N N N N N N N N                       k.k.k.k.k.k.k.k.k.k.k.k.k.k.k.k.k.k.k.k.k.k.",
"k.k.k.k.k.k.k.k.k.k.k.k.k.k.k.k.k.k.k.k.k.k.                      N N N N N N N N N N N N N N                       k.k.k.k.k.k.k.k.k.k.k.k.k.k.k.k.k.k.k.k.k.k.",
"k.k.k.k.k.k.k.k.k.k.k.k.k.k.k.k.k.k.k.k.k.k.> , , : + + + .       v v v M N N N N N N b v v v       . + + + , , , > k.k.k.k.k.k.k.k.k.k.k.k.k.k.k.k.k.k.k.k.k.k.",
"k.k.k.k.k.k.k.k.k.k.k.k.k.k.k.k.k.k.k.      p N N v r r r +       r r r v N N N N N N i r r r       + r r r N N N p       k.k.k.k.k.k.k.k.k.k.k.k.k.k.k.k.k.k.k.",
"k.k.k.k.k.k.k.k.k.k.k.k.k.k.k.k.k.k.k.      p N N v r r r +       r r r v N N N N N N i r r r       + r r r N N N p       k.k.k.k.k.k.k.k.k.k.k.k.k.k.k.k.k.k.k.",
"k.k.k.k.k.k.k.k.k.k.k.k.k.k.k.k.k.k.k.      p N N v r r r +       r r r v N N N N N N i r r r       + r r r N N N p       k.k.k.k.k.k.k.k.k.k.k.k.k.k.k.k.k.k.k.",
"k.k.k.k.k.k.k.k.k.k.k.k.k.k.k.      O q q q p.j.j.a.r r r v N N N       p N N N N N N ,       N N N v r r r j.j.j.h.R R R 7       k.k.k.k.k.k.k.k.k.k.k.k.k.k.k.",
"k.k.k.k.k.k.k.k.k.k.k.k.k.k.k.      O q q q p.j.j.a.r r r v N N N       p N N N N N N ,       N N N v r r r j.j.j.h.R R R 7       k.k.k.k.k.k.k.k.k.k.k.k.k.k.k.",
"k.k.k.k.k.k.k.k.k.k.k.k.k.k.k.      O q q q p.j.j.a.r r r v N N N       p N N N N N N ,       N N N v r r r j.j.j.h.R R R 7       k.k.k.k.k.k.k.k.k.k.k.k.k.k.k.",
"k.k.k.k.k.k.k.k.k.k.k.k.k.k.k.% % % - w w w 4.y.y.3.d d d n N N N       y v v v v v v :       N N N n d d d y.y.y.r.E E E 8 % % # k.k.k.k.k.k.k.k.k.k.k.k.k.k.k.",
"k.k.k.k.k.k.k.k.k.k.k.k.      F F F F F F F %     % F F F B N N N       < r r r r r r +       N N N B F F F       % F F F F F F 9       k.k.k.k.k.k.k.k.k.k.k.k.",
"k.k.k.k.k.k.k.k.k.k.k.k.      F F F F F F F %     % F F F B N N N       < r r r r r r +       N N N B F F F       % F F F F F F 9       k.k.k.k.k.k.k.k.k.k.k.k.",
"k.k.k.k.k.k.k.k.k.k.k.k.      F F F F F F F %     % F F F B N N N       < r r r r r r +       N N N B F F F       % F F F F F F 9       k.k.k.k.k.k.k.k.k.k.k.k.",
"k.k.k.k.k.k.k.k.k.k.k.k.      u.u.u.q.5.5.5.Z < < g o.o.o.H A A A 9 9 9 @ + + + + + + 6 9 9 9 A A A H o.o.o.< < < Z 5.5.5.q.u.u.)       k.k.k.k.k.k.k.k.k.k.k.k.",
"k.k.k.k.k.k.k.k.k.k.k.k.      g.g.g.f.i.i.i.L r r j O.O.O.P F F F F F F %             9 F F F F F F P O.O.O.r r r L i.i.i.f.g.g.7.      k.k.k.k.k.k.k.k.k.k.k.k.",
"k.k.k.k.k.k.k.k.k.k.k.k.      g.g.g.f.i.i.i.L r r j O.O.O.P F F F F F F %             9 F F F F F F P O.O.O.r r r L i.i.i.f.g.g.7.      k.k.k.k.k.k.k.k.k.k.k.k.",
"k.k.k.k.k.k.k.k.k.k.k.k.      7.7.7.6._ _ _ c < < s O.O.O.K P P P P P P f 3 3 3 3 3 3 C P P P P P P K O.O.O.< < < c _ _ _ 6.7.7.(       k.k.k.k.k.k.k.k.k.k.k.k.",
"k.k.k.k.k.k.k.k.k.k.k.k.k.k.k.                    3 O.O.O.O.O.O.O.O.O.O.O.O.O.O.O.O.O.O.O.O.O.O.O.O.O.O.O.O.                      k.k.k.k.k.k.k.k.k.k.k.k.k.k.k.",
"k.k.k.k.k.k.k.k.k.k.k.k.k.k.k.                    3 O.O.O.O.O.O.O.O.O.O.O.O.O.O.O.O.O.O.O.O.O.O.O.O.O.O.O.O.                      k.k.k.k.k.k.k.k.k.k.k.k.k.k.k.",
"k.k.k.k.k.k.k.k.k.k.k.k.k.k.k.                    3 O.O.O.O.O.O.O.O.O.O.O.O.O.O.O.O.O.O.O.O.O.O.O.O.O.O.O.O.                      k.k.k.k.k.k.k.k.k.k.k.k.k.k.k.",
"k.k.k.k.k.k.k.k.k.k.k.k.k.k.k.k.k.k.        & ; ; 5 3 3 3 m [ [ [ O.O.O.O.O.O.O.O.O.O.O.O.O.O.[ [ [ m 3 3 3 ; ; ; &         k.k.k.k.k.k.k.k.k.k.k.k.k.k.k.k.k.k.",
"k.k.k.k.k.k.k.k.k.k.k.k.k.k.k.k.k.k.k.      ; q q ;       p N N N O.O.O.O.O.O.O.O.O.O.O.O.O.O.N N N p       q q q ;       k.k.k.k.k.k.k.k.k.k.k.k.k.k.k.k.k.k.k.",
"k.k.k.k.k.k.k.k.k.k.k.k.k.k.k.k.k.k.k.      ; q q ;       p N N N O.O.O.O.O.O.O.O.O.O.O.O.O.O.N N N p       q q q ;       k.k.k.k.k.k.k.k.k.k.k.k.k.k.k.k.k.k.k.",
"k.k.k.k.k.k.k.k.k.k.k.k.k.k.k.k.k.k.k.      * ; ; = O O O h B B B o.o.o.x z z z z z z J o.o.o.B B B h O O O ; ; ; *       k.k.k.k.k.k.k.k.k.k.k.k.k.k.k.k.k.k.k.",
"k.k.k.k.k.k.k.k.k.k.k.k.k.k.k.k.k.k.k.k.k.k.      O q q q e F F F F F F %             9 F F F F F F e q q q         k.k.k.k.k.k.k.k.k.k.k.k.k.k.k.k.k.k.k.k.k.k.",
"k.k.k.k.k.k.k.k.k.k.k.k.k.k.k.k.k.k.k.k.k.k.      O q q q e F F F F F F %             9 F F F F F F e q q q         k.k.k.k.k.k.k.k.k.k.k.k.k.k.k.k.k.k.k.k.k.k.",
"k.k.k.k.k.k.k.k.k.k.k.k.k.k.k.k.k.k.k.k.k.k.      O q q q e F F F F F F %             9 F F F F F F e q q q         k.k.k.k.k.k.k.k.k.k.k.k.k.k.k.k.k.k.k.k.k.k.",
"k.k.k.k.k.k.k.k.k.k.k.k.k.k.k.k.k.k.k.k.k.k.k.k.k.X O O O $ % % % % % % o k.k.k.k.k.k.# % % % % % % $ O O O k.k.k.k.k.k.k.k.k.k.k.k.k.k.k.k.k.k.k.k.k.k.k.k.k.k.",
"k.k.k.k.k.k.k.k.k.k.k.k.k.k.k.k.k.k.k.k.k.k.k.k.k.k.                    k.k.k.k.k.k.k.                      k.k.k.k.k.k.k.k.k.k.k.k.k.k.k.k.k.k.k.k.k.k.k.k.k.k.",
"k.k.k.k.k.k.k.k.k.k.k.k.k.k.k.k.k.k.k.k.k.k.k.k.k.k.                    k.k.k.k.k.k.k.                      k.k.k.k.k.k.k.k.k.k.k.k.k.k.k.k.k.k.k.k.k.k.k.k.k.k.",
"k.k.k.k.k.k.k.k.k.k.k.k.k.k.k.k.k.k.k.k.k.k.k.k.k.k.                    k.k.k.k.k.k.k.                      k.k.k.k.k.k.k.k.k.k.k.k.k.k.k.k.k.k.k.k.k.k.k.k.k.k.",
"k.k.k.k.k.k.k.k.k.k.k.k.k.k.k.k.k.k.k.k.k.k.k.k.k.k.k.k.k.k.k.k.k.k.k.k.k.k.k.k.k.k.k.k.k.k.k.k.k.k.k.k.k.k.k.k.k.k.k.k.k.k.k.k.k.k.k.k.k.k.k.k.k.k.k.k.k.k.k.k.",
"k.k.k.k.k.k.k.k.k.k.k.k.k.k.k.k.k.k.k.k.k.k.k.k.k.k.k.k.k.k.k.k.k.k.k.k.k.k.k.k.k.k.k.k.k.k.k.k.k.k.k.k.k.k.k.k.k.k.k.k.k.k.k.k.k.k.k.k.k.k.k.k.k.k.k.k.k.k.k.k."
};
