/* XPM */
static char *result[] = {
/* columns rows colors chars-per-pixel */
"80 80 202 2 ",
"   c #2F1206",
".  c #2F1207",
"X  c #301206",
"o  c #341507",
"O  c #361609",
"+  c #3A1708",
"@  c #3B1708",
"#  c #3B1808",
"$  c #3B1809",
"%  c #3B1909",
"&  c #3A190A",
"*  c #3C1809",
"=  c #3C1909",
"-  c #3D1A09",
";  c #3D1A0A",
":  c #3E1A0A",
">  c #3F1A0A",
",  c #3E1B0A",
"<  c #3F1B0A",
"1  c #3F1B0B",
"2  c #2E1D14",
"3  c #341D11",
"4  c #351E12",
"5  c #372014",
"6  c #392114",
"7  c #392115",
"8  c #392216",
"9  c #3A2216",
"0  c #3A2316",
"q  c #3F2314",
"w  c #3E2517",
"e  c #382418",
"r  c #382419",
"t  c #382519",
"y  c #392519",
"u  c #3C2418",
"i  c #3C2518",
"p  c #3D2518",
"a  c #3D2519",
"s  c #3E2518",
"d  c #3E2519",
"f  c #3D2618",
"g  c #3D2619",
"h  c #3E2618",
"j  c #3E2619",
"k  c #3D261A",
"l  c #3D271A",
"z  c #3D271B",
"x  c #3D281B",
"c  c #3E281B",
"v  c #3C281C",
"b  c #3D281C",
"n  c #3E291C",
"m  c #3F291C",
"M  c #401B0A",
"N  c #401B0B",
"B  c #401C0B",
"V  c #411C0B",
"C  c #422010",
"Z  c #452415",
"A  c #462515",
"S  c #412A1D",
"D  c #422B1D",
"F  c #442B1C",
"G  c #472D1E",
"H  c #472D1F",
"J  c #482B1B",
"K  c #4B2F1F",
"L  c #552612",
"P  c #552712",
"I  c #562712",
"U  c #562713",
"Y  c #562813",
"T  c #572813",
"R  c #572913",
"E  c #572814",
"W  c #572914",
"Q  c #582913",
"!  c #582914",
"~  c #592914",
"^  c #592A14",
"/  c #5A2A14",
"(  c #5D2C16",
")  c #5E2C16",
"_  c #5E2C17",
"`  c #5E2D17",
"'  c #5F2D17",
"]  c #522C1A",
"[  c #512D1C",
"{  c #552F1C",
"}  c #582D19",
"|  c #50301F",
" . c #51301F",
".. c #51311F",
"X. c #602D17",
"o. c #622E17",
"O. c #642F18",
"+. c #643018",
"@. c #663019",
"#. c #60331E",
"$. c #432F21",
"%. c #432F22",
"&. c #533120",
"*. c #563422",
"=. c #573422",
"-. c #583321",
";. c #5C3522",
":. c #5E3723",
">. c #673923",
",. c #673A23",
"<. c #683922",
"1. c #683923",
"2. c #683A23",
"3. c #6A3A23",
"4. c #6B3D26",
"5. c #6E3C24",
"6. c #6F3C24",
"7. c #773D23",
"8. c #723C24",
"9. c #733C24",
"0. c #733D24",
"q. c #743D24",
"w. c #743E24",
"e. c #783D23",
"r. c #793D23",
"t. c #783E23",
"y. c #793E23",
"u. c #7A3E23",
"i. c #7B3E23",
"p. c #783E24",
"a. c #793E24",
"s. c #7A3E24",
"d. c #7C3F25",
"f. c #7D3F25",
"g. c #7D4025",
"h. c #874324",
"j. c #874325",
"k. c #884325",
"l. c #884425",
"z. c #8B4526",
"x. c #8B4527",
"c. c #8B4626",
"v. c #8C4527",
"b. c #8C4627",
"n. c #8D4627",
"m. c #904728",
"M. c #914728",
"N. c #904828",
"B. c #914828",
"V. c #914928",
"C. c #914929",
"Z. c #9B4E2B",
"A. c #9C4E2B",
"S. c #9A4D2C",
"D. c #9C4F2C",
"F. c #9D512F",
"G. c #975231",
"H. c #9B5331",
"J. c #9D5331",
"K. c #A1522E",
"L. c #A2522E",
"P. c #A2532E",
"I. c #A3532E",
"U. c #A3532F",
"Y. c #A4532F",
"T. c #A3542F",
"R. c #A4542F",
"E. c #A35430",
"W. c #A15633",
"Q. c #A45430",
"!. c #A55430",
"~. c #A55530",
"^. c #A65530",
"/. c #A95731",
"(. c #AA5731",
"). c #A95732",
"_. c #AA5732",
"`. c #A95831",
"'. c #AA5832",
"]. c #AB5832",
"[. c #AA5A34",
"{. c #A95A36",
"}. c #AF5D38",
"|. c #B05D37",
" X c #B05E37",
".X c #B45E37",
"XX c #B75F37",
"oX c #B05E38",
"OX c #B15E38",
"+X c #BA6138",
"@X c #BB623A",
"#X c #BC623A",
"$X c #BD633A",
"%X c #BF643A",
"&X c #BF643B",
"*X c #BF653B",
"=X c #C1663B",
"-X c #C2663B",
";X c #C1653C",
":X c #C2653C",
">X c #C1663C",
",X c #C2663C",
/* pixels */
"/.).).).).).).)./.).).).).).)./././././././././.).)./.).)././.).).)././.E.z.p.$.%.4.Z.P./././././.).)./.)./.).).).).).)./.).)./.).).).)././.)././.).)././.)././.",
").).).).).).).).).).).).)././.).).).(.).).)./.)._./.).).).).).).)./.).).R.z.e.b b 1.Z.P./.)././.).).).)./.).).).(.)./.).).).).)./.).).).)./.).)././.).).).).)./.",
").)./././.).)./././.).).).).).)./.).)./.).)._.).).).).).).).).)./.)./.).T.z.7.v b >.A.P./././.).).).).).).).).).).).).).).)./.).)./.).).).).).)./.).).).).).).).",
")././.)././.).).).)./.).)./.)./.).).).).).).).).).).).)./.)./.)././.).).R.z.t.v b 1.Z.P./.).)./.).)./.).)./.)./.).).).).).).)./.).).).).).).).).).).)./.)./.).).",
")./.).)./.).).).).).).).).)./.)./.).).)./././.)./.).).).).).).).).)./.).E.z.t.b b 1.Z.P./.).)././.).)./.).).)././.)./.).).).)._.).).).).).).).).).).)./.).).).).",
").).).)./._.).).).).).)._.)./.).).).).).).).).).)./.).).).).).).).)._.).Q.z.t.b b 2.Z.I./.).)./.).).).).).)././._./._.).).).)./.).).).).)./.)._.(.).).)././.).).",
").).).).).)._.).).)._.).).)./.)._.).).(.)./.).(.).).).)./.).).)./.).).).E.c.t.b b 2.Z.P.).(._.).).).).).).).)./.).)._._./._.).).).).).)._.).)._.).).).).).).).).",
"/.(.).)./.)._.).).).).).).).).).).).).)./.).).).)./.).).)./.).).).).)./.T.z.t.b b 1.Z.P./.)./.).).).)./.).).).).).).)./././.).)._.).).)././.).).)._.).).)./.).).",
").).).)./.).).)./.).).).).).)./././.).).).)././.).).).).).).).).)./.).).E.x.p.b b 1.Z.P.).).).)././.).).)././.).).).).)./.).)./.)./.).).).).).).)./.).).).).)./.",
").).).).).).)././.).).).).).).)./.).).).).).).).).).).).)./.).)./.).).).Q.v.t.b b 1.Z.P././.).).).)./.)./.).).).).).).).)./.)./.).).).).).).).).).).).).).).).).",
").).).).).).).).)./.).).).).)././.)./.).).).).).).).).).)./.).).).).).).Q.b.a.b b ,.Z.L.).).).).).).).).).).).).).).).).)././.)././.).)./.).).).)._.).).).)././.",
").)./././.).).).).)./._.).).).).)././.).).).).).).).)./.).).)./.).).).).R.b.a.b b 1.Z.P.).).).).).)./.)./.).).).).).)./.).).).).)./.).).).).).).(.).).).).).).).",
").)./.)._.).).).).).).)./.).).)././.).).).).)././.).)././.).).)./.).).).R.b.a.b b 1.Z.P.)././.).).).).)././.).)./._.).).).)./.).).)./.).)./.)./.).).).).).).).).",
")./.)./.).).).).).)./././.).).).).).)./.).)./.).).)./.).).)./.)././.).).Q.b.a.b b 1.Z.P.).).).).).).).).).).).).).).).).).).).).)./.).)./.).).).)./.).).).).)./.",
")./././.).).).).).).)./.).).).).).).)./.).).)./.).).).).).).).).).)././.R.b.a.v b 1.A.P.).).)./.).).).).).).).).).)./.).).).).).)./.)./.).)./.)./.).).).).).).).",
")./.).).).).)./.).)./.)./././.).).).).).).).)./.).)./.).).).)./.).)./.).Q.n.a.b b >.Z.P.).).).).)./.)././././.).).).).).).)././.).).).).)._.).)./._.).)././.).).",
")./.).).).).).).).).).).).).).).)./././.).)./.).).)./.).).).).)./././.).Q.n.a.b b ,.Z.P./.).).)./.).).)./.).)././._.).).).)./.).).).).).).).).).)._.).)././.).).",
").).).).)./.).).)./.)./.).).).)././.).).).).).)././.)./.)./.)./.)./.).).R.n.a.v b 1.Z.L.).)./.).).)././.).).).).).).).).).).).).).).).).)./.).).).).).).).).).).",
"/./.)./.).)._.).).).).).).).).).).).).).)./.)././.).).).).).).)./.)./.).Q.n.a.b v 1.Z.L.).).).).).)././.).).)./.).).).).)././.).)././.)./.).).).).)./.)././.).).",
").).).).)./.).).)./.).).).)./.).).).).).).).).)./.)./.).).)./.).).).)./.R.n.s.v b 1.Z.P./.).)./.).).)./././.).).).).).).).).).).).).).)./.).).)./.).).).).).).).",
").).).).).).).).).)./.)./.).).).).).).).).).).).).)./.).).).).).).).).).Q.n.s.b b 1.Z.P.).).)./.)./.).).)./.).)./.)./.).)./.).)./.).).)./.).).)./.).).).).).).).",
"/./.).).).).).).).).).).).).).)./.).).).)./.).).).).).).).).)./.).).).).R.n.s.b b 2.Z.P.)././.).).).)./.).).).)./.).).).).).).)./.)./.).).).).)./.)._.).).).).).",
"L L P P P P P P P P P P P P P P I P P U P P U I U Y U U Y Y Y Y Y Y Y Y ! ( ] b b J W T R T R T E R R W Q Q ! ! ! ! Q ! ! ! ! ~ ~ ! ~ ~ ~ ~ ~ ~ ~ ^ ^ ~ ^ ^ / / ",
"+ + + + @ # # # # # # # # # # # # $ # $ $ % * = = = = = = = = = = = = = M A x b b b w 1 - - ; ; - ; : : : : : : , > > < < < < < 1 < 1 < N N N N N N N B V N V V ",
"5 p p p i p p p i p p p p p p p p p p p p p p p p p p p p p p p p p p p g x b b b v b k p p p p p h p p a p s p f j s s a p g f h d g j s h j h j j h j j h j 8 ",
"y b b v v b b b v b b b b b b v b b b b b b b v b b b b b b v b v b v b b b b b b b b b b x b v b b b b b v b b b b b b v b b b b b b b b b b b b b b b b b v e ",
"c D D D D D D D D D D D D D D S b b b v b b S D D D D D D D D D D D D D D D D D D D D D D D D D D D D D D D D D D D b b b b b b m D D D D D D D D D D D D D D l ",
">X>X>X>X;X>X>X,X,X:X,X>X>X,X,X.X-.v b b b *.@X:X-X>X>X>X>X>X>X;X;X>X,X,X>X>X;X>X,X>X>X:X>X,X;X;X>X:X,X>X;X>X,X,X,X>X5.m x b b G W.>X>X,X>X:X;X;X>X>X,X>X,X>X>X,X",
"&X&X&X&X*X&X*X&X&X&X&X*X&X&X&XXXS.&.v b =.[.$X&X*X&X&X&X&X&X*X*X&X&X&X&X&X&X&X&X&X&X&X&X&X&X*X&X&X&X&X&X*X%X&X*X&X&XZ.3.b b S J.+X&X*X&X&X&X&X&X&X&X&X&X&X&X&X&X",
")./.).).).).).).).)./.).).).).U.m.8.v b 6.Z.~././.).)././.).)./.).).).).)./.).)./.).).).).).).)./.).).).)./.)._.)._.h.r.n b  .Z.K.).).).)./.).).).(.).).).).).).",
").)././.)./.).).).).)././././.U.m.9.b v 6.A.~.).).).).)./.)./.).).).).).)./.).).)._./.)./.).).)._.)./.)./.).).)._.).j.r.n b  .Z.K./.).)._.).).)./.).).).)././.).",
")./.).).).).).)./.).).)./.).).U.m.9.b b 6.Z.~.).)./.)./.).).)./.)./././.).).)./.).)./.).)./././.)./.).).).)./././.).j.y.n b  .Z.K.)././.).).)././.).)./.).)./.).",
").)./.).).).).).)./.).).).).).U.N.0.b v 6.Z.~.).).)././.).)./.).).)./.).)././.).)./././.).).).)._.).)././.).).)./.).h.y.n v  .Z.K.).).).).)././././.).).).).).).",
"/.).).).)./.).).).)./.).).).).U.m.0.b v 6.Z.~./.).).).).)./.).).).).).).).).).).).).).)./././.)./.)./.).).).)./.).).j.y.n b  .Z.K.).)./.).)./.)._././.).)./.).).",
").).).)././.).).).)././.).).).U.m.0.b b 6.Z.^.).).)./.).).)././.)././.).).).).).).).)./.).).)./.).).).).).).).)././.j.y.n b | Z.K.).).).).).)././.).).)./.).).).",
").).).).).).).).).).).).).)./.U.N.0.b b 6.A.^.)./.).).)./.)._./.).).).).)./.).).).).).).).).).).).).).).).)./.).).).j.y.n b  .A.K.)./.).).).).).).).).).).).)./.",
"/.).).)./.).)./.)./.)./.).).).E.B.0.b v 6.Z.~.).).)././.)./.).).)./.)./.).).)././.).).).).).)././.)././.).)./.)./.).j.u.n b  .Z.K.).).).).).).)./.).).).).).).).",
"/.).).).)./._.).).).).).).).).U.B.0.v b 6.Z.~./.).).)./.).).).).).).).).).).).).).).).)././.).).).).).)./.).).)./.).j.u.n v  .Z.K.).).).).).).).).)./.)././.).).",
").).).).)./.).).).).).).).)./.T.B.0.b v 6.Z.~.).).).)./.).).)./.).).).).).).).)._.).).).).).)./.).).).).).).).)./._.j.u.n b  .Z.K.).).).).)./.).).).).)././.).).",
").)._./.).).).).)././.).).).).Y.B.0.b b 6.Z.~.).).)./.).).)./.).).).).).).)./.)._.).).)./.).).).).).)._.)./.).).).).k.u.n b ..A.K.)./././._.).).).)._.).).).)./.",
").)./.).)._.).).).).).).)././.U.B.0.b v 6.Z.^.).).).).).).).).).).).)._./.).).).)._.).).).).)./.).).).).)./.).).).).k.u.n b ..A.K.).).).).).).).).).).).)./.).).",
").).)././.).).).).).).).).).).U.B.0.b b 6.Z.^.).).)./.).)././.).).).)./.).).)._.).).)./.).).)./.).).).)./.).)./.).).j.u.n b  .Z.K.).).).).).).).).)./././.)./.).",
").).).).).)._.).).).).).).).).U.B.0.b b 6.Z.^.).).).).).)./.).)./.).).).)././.).).).)./.).)./.)./.).).).).).)././.).k.u.n b  .Z.K.)./.)./.)./.).).).).).).).).).",
").).).).).).).).).).).).).)./.T.B.0.b b 6.A.^.).).).).).).)._.).).)./.).).).).).).).).).).).).)././.).).).)./.).).).k.u.n b  .Z.K.).).).).)./.)././.).).)./.).).",
"/.)././.)./.).).).).).).).).).E.B.0.b b 6.Z.^.)././.).).).)./.).).).).)./.)././.).).)./././.)././.).).).)./.)./.).).k.u.n b  .Z.K.).)._.).).).).).).).).).).)./.",
").).).).)./.).)./.).).)._.)./.E.B.0.b b 6.Z.~.).).).).).)./.).).).).).).).).).).)./.).).)./.).).).)././.).).).)./.(.k.u.n b  .Z.K.).).(.).)./.).)./.).).).).).).",
").).).).).).)././.).)././.)./.T.V.0.v b 6.Z.^./.).)./.).).)./.).).).)./.).).)._.)./.).).).).).)./.).).).)./.).).)./.k.u.m b  .Z.K./.).).)././.).).).).).)./.).).",
"/.).).).).).)././.)./.).).).).T.V.0.v v 6.Z.^.).).).).).)././.).)././.).).).).)._.).).).).).).).).).).).).)././.)./.l.u.n b  .Z.K./.).)./.).).).)./.).).).).).).",
").).).)./.).).).).).).).)././.T.V.0.b b 6.Z.~.).).)././.).).).).).)./.).).).).).)./.)./././././.).).)./.).).).).).).k.u.m v  .Z.K.).).)./.).).).).)./.).)./.).).",
"/._././././.).).).).).).).).).T.B.w.b b 6.Z.~._.).).).).)././.).).)./.).)./.).).).).).).)./.)./.)././.).)./.).).).).l.i.n b  .A.K.).).).).).).).)./.).).).).)./.",
"/././.).).).).)./.).).).).).).T.C.q.b b 6.Z.^.)./././.).).).).)./.)././.).).).).).)./.).)././.).).)./.).).).).).).).l.i.n b  .Z.K./.)./.)./.)./.).)././.).).).).",
"` ` ` ` ` ` ' ` ' ` ` ` ` ` ` X.@.{ b b [ O.X.` ` ` ` ` ` ` ` _ ' ` ` ` ' ` ` ` ` ` ` ` ` ` ` ` ` ` ` ` ` ' ` ` ` ` ) } b b F +.o.` ` ` ` ` ' ` ` ` ` ` ` ` ` ' ",
"                              O Z b v b b q o                     .       X                         X             . C l v b b s &                     X     .   ",
"3 7 7 7 7 7 7 7 7 7 6 7 7 7 7 0 b b b b b v 9 7 7 7 7 6 7 7 7 7 7 7 7 7 7 7 7 7 7 7 7 7 7 7 7 7 7 7 7 6 7 7 7 7 7 7 z b v b b b u 7 7 7 7 7 7 7 7 7 7 7 7 7 7 4 ",
"y b b b b b b b b v b b b b b b v b v b b b b b b b b b b b b b b b b b b v v b v b v b b b b b b b v b v b b b b v b b b b v b b v b v b b b b b b b b b b b r ",
"t b b b b b b b v b b b b v v b b b b b b b b b v b b b b b b b b b b b v b b b b v b v v b v b b v b b b b b b b b b b b b v b b v b v b b b b b b b b b v b e ",
"|.oXoXoXoXoXoXoXoXoXoXoXoXoXoXoXOXOXoXoXoXoXoXoXoXoXoXoXoXoXoXoXoXoXoXoX{.:.b b b v K G.oXoXoXOXoXoXoXoXoXoXoXoXOXoXoXoXoXoXOXoXoXoXoXoXoXoXoXoXoXoX XoXoXoXoX}.",
";X>X,X>X>X,X>X>X>X,X>X>X>X:X,X>X,X,X>X;X=X,X>X>X>X>X,X>X,X>X>X>X>X,X>X,X#XF.;.b b H H.$X>X>X>X=X,X>X;X>X>X,X>X>X>X>X>X>X>X>X>X>X>X>X>X>X;X>X>X>X>X>X>X>X>X>X=X>X",
"'.'.'.'.'.].].'.].'.'.'.'.'.].'.'.'.'.].'.].'.].'.'.'.'.].].'.'.'.'.'.'.^.B.g.v x 2.D.U.'.'.'.'.'.'.'.'.'.'.'.'.'.].'.'.'.'.'.].'.'.'.'.'.].'.].'.'.'.'.'.'.'.'.",
").).).).).).).)././.)./.).)./.).)././.).).).).)./.).).).).)./.).)./.)./.Q.m.d.b b >.Z.P.).).).)./.)./.).).).).).)././.).).)./././.).).)./.)./././.).).).)./.).).",
"/.).).)./.).)./.).).).).)././.)././.)./.)./.).)./.)./.).).).).).).).).).Q.m.d.b v <.Z.P.)./.).).).).).).).).)././.)./.).).).)./.).).).).).).).).)././.)./.).).).",
"/.)./.).).).).)./.).).).).).).).).)./.)././.).)._./.)./.).).).).).).).).Q.m.d.b v 1.Z.P.).).).).).)./.).).).)./._.).).)./.).).).)././././././.).)._.).).).).)./.",
").).).)./._.)./.).)./.).).)./.)./.).).).)._.)././.)./.).).).).).).)./.).Q.m.f.b b 1.Z.L./.).).).)./.).).)././.).).).).).).).)./.).).)./.)./.).).)./.)./.).).).).",
").).).).).)._.).).).)./.).).).)./.).)./.).)./.).).).).).)./.)./.).)././.Q.m.g.b b 1.Z.L.).)././.)./.).)./.).).).).).)./.)./.).)./.).).)./././.).).).)./.)./.)./.",
").).).)./.).).).)./.)./.).).).).).).).).).).).).).).)./.).).)././.)./.).Q.m.g.b v 2.Z.P.).).).).).)./.).)./.).).).).)./.)./.).).).).)./.).)././.)./._.).).)././.",
"/.).).).)._.).).).).).).).)./.).)./.).).).)././.)./.).).)./.).).).)./.).Q.M.g.b b 1.Z.L.).)./.).)./.(.).).)././.).).).)./.).).).).).).)././.).).)./.).)./.).)./.",
").).).).).)./.).).).).).).).).).)./.).).).).).).).).).).)./.).)././.).).Q.M.g.b b 1.Z.P./././.).)._././.)././.).).).).).).).).)./.).).)./.).).).)./.)./.).).).).",
")./.).).)./.).).).).)./././.).).).).).).)././.).).).)./.).).).).)./.).).Q.M.g.b b 1.Z.P.).).).)./.).).).).).)._.).).).).).)./.).).)././.)./././.).).)./././.).).",
")./.)./.).).).).).)./.).)./.)././.).).).)./.).)./././.).).).).).).).).).Q.M.g.b v 1.Z.P./.).).).).)./.).).).)./././.)././.).).).).).)./.)./.).)./.`.).).).)./.).",
")./.).).).).).).).)././.).).).).).)./.)././.).).)./.).)./.).).).).).).).Q.M.g.b b 1.Z.P.)././.)./.).).).)././.)./.).).).).).).).).).)./.).).).).).).).).).).).).",
"/.).)./././.).).).).).).).)././.).).)./.).).).).).).).).)./.).).).).)./.!.M.g.b v 1.Z.P.).).).).).).).).)./.).).).).).).).).).)././.).).)./.).).).).).).).)./.).",
").).).).).).)._.).).).).).)./.).).)./././.).).).).).).).).).).)./.)./.).Q.B.g.b b 1.Z.I./.)./.).).).).).).).).).).).)./.).)./.).).).).).)./.)./.).).)./.).).).).",
").)./././.).).).).).)./.)././.).).).).).).)./._./.)./.)./././.).).)./.).Q.B.g.b b 1.Z.P.).)./.).).).)./.).).).).).).).)./.).).)././.)./.).).).).(.).)./.).)./.).",
").).)._.)./.).)./.).).)./.).).).).).).).)._._.)._._.).)./.).).).).).)./.!.M.g.b b 2.Z.P.).).).)./.).).).).).)._./.)./._.)././._.)./.).).).).).).).)._.).).).)./.",
"/.).).).).).).).).).).).)./././.).)._.).).).).).)._.).).)._.(.)./.).)._.!.M.g.b v 1.Z.P.)./.)./.).).)./.)./././.).).).)./.).).).).).).).).)./.).).).).).)./.).).",
").).).).)././././././.)._././.).)./././.).).).)./.).).)./.)./.).).).).).Q.M.g.b b 1.Z.P.).).)./.).).).)./.).).).).)./.)././.).).)./.)./.).).).).).).(./././.)./.",
"/.).).).)./.)./.)./.).)./.).).).).)./.).).).).).).).).).).).).).).).).).Q.B.g.b v 1.Z.P.).)./.).).).)./././.).).).).).).).)./.).).).)./.).).).).)./.).).).).).).",
"/.)./.)./.).).)./.).).).).).).)././.).).).).)./.).).).).).).).)./.)./.).Q.M.g.b b 1.Z.P.).)./.).).).).).).).)././././.).).).)./.).)././.).).).)./.).).).).).).).",
")./.).).).).)./././././.).).).).)././.).)././././.).)./.)././.).)./.).).Q.B.g.b b 1.A.P.).).).)./.).).)./././.)./.).).).).).).).).)./.(.).).)./.).).(.).).)./.).",
").).).).)./.).).)././.)./.).).).).)././.)././.).).).)./.)./.).)./.)./.).Q.M.u.2 2 #.Z.L.).).).)./.)./.).).).).).)./.).).)./././.).)./././.).).).).).).).).).).)."
};
