/* XPM */
static char *result[] = {
/* columns rows colors chars-per-pixel */
"80 80 31 1 ",
"  c #669D05",
". c #689E04",
"X c #64970F",
"o c #65990B",
"O c #689E0E",
"+ c #649413",
"@ c #669A14",
"# c #689D13",
"$ c #67A100",
"% c #69A400",
"& c #6BAB00",
"* c #6AA30B",
"= c #6EAC0D",
"- c #70AF0D",
"; c #6DB400",
": c #6FBA00",
"> c #70B403",
", c #70BA00",
"< c #72B40D",
"1 c #76BB0E",
"2 c #78BE0E",
"3 c #6BA414",
"4 c #6EAA13",
"5 c #70AE13",
"6 c #72B312",
"7 c #75B910",
"8 c #78BD10",
"9 c #76C000",
"0 c #78C103",
"q c #7AC40C",
"w c #7DCB0B",
/* pixels */
"&;;&o%%&;;;,&&;;&%+X $..+++o&;; X %%%.++++X  %,;%&;&o$:;###.$&:&++++$:;$;&;X$%:;",
"&;;  %&;;&;;&&;&%%++ o  ++ %;;;o+ ..$o+++o&$o;:%%&&&.;,%@@%%%::$++X$;:%%&&&o%;:&",
"&;&+ $;;&;:%&&&%$ ++oooo%&%%&;&+++ooo++X&;o+;::o%&&&;;&+o&&$;;&+X&&&:;$%%&$%;;&%",
";;$+$;;&;:;%%&&%$X++++o&:& &&&%++++Xo+ &:%+ ::; &%&&;; o&:$&;;%$;;%;:& %%%%;;;&$",
":% &:;$%::$$%%&$.o++++;:&+ %&%o++++++ ;;&++&;:&$%%&;;&+&,&$&&&&;:%;;;  $$%&&;&$ ",
"&%&::  ;:;o$$%%o +++X&;;o+%%%&++++++o&;;X+o;;;.$$%;;;%&,;o%&&;::;;;;;+o $%%%;%oo",
"%;;;%+$;:&X$$$$Xo+oo&,;$++%$%$++++++%&&%++%;;&o.%;;&%%:;&o%&&;;;;&&;%+oo$$$;;X+%",
"%;&;+X&;:%X o  ++  %:;&o+X$$$$++++o$%%%o+ &&&%X&;:&&&&;;  %&;;;:;&&& +++o*%: +X;",
"%%&%+o&;; Xoooo+o&o:,&$++X$ .o+++o..%%%+% %&&$.;;;&%&&:&X.%&;&:;%&&&o@+++$:;++&,",
"%%%o+%;:&X++XoX ;o&,;$o+X%oo X++$%ooo. %  %%%%&;;%%%&;;$X%;&&;:&%%%%++++o;:$+$;,",
"...+X&;;%++++X ;&%;;% +o%$XXXXX&;++oo &&+..%%&&&&$ %;:& %:;%&::%$%%%++++&:;X+&;;",
"+Xo+o;;&$++++&:;$&;; X$; +++XX;;.++++%;.Xo..&&&;&o &:&%&:,  ;:;$$%$.+++o::&+o&;&",
"++++&:&%o++$;::&$;&&+$:&+++X &:%++++ :&++oo.%%&&oX$:;%;;:%+%::&X...o++X&;; +%&;&",
"+++.,,%%X@%,::: &&&%$:;o++%%&::o++X%:;o++++ .&: ++;:%%;;&XX&;;$oo .o++.;;;X+&&&%",
"++o;:&%$o&;;::: &&&%;:$+o%&%;;&+X%&;,&+++++X$;;++&::%&&&$+$&;;+Xoo X++&;;%+o&%& ",
"++%,:$  %&;:::&$%&&;;;+X;; ;;;X &;%::%+++++@;:&+ ;:;$%%%@+&;;&+XXoX++X&&&$+.%%%o",
"+.;:;oo%&&&,,;.%%%;;;%o;:$%&;&&::%;;;++++35;,;X+&;;%o.. +o&;;%+++++o.%&&&o+.$$%+",
"+&;;%Xo%$&&;;;o%%&;;&%&:& &&&;::&&;;%++376*;:%+ &;;oXX o+ ;;& +++o$&o%%&%X+..$$+",
"%;;; +o%$%;;;&o;;;;&&%;:%.%&;;;;;;;;$+5q8#&;; +%;&&++++++%,&&o++o;&XX%$%$XX    +",
"%;&&++Xoo*,;&&>;;,&&&&;;o%%&;;;;&&&;o5qq@ ;;;o+&&&%+++++$:;&%++%,;o+o%%% ++XooXX",
"%&&&++++31&&;::::&%&&;;%o%%&;;:;%&&&5q84+&;;&+o&&& ++++X;:&$$+&:;o++o..$o++++X ;",
"&%&$+++@q;%;:;;;;%$%&;; o%>;&;:%%%&;575@o%&&$+.%%%X++++&,:...%&;%+++o . X+++X%;;",
"%%%o++@7q%;;;;&;&$.&;;%o%:;&&::$%%&=563+%&&&++ %%%X+++ ;:;o.%&&&o+++o   X+++%;;.",
"%%%+++7w=%&;;%&;$ %;:&%&;; %::& $%&334@+%%&%+o $%.++++&;;%o %%%%++++Xo.oX++$&;&+",
"%$.X+3ww %&&%%;%XX%,;%&:;%o&::$ $$%*33++%%%%+X    ++X.;;& X $%$o+++X%%+X++o$&&o+",
"  .+@qw6 %%&$;:X+o::%&;;%+ ;;;X   .#@@+X%$%$XXoooo+.&&&;&++Xo  X++ ;%+++++.%%%++",
"o o+6q83X $$%:&+X;:;%&&&o+%;;&+oo o++@+o%.%%+++Xo ;; %&&$+++XXX++&;&+++++X  .o++",
"oXo@1q6+XXo :; @.::&%%&%++&;;%+XXoo++++  %&o+++X$;>X &&&o++++++o&:&++++++++o o++",
"++@4114+++X;:%+X&:;o.%$ +.;;; ++++Xoo+Xo.;%X+++%;;%+$%&%X+++++X&;; +++++++++@+++",
"++@6713+++$::$+$;;&+Xo.X+%;;&+++++$%o+oX;;oX++ &;&++.%$%++++++$&&%++++++++++++3+",
"++3666@++o;:;X+&;;%++++Xo;:&%+++.;&++$o%:.X++ %&&o+X %$.X+++X.%&*o++++++.+++34++",
"++3664+++%;;&+o&&& +++++%:&%%++%:&o+%%%:&X+++.%%%++X$$$ +++X..$%.+++++X%o++38#++",
"+#3543++o&;; +%&&&+++++$::%$ o&;;X+%&.;: +++ $$$ ++o%% o++ %X  . +++++&%+@6w3+++",
"+33333++$&&&+X%%&%+++++&:;$$o&;;%+.: &>;+++o& o X+X&&XXX++;$+Xo o++++%&o+4w7++++",
"+#333@++&&&%+o$%%.++++%::%  %&&%+$;&.;;&++%;+++o+ ;;X++Xo&&++++X++oo%:.+6ww#++++",
"+33#3@+ %&&.+ .%$ ++++;;; X$%&& X;: &;;.X&; +++o.;:o+++@&:o++++++ % >>X#qq6+++++",
"%#@##+$%%%& +o . o+++%;;&+o $$%o&:;$;;%X&:&++@%.;:&+++X&:&++++++X& ;,%@781*+++++",
"X++@@$% %%%o+Xoo ++$&&;;$+Xo   %::;;;&%%:;X+X&%&;;o+o%%::.+++++o;.%:;+5711o+++++",
"++++%;o.$$$X++Xoo ;&.&&&o+++XXo;:::&%&&;;%+ ;&$;;&+$;&;:&++++++;;.;;%@<<9=+++++&",
"+++.:$X   $+++@#%;;X%&&&o++++@%:::&&%&;;;  ;;$&;;$&:&&;;%+++++&;%&;;.31013+++o&:",
"++o;;+Xoo  ++#5%;:o+%>&%+++++3;::;%%%&;;% ;:%%&&&;:;&;;; ++++%:; &;;+-9,4@+o$&,;",
"o%;:&+XXooo+46&&;%+o<>%.+++36*;::%..&:;&$;:;X%&&;;,;;&;&++++o;:%%&&&%,,<3@%%%:>o",
"&&,:o++++o@5q&%&%++<<%% ++37#%;;;o.&:;&&&;;%o%%;;;;:&&&&++++&:,%%&&%;,>3*&&$;;;+",
"%>:&++++++7w4$%&%+5q%..o+3w4X;;;&o&::%%%&;;o %%;;;:&&&&%+++.::; %%&;,,*3>; &;;%$",
";;; +++++6w8 .$$o3w6o.oo5w7@$&&;%&;;&%%&;;&+ &;;&::$&&%o+++&::&.%%&;;&*;,&%&&&&,",
";;;+++++6qw3Xo* 3wqoXoo3ww#+$%%%&&;&%.$;:; o&:&%;:&%%%%o++.;;; .$&;;;%&,:.%&&;;:",
"&;&++++3qq1++3OO1w7+++*qq7+Xo%$&&&&&  %:&%$;:&.;:: %$%.X++%;;;X %;:&&%;;%o%%&;;:",
"&&$+++@41q3+33+5ww3+++6qq3++oo$%%&; Xo;:%&;,;oo;:;o.$. +++&&&%X%;,&%&&;>o %&;&;:",
"&&o+++4676@56+@www+++3785+++XX $%,%++&,;%>;> +%;;%oo .o++o%&&%%::%%%&;;&+ $;;&;:",
"%&o+++56664q#+5ww6++@5774++++X$.&;.+ ::%&&&&+o;;;%o o o++ %%%%&;;%%%&;;%X%;;&;:&",
"%$X++#4666w5+#8qq3++3555#++++&X&,&X+;:;.&%%.+%&;;X@oooX++ .$%;&&;. &;:% %:;.&::%",
"$.+++3446qw@+48q8@++3444@+++;. ::o+%,;& %%%X+%;;&+++XX+Xo ..%%%;%X &:&%&:; o;::o",
"$o+++343qw6++5885@++3433++X&;+;:;+@&;>.oo  +X&,&$++++X%%+o $%%;&+o%:;.;>:&+%:;&o",
".o+++#34wq3+#5674+@4433*oo&; %;;%+ ;;&o++oX+%;;& +++$;.++X+o$&:$+o;:&&;>&X+&;;%o",
" X++@#38w8++35653#85@@#*$ :;+;;; +%&&&++XX++;:&& ++%;&++++@X$:;++&,,%&&&$+ ;;; o",
"o++X++6qq5++46558w4+++%&$;:$%;;& o&&&%X%.X+%:;&%X ;,&@+++++X;: + ;,&.%%%X+%;:%++",
"Xoo@+@6q83+@653qw1+++X;%&;; &&;&o %%&$%&++ ::;&. &;,O++++++&:;+X%;;$ .%%+X&;;$++",
"$&o++3777#+5538q1@++o;&.;;% &;:$+$%%%;;X+X;::;.%&;;<++++++$;:&+ ;;;oXooo+ ;:& ++",
";X+++5675@5q#6883@++;: &;;o$;;&X+.$%;:$++$:::$o%%>q+++++++;;:o+%&;&++++++&,&%o++",
"X+++@66634w34566@++%:;.&&&@&:;%+X%&;:&++@&::;oo%&w4++++X %;;;+o%&&%+++++$:;%$X+&",
"++++34555qq@3454++ ::&%&&&%,:&$o%%&::oo%;::,$+o*20O+++%& &&;%+o%&& ++++o;,&$$o%;",
"++++3445qw3@334@++;:;$%&&%;,&%$&;%;;&o;:;;:;++o1w-++o&;% &&; +%%%%o++++&::%.$%;;",
"++++3348wq+@@33+#=::&o%&&;;;%%:;$&;;;::;;::&++3wq@+.;: +$&&%X+$%%.++++.;:&o %&&&",
"++++335ww7++@@356;::%$%%&;;&$;:%$&&:::;&;:;%+#qw7+.;;&++$&&%XX..%%++++&:>%X %%%%",
"+o%%338qq3+++5q4$;;;$ $&;;&%;:; %&;,::;;;;;o+6ww3 &&&o+o%&%%++ *=o++o%;;;oX ..$o",
" ;&@o3qq7#+@6wq+%;=&o$%;:%&&;:$ %;:,;;;;;;;@@qq13%&&$++3;%%%++o<*X+%&&&;&++o  %+",
":$o$@6815+#6q8@+%&&&o&:;&%&&;;+$%;;;;,&&;;$+6qq4 $%%O3q<..%o++25o%;&o&&&$++43oX+",
";X$o@6773@4883+O&%&$%;:&%$&;;%+$&,;;,:&&&& #7113o.$%6q4o...o+6q#%>;o &&&o364+++o",
"$&$+3667#3666++ %%%&&;&&$%&;& X&:&&::&%%%&o3177@oo$qw8+Xo  o6w4&;;%+.%%&1q4+++X&",
"$;o+3655#3453++.%.&&&&&. %:;% ;:;$;:: $%%%X4565++@8q13+Xooo3wq$&;$++%%&qw5+++X%&",
":$++445=#334@++  .%%&; o.;:&%::;o.;:;o$$% @4554+@6713++++XO2w1&%&X++.&0w8@+++ %&",
";@@@3443@@33+ooXX.$$;&++&:&%;;; +&:;&o .$o@3443+3666@++++X6ww&%%%++o*1qw3++++$%&",
"%++@3453++@#o%X++  &;$+o;:%&&&&+X;;; o ooo#434#@3344++++ @qwq $$ ++X<111++++@$;%",
"o@+*&*3@+++%;+++++&:&X+&:;%%&& +.;;;+oXoo+###3@#333@+++%o5qq4@ooX++3=6<4++++ ;%&",
"++o;*##@+X&;o++++$,:%+%;:&$%%%+o%;;&++XXo+@#@#++@@@@++&%31q1#+++X++3343#+++X;&o;",
"+$;%@@@+o&,%++++ ::;++;;;$o...+o&:;$+++++.%+#+++++@++%;o3116+++++++@*33++++&:$%;",
" :;+++%%&,;++++.;::%+o;;&X++o@+$;;&o+++o&&++++++++Xo%: +56<6++++++++@@@+++%::$;;",
";:$++$%%>;.++ &;::;X+%&&%++++++;:&%X++&,%++++++++X%o:;+@6663+++++++o+++++.::&$&&",
":&+X&;%&;;Xo&&&::;&+o%&&$+++++%:;$%Xo&:&++++++++o& ;:%+#45<3+++++.$X++++%;::o%&&",
"; X&:%%;;% ;;%;::;%+ &%&o++++ ::&$.X;;& +++++++X&%%:; +34<=#++++o&o++++.&::;o%&%"
};
